<?xml version="1.0" encoding="UTF-8"?> <svg xmlns="http://www.w3.org/2000/svg" width="622" height="281" viewBox="0 0 622 281" fill="none"> <mask id="path-1-inside-1_190_157" fill="white"> <path fill-rule="evenodd" clip-rule="evenodd" d="M622 10C622 4.47715 617.523 0 612 0H10C4.47715 0 0 4.47715 0 10V31.5033C0 34.9071 1.73137 38.0772 4.59516 39.9169L16.8532 47.7914C19.717 49.6311 21.4484 52.8012 21.4484 56.205L21.4484 114.208C21.4484 117.612 19.717 120.782 16.8532 122.621L4.59516 130.496C1.73136 132.335 0 135.506 0 138.909V226.347C0 229.29 1.2967 232.084 3.54462 233.984L56.3733 278.637C58.1783 280.163 60.4653 281 62.8287 281H612C617.523 281 622 276.523 622 271V228.862C622 225.748 620.549 222.811 618.075 220.919L604.476 210.518C602.003 208.626 600.552 205.69 600.552 202.575V91.1466C600.552 88.0322 602.003 85.0956 604.476 83.2036L618.075 72.8027C620.549 70.9106 622 67.974 622 64.8596V10Z"></path> </mask> <path fill-rule="evenodd" clip-rule="evenodd" d="M622 10C622 4.47715 617.523 0 612 0H10C4.47715 0 0 4.47715 0 10V31.5033C0 34.9071 1.73137 38.0772 4.59516 39.9169L16.8532 47.7914C19.717 49.6311 21.4484 52.8012 21.4484 56.205L21.4484 114.208C21.4484 117.612 19.717 120.782 16.8532 122.621L4.59516 130.496C1.73136 132.335 0 135.506 0 138.909V226.347C0 229.29 1.2967 232.084 3.54462 233.984L56.3733 278.637C58.1783 280.163 60.4653 281 62.8287 281H612C617.523 281 622 276.523 622 271V228.862C622 225.748 620.549 222.811 618.075 220.919L604.476 210.518C602.003 208.626 600.552 205.69 600.552 202.575V91.1466C600.552 88.0322 602.003 85.0956 604.476 83.2036L618.075 72.8027C620.549 70.9106 622 67.974 622 64.8596V10Z" fill="white" fill-opacity="0.05"></path> <path d="M618.075 72.8027L617.468 72.0084L618.075 72.8027ZM604.476 83.2036L605.084 83.9979L604.476 83.2036ZM604.476 210.518L605.084 209.724L604.476 210.518ZM618.075 220.919L617.468 221.713L618.075 220.919ZM56.3733 278.637L57.0188 277.874L56.3733 278.637ZM3.54462 233.984L4.19016 233.22L3.54462 233.984ZM4.59516 130.496L4.05467 129.654L4.59516 130.496ZM21.4484 114.208L20.4484 114.208L21.4484 114.208ZM16.8532 122.621L16.3127 121.78L16.8532 122.621ZM16.8532 47.7914L16.3127 48.6328L16.8532 47.7914ZM10 1H612V-1H10V1ZM1 31.5033V10H-1V31.5033H1ZM4.05468 40.7582L16.3127 48.6328L17.3937 46.9501L5.13564 39.0755L4.05468 40.7582ZM20.4484 56.205L20.4484 114.208L22.4484 114.208L22.4484 56.205L20.4484 56.205ZM16.3127 121.78L4.05467 129.654L5.13564 131.337L17.3937 123.463L16.3127 121.78ZM1 226.347V138.909H-1V226.347H1ZM57.0188 277.874L4.19016 233.22L2.89909 234.748L55.7277 279.401L57.0188 277.874ZM612 280H62.8287V282H612V280ZM621 228.862V271H623V228.862H621ZM603.869 211.313L617.468 221.713L618.683 220.125L605.084 209.724L603.869 211.313ZM599.552 91.1466V202.575H601.552V91.1466H599.552ZM617.468 72.0084L603.869 82.4092L605.084 83.9979L618.683 73.597L617.468 72.0084ZM621 10V64.8596H623V10H621ZM618.683 73.597C621.404 71.5157 623 68.2855 623 64.8596H621C621 67.6626 619.694 70.3055 617.468 72.0084L618.683 73.597ZM601.552 91.1466C601.552 88.3437 602.857 85.7007 605.084 83.9979L603.869 82.4092C601.148 84.4905 599.552 87.7208 599.552 91.1466H601.552ZM605.084 209.724C602.857 208.021 601.552 205.378 601.552 202.575H599.552C599.552 206.001 601.148 209.231 603.869 211.313L605.084 209.724ZM623 228.862C623 225.436 621.404 222.206 618.683 220.125L617.468 221.713C619.694 223.416 621 226.059 621 228.862H623ZM612 282C618.075 282 623 277.075 623 271H621C621 275.971 616.971 280 612 280V282ZM55.7277 279.401C57.7132 281.079 60.229 282 62.8287 282V280C60.7016 280 58.6433 279.247 57.0188 277.874L55.7277 279.401ZM-1 226.347C-1 229.585 0.426366 232.658 2.89909 234.748L4.19016 233.22C2.16703 231.51 1 228.996 1 226.347H-1ZM4.05467 129.654C0.904498 131.678 -1 135.165 -1 138.909H1C1 135.846 2.55823 132.993 5.13564 131.337L4.05467 129.654ZM20.4484 114.208C20.4484 117.271 18.8901 120.124 16.3127 121.78L17.3937 123.463C20.5439 121.439 22.4484 117.952 22.4484 114.208L20.4484 114.208ZM16.3127 48.6328C18.8901 50.2885 20.4484 53.1415 20.4484 56.205L22.4484 56.205C22.4484 52.4608 20.5439 48.9737 17.3937 46.9501L16.3127 48.6328ZM-1 31.5033C-1 35.2475 0.904502 38.7346 4.05468 40.7582L5.13564 39.0755C2.55823 37.4198 1 34.5667 1 31.5033H-1ZM612 1C616.971 1 621 5.02944 621 10H623C623 3.92487 618.075 -1 612 -1V1ZM10 -1C3.92487 -1 -1 3.92486 -1 10H1C1 5.02943 5.02944 1 10 1V-1Z" fill="white" fill-opacity="0.29" mask="url(#path-1-inside-1_190_157)"></path> </svg> 