<?xml version="1.0" encoding="UTF-8"?> <svg xmlns="http://www.w3.org/2000/svg" width="1759" height="600" viewBox="0 0 1759 600" fill="none"> <g filter="url(#filter0_f_150_670)"> <path d="M1646.45 193.508L1673.6 218.188C1712.44 253.494 1683.16 317.855 1631.03 311.783L1628.48 311.487C1610.91 309.44 1593.44 316.135 1581.74 329.406L1512.43 407.992C1508.02 412.998 1502.71 417.142 1496.79 420.214L1357.75 492.296C1337.79 502.643 1313.51 499.543 1296.79 484.513L1188.43 387.09C1181.25 380.634 1175.93 372.369 1173.03 363.158L1151.8 295.758C1141.18 262.064 1101.61 247.467 1071.66 266.198L931.766 353.683C928.473 355.742 925.412 358.151 922.636 360.866L763.322 516.717C743.839 535.778 713.205 537.33 691.895 520.338L583.181 433.653C576.694 428.48 571.486 421.882 567.961 414.371L530.209 333.918C522.659 317.83 507.676 306.486 490.143 303.583L418.321 291.693C415.405 291.21 412.456 290.967 409.501 290.967L277.108 290.967C264.725 290.967 252.719 286.712 243.1 278.913L94.7691 158.654C91.4752 155.983 88.9313 152.504 87.3858 148.555L68.475 100.239C60.9476 81.0077 86.8942 66.6987 99.1428 83.3266C99.7273 84.12 100.339 84.832 101.058 85.5054C161.61 142.178 381.697 191.928 388.74 191.928C391.785 191.928 399.219 176.182 407.86 154.844C423.717 115.689 475.823 106.065 502.728 138.633L543.854 188.414C545.785 190.753 547.91 192.924 550.206 194.905L668.664 297.125C690.701 316.141 723.845 314.269 743.601 292.892L833.011 196.143C835.601 193.341 837.886 190.272 839.829 186.988L894.677 94.2763C905.524 75.9411 926.138 65.6968 947.303 68.1228L1185.58 95.4351C1202.93 97.4243 1218.25 107.685 1226.7 122.976L1311.87 277.175C1322.29 296.048 1342.94 306.911 1364.4 304.81L1480.57 293.433C1496.53 291.871 1510.96 283.302 1519.97 270.045L1565.46 203.112C1583.92 175.953 1622.15 171.42 1646.45 193.508Z" fill="url(#paint0_linear_150_670)"></path> </g> <defs> <filter id="filter0_f_150_670" x="0.228905" y="0.870506" width="1758.11" height="598.146" filterUnits="userSpaceOnUse" color-interpolation-filters="sRGB"> <feFlood flood-opacity="0" result="BackgroundImageFix"></feFlood> <feBlend mode="normal" in="SourceGraphic" in2="BackgroundImageFix" result="shape"></feBlend> <feGaussianBlur stdDeviation="33.45" result="effect1_foregroundBlur_150_670"></feGaussianBlur> </filter> <linearGradient id="paint0_linear_150_670" x1="1592.95" y1="242.406" x2="304.181" y2="242.406" gradientUnits="userSpaceOnUse"> <stop stop-color="#D1F373"></stop> <stop offset="0.51" stop-color="#0018D0"></stop> <stop offset="1" stop-color="#C8CDF3"></stop> </linearGradient> </defs> </svg> 