<?xml version="1.0" encoding="UTF-8"?> <svg xmlns="http://www.w3.org/2000/svg" width="1856" height="1217" viewBox="0 0 1856 1217" fill="none"> <path d="M307.629 86.0476C392.122 170.2 495.217 230.943 614.379 215.83C700.01 204.976 777.866 162.507 853.359 120.988C932.128 77.6781 1012.35 33.3634 1100.2 15.1806C1221.86 -10.0011 1337.2 15.473 1441.86 85.5725" stroke="#9399FB" stroke-width="0.41" stroke-miterlimit="10"></path> <path d="M304.888 87.2358C389.709 169.615 493.441 229.774 611.707 216.397C699.131 206.511 777.538 163.384 854.118 120.641C932.887 76.6734 1013.67 33.6927 1102.46 18.6348C1224.07 -2.01495 1339.94 17.8125 1445.57 86.8155" stroke="#9399FB" stroke-width="0.41" stroke-miterlimit="10"></path> <path d="M300.458 89.2457C385.951 169.926 490.045 228.878 607.604 217.311C697.355 208.484 776.866 164.827 855.187 120.97C934.594 76.5087 1016.07 35.7574 1106.08 23.6051C1227.78 7.1767 1344.61 21.193 1451.52 88.8254" stroke="#9399FB" stroke-width="0.41" stroke-miterlimit="10"></path> <path d="M294.492 92.1328C380.33 170.547 483.752 227.654 599.932 218.864C693.304 211.81 775.262 167.258 856.566 122.029C938.128 76.6546 1020.98 39.1013 1113.53 29.7998C1234.6 17.6475 1351.9 26.218 1459.53 91.7307" stroke="#9399FB" stroke-width="0.41" stroke-miterlimit="10"></path> <path d="M287.114 95.916C374.175 172.576 477.822 227.782 593.571 220.765C690.132 214.917 774.038 169.963 858.238 123.839C941.697 78.1353 1025.29 44.383 1119.7 37.6764C1241.1 29.051 1360.11 31.9383 1469.48 95.5322" stroke="#9399FB" stroke-width="0.41" stroke-miterlimit="10"></path> <path d="M278.425 100.613C365.624 174.294 467.771 227.216 581.537 223.506C683.46 220.18 771.176 174.093 860.186 126.416C946.144 80.3832 1030.43 51.0167 1127.08 46.7771C1248.95 41.4228 1369.95 38.7913 1481.19 100.265" stroke="#9399FB" stroke-width="0.41" stroke-miterlimit="10"></path> <path d="M268.564 106.277C359.436 179.538 464.789 231.144 581.055 226.503C684.115 222.391 771.78 176.943 862.393 129.76C905.424 107.356 949.696 86.9982 996.089 73.7495C1041.34 60.8114 1086.31 57.7779 1132.91 57.0287C1256.33 55.0734 1380.32 46.3566 1494.5 105.93" stroke="#9399FB" stroke-width="0.41" stroke-miterlimit="10"></path> <path d="M257.651 112.929C349.885 183.467 454.876 233.008 570.418 230.724C678.322 228.604 769.556 182.06 864.807 133.962C907.062 112.618 950.593 93.5583 996.106 81.4974C1045.86 68.3035 1093.98 67.7918 1144.83 68.2122C1268.31 69.199 1393.68 56.005 1509.18 112.6" stroke="#9399FB" stroke-width="0.41" stroke-miterlimit="10"></path> <path d="M245.807 120.586C338.868 187.67 442.808 235.476 556.936 235.786C609.242 235.932 661.238 226.759 711.182 210.495C766.005 192.659 815.604 164.28 867.427 138.97C911.544 117.425 957.127 98.6938 1004.74 87.9121C1055.27 76.4542 1103.94 78.6471 1155.13 80.2918C1279.62 84.2938 1407.38 66.3486 1525.11 120.276" stroke="#9399FB" stroke-width="0.41" stroke-miterlimit="10"></path> <path d="M233.17 129.303C330.265 194.834 437.187 241.634 553.747 241.871C606.984 241.981 659.945 232.899 710.871 216.598C766.694 198.708 817.259 169.89 870.272 144.854C916.371 123.09 964.161 104.651 1013.97 95.2398C1065.38 85.518 1114.54 90.2327 1166.23 93.1931C1292.05 100.375 1422.05 77.8063 1542.16 129.029" stroke="#9399FB" stroke-width="0.41" stroke-miterlimit="10"></path> <path d="M219.844 139.096C320.594 202.252 429.757 248.394 548.282 249.125C601.898 249.454 655.307 240.865 706.734 224.966C765.057 206.93 817.759 176.942 873.272 151.596C921.112 129.758 970.815 111.758 1022.5 103.663C1074.44 95.5309 1123.66 102.036 1175.52 106.514C1303.65 117.533 1436.74 89.9755 1560.13 138.841" stroke="#9399FB" stroke-width="0.41" stroke-miterlimit="10"></path> <path d="M205.966 149.988C308.319 209.105 417.482 254.717 535.421 257.495C593.364 258.866 651.187 250.277 706.82 233.154C766.091 214.916 819.742 184.325 876.409 159.253C924.991 137.745 975.487 120.439 1027.88 113.312C1084.46 105.619 1137.18 115.414 1193.24 121.061C1321.29 133.962 1454.74 104.248 1578.83 149.751" stroke="#9399FB" stroke-width="0.41" stroke-miterlimit="10"></path> <path d="M191.656 162.031C274.822 205.907 361.297 244.557 453.617 259.944C544.609 275.093 637.601 266.632 725.198 236.662C813.621 206.419 892.925 153.643 984.435 132.226C1024.81 122.778 1066.2 118.886 1107.49 121.353C1154.32 124.13 1199.85 136.557 1246.76 139.225C1363.32 145.84 1484.94 123.399 1598.11 161.812" stroke="#9399FB" stroke-width="0.41" stroke-miterlimit="10"></path> <path d="M177.037 175.244C263.564 216.58 352.195 254.901 446.48 270.708C540.299 286.423 635.929 278.237 726.232 247.079C815.897 216.123 896.39 162.945 989.624 142.369C1032.41 132.921 1076.17 129.778 1119.73 133.487C1167.16 137.526 1213 151.433 1260.53 155.014C1378.8 163.932 1502.39 138.714 1617.8 175.024" stroke="#9399FB" stroke-width="0.41" stroke-miterlimit="10"></path> <path d="M164.469 190.392C343.695 270.213 531.559 324.506 723.525 260.089C772.797 243.551 818.138 217.748 865.979 197.482C909.061 179.226 953.627 164.68 999.381 156.256C1042.98 148.215 1087.32 145.894 1131.47 148.964C1180.59 152.363 1228.71 163.401 1277.93 166.233C1397.12 173.105 1521.27 155.653 1637.74 189.478" stroke="#9399FB" stroke-width="0.41" stroke-miterlimit="10"></path> <path d="M161.866 210C339.282 284.285 536.972 331.158 724.939 271.694C774.728 255.941 820.052 229.426 868.617 210.402C913.079 192.987 959.178 180.542 1006.07 173.288C1102.32 158.394 1198.24 169.45 1294.84 172.191C1415.48 175.59 1540.15 172.867 1657.81 205.158" stroke="#9399FB" stroke-width="0.41" stroke-miterlimit="10"></path> <path d="M166.4 233.153C247.859 264.512 330.352 286.349 416.569 296.4C516.526 308.041 620.672 312.463 718.888 285.764C772.108 271.31 819.638 243.35 871.237 224.345C917.44 207.314 965.505 196.532 1014 190.154C1111.36 177.326 1212.02 176.997 1310.05 177.271C1433.09 177.618 1558.25 190.3 1677.76 222.097" stroke="#9399FB" stroke-width="0.41" stroke-miterlimit="10"></path> <path d="M174.106 258.537C251.082 285.528 329.024 297.789 409.673 303.856C512.009 311.55 617.259 323.026 718.423 299.014C773.056 286.039 821.104 257.678 873.875 239.367C923.629 222.098 975.418 212.742 1027.4 207.095C1077.86 201.613 1128.56 199.53 1179.14 195.875C1229.78 192.22 1280.08 183.43 1330.85 182.626C1454.83 180.652 1577.71 209.032 1697.44 240.281" stroke="#9399FB" stroke-width="0.41" stroke-miterlimit="10"></path> <path d="M180.968 284.906C252.462 307.255 324.094 310.051 398.053 312.701C504.492 316.539 612.345 335.891 718.095 313.962C773.97 302.376 822.552 273.649 876.357 255.869C927.767 238.892 981.383 231.125 1034.88 226.191C1086.99 221.385 1139.34 219.211 1191.35 213.125C1244.84 206.876 1296.84 191.069 1350.8 189.424C1476.26 185.605 1596.31 229.17 1716.74 259.834" stroke="#9399FB" stroke-width="0.41" stroke-miterlimit="10"></path> <path d="M183.019 310.929C250.841 330.025 317.663 324.561 386.968 324.945C497.389 325.53 608.19 351.808 718.216 331.03C774.987 320.303 823.827 290.919 878.564 273.997C931.456 257.641 986.538 251.538 1041.31 247.444C1096.82 243.296 1152.64 241.341 1207.73 232.35C1260.27 223.761 1309.79 202.435 1363.18 199.201C1493.39 191.306 1611.11 252.305 1735.49 280.74" stroke="#9399FB" stroke-width="0.41" stroke-miterlimit="10"></path> <path d="M176.244 335.306C243.703 353.233 309.026 342.123 377.434 341.922C490.148 341.593 603.001 370.776 715.44 351.424C774.038 341.337 823.965 310.234 880.581 293.97C933.818 278.675 989.21 274.581 1044.07 271.676C1101.84 268.606 1160.07 267.345 1217.09 256.07C1271.98 245.197 1321.7 217.128 1377.82 212.541C1511.48 201.595 1626.14 277.798 1753.39 303.034" stroke="#9399FB" stroke-width="0.41" stroke-miterlimit="10"></path> <path d="M153.815 355.846C227.205 372.073 300.94 368.09 375.4 369.113C488.942 370.685 601.915 388.959 714.975 368.455C774.677 357.619 827.62 328.892 885.84 313.45C939.508 299.196 994.951 295.724 1050.05 293.879C1105.82 292.015 1161.9 291.868 1217.21 283.097C1272.07 274.398 1323.15 252.122 1378.94 248.705C1515.23 240.39 1639.6 298.538 1770.44 326.717" stroke="#9399FB" stroke-width="0.41" stroke-miterlimit="10"></path> <path d="M117.421 373.079C200.432 389.946 283.959 398.498 368.331 402.994C486.546 409.317 603.57 411.51 720.095 385.469C779.124 372.275 834.378 345.924 893.253 333.022C945.231 321.637 998.485 320.705 1051.36 321.82C1102.99 322.917 1154.7 325.841 1206.28 321.82C1263.98 317.343 1319.48 300.092 1377.49 297.278C1516.23 290.571 1650.98 325.822 1786.38 351.845" stroke="#9399FB" stroke-width="0.41" stroke-miterlimit="10"></path> <path d="M76.8555 390.166C171.503 408.696 264.943 431.008 361.004 440.237C485.183 452.151 605.621 436.454 726.18 403.78C784.537 387.973 841.464 363.193 901.2 354.001C951.161 346.308 1001.67 348.757 1051.76 353.745C1102.44 358.807 1153.02 366.08 1204.04 366.263C1260.74 366.464 1316.89 355.317 1373.52 352.521C1516.01 345.504 1660 357.327 1801.07 378.525" stroke="#9399FB" stroke-width="0.41" stroke-miterlimit="10"></path> <path d="M41.9451 410.212C145.971 428.888 246.428 463.536 351.505 477.059C414.448 485.173 475.15 485.392 537.817 474.208C602.95 462.586 666.806 443.928 730.163 424.393C788.831 406.32 847.274 383.295 908.51 377.666C955.748 373.317 1002.93 378.562 1049.52 386.913C1098.27 395.648 1146.59 407.051 1195.88 411.985C1253.74 417.778 1311.65 411.638 1369.51 408.677C1516.46 401.148 1667.69 390.202 1814.4 406.649" stroke="#9399FB" stroke-width="0.41" stroke-miterlimit="10"></path> <path d="M22.4639 436.399C132.127 451.183 236.498 495.863 346.523 510.958C409.052 519.528 469.874 519.675 531.887 506.554C601.277 491.88 668.582 467.886 736.197 446.213C794.244 427.61 852.963 408.422 913.923 405.279C961.644 402.83 1008.79 409.957 1055.29 420.812C1102.53 431.849 1149.2 445.591 1197.05 453.486C1256.58 463.317 1316.79 462.221 1376.82 459.754C1456.22 456.501 1535.42 449.337 1614.64 443.069C1684.43 437.551 1756.15 429.382 1826.09 436.326" stroke="#9399FB" stroke-width="0.41" stroke-miterlimit="10"></path> <path d="M15.0676 467.648C126.334 482.194 233.67 520.387 345.385 533.873C408.5 541.493 468.788 540.287 531.317 527.934C599.898 514.375 666.978 493.524 734.369 474.628C793.657 458.017 852.204 442.155 913.854 441.296C963.936 440.602 1013.6 447.857 1062.69 457.889C1112.27 468.031 1161.44 480.513 1211.42 488.389C1273.62 498.202 1335.11 497.343 1397.8 494.255C1475.24 490.417 1552.49 483.51 1629.76 477.15C1698.1 471.522 1767.4 464.066 1836.02 467.611" stroke="#9399FB" stroke-width="0.41" stroke-miterlimit="10"></path> <path d="M9.12012 500.486C119.404 510.519 227.585 538.533 338.075 548.236C469.995 559.822 594.657 532.85 723.526 506.224C786.072 493.304 847.981 481.445 911.906 481.116C965.661 480.841 1019.17 486.452 1072.39 494.109C1127.51 502.039 1182.38 511.871 1237.69 518.194C1298.49 525.12 1358.64 524.809 1419.67 522.342C1560.71 516.64 1702.87 495.771 1844.09 500.468" stroke="#9399FB" stroke-width="0.41" stroke-miterlimit="10"></path> <path d="M4.68945 534.97C115.559 539.282 225.688 556.825 336.61 561.595C464.996 567.114 590.347 553.353 717.733 538.167C839.809 523.621 959.454 520.734 1081.96 530.584C1204.49 540.433 1325.53 550.905 1448.53 547.835C1582.14 544.509 1716.32 531.077 1849.98 534.951" stroke="#9399FB" stroke-width="0.41" stroke-miterlimit="10"></path> <path d="M1.94824 571.098C111.577 571.061 221.137 578.48 330.765 579.559C458.41 580.819 585.485 577.749 713.009 572.358C840.395 566.968 967.471 564.83 1094.93 568.649C1220.71 572.432 1346.27 576.361 1472.12 575.319C1599.25 574.259 1726.58 568.155 1853.69 571.098" stroke="#9399FB" stroke-width="0.41" stroke-miterlimit="10"></path> <path d="M1816.24 608.924C1815.5 514.575 1784.88 419.202 1741.41 337.298C1708.94 276.134 1658.64 228.274 1605.88 187.139C1563.92 154.41 1520.41 124.404 1474.43 98.4003C1449.26 84.1648 1420.21 73.7851 1396.49 57.0825" stroke="#9399FB" stroke-width="0.41" stroke-miterlimit="10"></path> <path d="M1773.3 608.925C1772.25 554.614 1755.84 506.882 1739.18 456.154C1724.58 411.674 1710.77 365.715 1692.6 322.734C1665.84 259.451 1613.21 217.987 1560.44 180.306C1517.61 149.733 1476.86 116.383 1432.97 87.4185C1408.38 71.1911 1374.14 57.1749 1353.59 35.1729" stroke="#9399FB" stroke-width="0.41" stroke-miterlimit="10"></path> <path d="M1726.41 608.925C1723.91 554.633 1701.2 511.25 1682.76 461.837C1664.81 413.776 1656.14 363.632 1641.86 314.475C1630.98 277.031 1614.35 250.186 1585.8 225.882C1563.02 206.493 1537.49 191.417 1512.24 176.048C1467.7 148.948 1428.83 110.28 1386.95 78.5923C1363.47 60.8299 1329.63 43.707 1311.77 19.0918" stroke="#9399FB" stroke-width="0.41" stroke-miterlimit="10"></path> <path d="M1675.89 608.925C1671.2 553.208 1640.67 514.192 1619.81 464.779C1597.64 412.278 1596 354.44 1585.23 298.85C1577.49 258.939 1564.45 233.173 1532.1 210.897C1510.11 195.766 1485.79 185.24 1462.1 173.599C1418.04 151.981 1381.38 108.178 1343.7 75.7781C1321.63 56.8096 1285.41 35.1913 1270.96 8.31006" stroke="#9399FB" stroke-width="0.41" stroke-miterlimit="10"></path> <path d="M1622.04 608.943C1614.8 551.324 1576.13 518.303 1553.06 468.25C1528.58 415.127 1533.11 351.625 1527.6 294.171C1525.42 271.511 1524.22 240.756 1509.46 222.756C1501.91 213.545 1490.63 206.492 1480.63 200.754C1458.64 188.163 1434.26 181.219 1410.85 172.283C1386.54 162.999 1371.16 144.542 1352.39 126.195C1334.04 108.287 1315.54 90.5607 1297.06 72.7982C1276.53 53.0439 1242.95 29.8723 1231.07 2.44287" stroke="#9399FB" stroke-width="0.41" stroke-miterlimit="10"></path> <path d="M1565.13 608.943C1556.01 553.116 1514.79 525.851 1488.36 480.038C1455.79 423.589 1469.43 345.357 1467.6 282.239C1466.98 261.041 1468.01 231.784 1455.72 213.985C1449.27 204.647 1437.86 198.397 1428.21 193.609C1406.35 182.773 1382.31 178.588 1359.32 171.388C1335.04 163.786 1320.8 144.452 1303.18 126.031C1286.72 108.799 1270.2 91.6031 1253.81 74.2792C1234.52 53.8853 1202.14 28.9046 1192.09 1" stroke="#9399FB" stroke-width="0.41" stroke-miterlimit="10"></path> <path d="M1505.46 608.943C1494.34 550.429 1445.14 528.519 1417.62 480.531C1385.28 424.137 1405.31 341.428 1407.78 279.461C1409.36 239.532 1410.07 206.858 1372.85 189.351C1352.33 179.702 1329.66 176.98 1308.3 170.2C1284.56 162.671 1270.76 142.643 1254.02 124.222C1238.28 106.898 1222.59 89.5197 1207.12 71.9035C1189.95 52.3502 1163.14 29.1421 1153.92 3.54004" stroke="#9399FB" stroke-width="0.41" stroke-miterlimit="10"></path> <path d="M1443.34 608.943C1431.74 548.584 1376.32 531.223 1348.9 481.408C1316.98 423.424 1343.47 338.742 1349.16 276.61C1352.71 237.796 1352.11 208.813 1317.35 190.045C1298.8 180.031 1277.94 176.121 1258.7 167.952C1238.03 159.162 1225.19 141.528 1210.17 124.679C1195.19 107.885 1180.37 90.9267 1165.78 73.7307C1149.75 54.817 1126.23 33.3267 1116.51 9.57031" stroke="#9399FB" stroke-width="0.41" stroke-miterlimit="10"></path> <path d="M1379.04 608.942C1373.71 577.127 1360.89 560.845 1337.82 540.232C1316.92 521.556 1293.7 504.232 1281.53 477.259C1257.22 423.351 1280.22 353.58 1289.98 298.52C1297.01 258.81 1299.39 226.703 1267.82 199.73C1250.62 185.02 1229.35 176.997 1211.07 164.023C1178.31 140.778 1151.16 103.608 1124.72 72.8531C1109.44 55.0907 1094.44 37.0724 1079.77 18.7617" stroke="#9399FB" stroke-width="0.41" stroke-miterlimit="10"></path> <path d="M1312.84 608.943C1306.61 576.817 1293.79 558.032 1272 535.097C1252.6 514.667 1230.17 494.602 1220.04 466.698C1201.3 415.018 1225.07 351.26 1233.79 300.019C1239.9 264.22 1235.81 239.422 1213.83 211.646C1197.8 191.398 1176.69 176.779 1158.92 158.468C1132.39 131.13 1107.67 101.069 1082.36 72.3787C1070.84 59.3127 1057.77 39.5584 1043.62 30.5127" stroke="#9399FB" stroke-width="0.41" stroke-miterlimit="10"></path> <path d="M1245.03 608.943C1234.72 551.288 1193.37 519.948 1170.47 469.457C1148.32 420.573 1166.82 361.493 1174.75 310.929C1180.52 274.161 1176.04 247.682 1156.4 216.927C1142.37 194.943 1123.91 177.034 1108.3 156.421C1086.87 128.096 1064.36 101.379 1040.64 75.1012C1034.4 68.1753 1016.79 42.8657 1008.04 44.4373" stroke="#9399FB" stroke-width="0.41" stroke-miterlimit="10"></path> <path d="M1175.94 608.925C1171.19 574.04 1160.94 546.299 1145.06 515.453C1134.44 494.84 1122.94 474.427 1115.91 452.023C1100.75 403.725 1113.7 352.411 1117.47 303.345C1122.01 244.502 1087.32 204.007 1058.82 158.066C1051.89 146.9 987.262 49.8649 972.953 60.0984" stroke="#9399FB" stroke-width="0.41" stroke-miterlimit="10"></path> <path d="M1105.82 608.924C1100.68 546.555 1075.29 493.98 1063.62 433.548C1055.83 393.18 1058.29 352.904 1058.46 312.061C1058.69 254.918 1034.62 212.157 1009.98 163.639C1005.83 155.47 948.007 63.716 938.283 77.0744" stroke="#9399FB" stroke-width="0.41" stroke-miterlimit="10"></path> <path d="M1034.98 608.906C1032.03 510.025 1011.59 411.253 1000.14 313.03C994.279 262.703 979.763 219.466 961.299 173.288C958.351 165.887 913.182 81.0216 903.941 94.8368" stroke="#9399FB" stroke-width="0.41" stroke-miterlimit="10"></path> <path d="M963.712 608.906C964.574 547.67 964.988 486.049 961.057 424.904C958.626 387.168 949.644 350.309 940.817 313.779C930.611 271.53 924.284 229.17 912.354 187.268C910.32 180.122 881.116 102.311 869.91 112.965" stroke="#9399FB" stroke-width="0.41" stroke-miterlimit="10"></path> <path d="M892.287 608.924C895.028 548.419 902.976 488.187 904.51 427.663C905.424 391.627 894.735 361.365 882.943 328.325C869.237 289.876 869.53 246.201 862.6 205.761C860.755 194.979 850.101 131.038 836.033 131.056" stroke="#9399FB" stroke-width="0.41" stroke-miterlimit="10"></path> <path d="M821 608.943C824.465 549.936 839.757 492.848 843.55 434.096C845.705 400.508 836.464 377.794 823.879 348.336C808.984 313.505 814.397 266.852 811.656 229.006C809.742 202.435 808.604 174.549 802.364 148.582" stroke="#9399FB" stroke-width="0.41" stroke-miterlimit="10"></path> <path d="M750.161 608.943C754.247 554.687 770.435 502.752 774.711 448.844C777.176 417.723 767.211 395.063 757.919 366.903C746.541 332.401 755.023 290.572 755.626 254.59C756.109 226.137 754.919 190.941 768.729 165.138" stroke="#9399FB" stroke-width="0.41" stroke-miterlimit="10"></path> <path d="M680.046 608.943C683.839 560.662 699.821 515.16 704.027 467.318C706.561 438.5 698.7 412.478 693.269 384.683C685.701 346.015 695.528 310.874 701.027 272.918C706.217 237.119 712.044 207.607 735.162 180.232" stroke="#9399FB" stroke-width="0.41" stroke-miterlimit="10"></path> <path d="M610.949 608.961C613.776 568.21 627.016 532.32 632.119 492.354C636.533 457.761 629.413 423.095 626.861 388.703C623.879 348.665 636.516 321.254 647.704 285.034C655.014 261.388 658.772 238.709 674.064 218.791C682.046 208.393 692.011 201.869 701.51 193.481" stroke="#9399FB" stroke-width="0.41" stroke-miterlimit="10"></path> <path d="M543.144 608.961C545.023 574.533 555.764 547.286 561.125 514.064C567.28 475.889 562.539 435.449 562.367 396.945C562.263 372.421 562.367 345.979 573.641 323.794C579.624 312.007 589.847 303.528 595.984 291.942C607.949 269.41 611.897 246.878 630.844 228.586C641.981 217.841 654.773 211.883 667.703 204.373" stroke="#9399FB" stroke-width="0.41" stroke-miterlimit="10"></path> <path d="M476.96 608.962C477.719 591.035 478.149 576.58 483.028 559.877C485.994 549.717 490.442 540.251 492.528 529.762C500.665 488.937 497.407 444.696 499.268 403.14C500.406 377.703 499.372 344.682 514.405 322.954C522.835 310.783 536.679 305.575 545.678 294.282C554.109 283.719 557.298 269.429 565.125 258.135C572.211 247.92 580.882 239.35 590.778 232.259C604.035 222.757 618.689 217.603 633.757 212.505" stroke="#9399FB" stroke-width="0.41" stroke-miterlimit="10"></path> <path d="M412.655 608.943C413.414 589.627 413.776 575.995 419.585 558.397C422.516 549.552 426.257 541.676 428.292 532.356C437.946 487.95 435.636 439.268 439.825 393.985C442.187 368.474 442.101 334.484 461.582 315.845C472.029 305.83 486.856 303.4 497.2 293.459C506.475 284.541 510.181 270.013 518.336 259.798C527.542 248.249 539.179 239.093 551.885 232.259C566.608 224.346 583.106 219.102 599.553 217.384" stroke="#9399FB" stroke-width="0.41" stroke-miterlimit="10"></path> <path d="M350.522 608.943C351.333 590.633 351.54 574.296 357.574 557.155C361.78 545.222 366.297 535.646 368.555 522.818C375.831 481.609 378.555 439.268 385.571 397.877C390.605 368.145 392.157 334.539 414.172 312.61C424.465 302.359 438.136 297.333 449.066 288.068C460.41 278.474 466.926 264.221 477.581 253.676C487.442 243.918 499.079 236.243 511.371 230.45C526.404 223.341 548.264 214.46 564.987 218.535" stroke="#9399FB" stroke-width="0.41" stroke-miterlimit="10"></path> <path d="M290.855 608.943C292.372 575.026 301.802 550.74 308.853 518.834C318.956 473.185 328.179 429.51 342.264 384.775C350.264 359.374 355.918 334.375 371.762 312.976C381.037 300.458 392.536 291.047 403.673 280.539C426.757 258.756 443.238 236.608 473.046 224.127C487.511 218.078 514.922 207.132 530.042 215.575" stroke="#9399FB" stroke-width="0.41" stroke-miterlimit="10"></path> <path d="M233.963 608.943C237.187 532.685 262.685 458.711 297.785 392.815C318.766 353.416 332.386 305.702 360.539 270.927C380.985 245.672 405.604 225.698 435.291 214.386C449.359 209.032 480.701 197.008 494.683 208.027" stroke="#9399FB" stroke-width="0.41" stroke-miterlimit="10"></path> <path d="M180.105 608.943C181.623 568.959 188.863 533.526 198.656 495.186C210.758 447.875 237.876 418.326 267.253 382.106C284.89 360.378 297.768 337.846 304.854 310.07C309.198 293.038 310.457 274.929 319.146 259.469C335.092 231.107 369.434 211.755 398.001 201.156C411.517 196.149 445.928 182.809 458.754 195.436" stroke="#9399FB" stroke-width="0.41" stroke-miterlimit="10"></path> <path d="M129.593 608.943C131.058 563.842 137.937 521.739 149.057 478.246C159.987 435.521 195.018 412.222 226.55 386.328C254.651 363.247 273.219 343.128 275.425 304.825C276.546 285.528 272.27 264.86 279.08 246.421C290.338 215.976 333.989 195.217 361.125 184.728C374.676 179.483 409.138 164.973 422.275 177.363" stroke="#9399FB" stroke-width="0.41" stroke-miterlimit="10"></path> <path d="M82.7175 608.943C83.9933 561.686 90.1307 516.293 100.906 470.517C113.008 419.093 163.194 401.167 202.466 376.624C234.394 356.687 249.359 338.066 245.514 297.37C243.514 276.153 234.791 253.219 239.894 231.967C247.6 199.804 297.941 176.578 324.628 164.992C338.472 158.98 370.969 142.716 385.14 153.351" stroke="#9399FB" stroke-width="0.41" stroke-miterlimit="10"></path> <path d="M39.7556 608.943C40.8073 560.023 45.8586 512.437 56.5128 464.796C63.0468 435.576 74.5975 421.121 99.4058 406.173C118.852 394.441 139.971 386.126 160.349 376.514C195.294 360.013 220.654 343.456 215.655 299.489C212.586 272.589 196.501 243.734 201.121 216.36C206.655 183.521 262.392 155.671 288.373 142.203C302.975 134.638 330.145 118.1 347.282 122.924" stroke="#9399FB" stroke-width="0.41" stroke-miterlimit="10"></path> <path d="M1855 608.057C1361.35 608.148 867.703 608.057 374.055 608.057C249.703 608.057 125.352 608.093 0.999951 608.057C4.2583 777.165 80.8209 920.416 208.207 1019.81C270.15 1068.13 341.403 1108.6 415.431 1131.81C518.767 1202.28 633.05 1233.2 754.144 1204.12C842.257 1182.98 922.957 1137.73 1003.04 1094.95C1078.81 1054.47 1157.58 1012.37 1242.84 1001.15C1362.21 985.435 1463.57 1045.94 1547.4 1131.34C1567.58 1122.97 1586.82 1111.64 1605.23 1099.67C1621.24 1089.25 1636.72 1077.9 1651.59 1065.73C1666.53 1053.51 1690.13 1038.25 1693.96 1017.34C1698.74 991.265 1680.77 960.089 1675.6 935.035C1667.24 894.503 1681.93 870.747 1715.91 853.88C1743.08 840.394 1772.66 832.408 1798.92 816.802C1820.97 803.699 1830.23 790.999 1837.14 765.89C1851.14 715.07 1854.15 660.631 1855 608.057Z" stroke="#9399FB" stroke-width="0.41" stroke-miterlimit="10"></path> <path d="M1548.37 1130.95C1463.88 1046.8 1360.78 986.057 1241.62 1001.17C1155.99 1012.02 1078.13 1054.49 1002.64 1096.01C923.871 1139.32 843.654 1183.64 755.799 1201.82C634.137 1227 518.802 1201.53 414.138 1131.43" stroke="#9399FB" stroke-width="0.41" stroke-miterlimit="10"></path> <path d="M1551.11 1129.76C1466.29 1047.38 1362.56 987.227 1244.29 1000.6C1156.87 1010.49 1078.46 1053.62 1001.88 1096.36C923.112 1140.33 842.326 1183.31 753.54 1198.37C631.93 1219.02 516.06 1199.19 410.431 1130.18" stroke="#9399FB" stroke-width="0.41" stroke-miterlimit="10"></path> <path d="M1555.54 1127.75C1470.05 1047.07 1365.95 988.122 1248.4 999.69C1158.64 1008.52 1079.13 1052.17 1000.81 1096.03C921.406 1140.49 839.93 1181.24 749.92 1193.4C628.223 1209.82 511.388 1195.81 404.484 1128.18" stroke="#9399FB" stroke-width="0.41" stroke-miterlimit="10"></path> <path d="M1561.51 1124.87C1475.67 1046.45 1372.25 989.345 1256.07 998.135C1162.7 1005.19 1080.74 1049.74 999.433 1094.97C917.871 1140.34 835.016 1177.9 742.472 1187.2C621.396 1199.35 504.096 1190.78 396.467 1125.27" stroke="#9399FB" stroke-width="0.41" stroke-miterlimit="10"></path> <path d="M1568.89 1121.08C1481.82 1044.42 1378.18 989.218 1262.43 996.235C1165.87 1002.08 1081.96 1047.04 997.761 1093.16C914.303 1138.86 830.706 1172.62 736.3 1179.32C614.897 1187.95 495.89 1185.06 386.52 1121.47" stroke="#9399FB" stroke-width="0.41" stroke-miterlimit="10"></path> <path d="M1577.57 1116.39C1490.38 1042.71 1388.23 989.784 1274.46 993.494C1172.54 996.82 1084.82 1042.91 995.813 1090.58C909.855 1136.62 825.569 1165.98 728.922 1170.22C607.053 1175.58 486.046 1178.21 374.814 1116.73" stroke="#9399FB" stroke-width="0.41" stroke-miterlimit="10"></path> <path d="M1587.44 1110.72C1496.56 1037.46 1391.21 985.857 1274.94 990.498C1171.88 994.61 1084.22 1040.06 993.607 1087.24C950.576 1109.65 906.304 1130 859.911 1143.25C814.656 1156.19 769.694 1159.22 723.095 1159.97C599.674 1161.93 475.685 1170.64 361.504 1111.07" stroke="#9399FB" stroke-width="0.41" stroke-miterlimit="10"></path> <path d="M1598.35 1104.07C1506.11 1033.53 1401.12 983.992 1285.58 986.276C1177.68 988.396 1086.44 1034.94 991.193 1083.04C948.938 1104.38 905.407 1123.44 859.893 1135.5C810.139 1148.7 762.022 1149.21 711.164 1148.79C587.692 1147.8 462.323 1160.99 346.816 1104.4" stroke="#9399FB" stroke-width="0.41" stroke-miterlimit="10"></path> <path d="M1610.19 1096.41C1517.13 1029.33 1413.19 981.524 1299.06 981.214C1246.76 981.068 1194.76 990.241 1144.82 1006.51C1089.99 1024.34 1040.4 1052.72 988.572 1078.03C944.455 1099.58 898.873 1118.31 851.256 1129.09C800.726 1140.55 752.058 1138.35 700.872 1136.71C576.383 1132.71 448.618 1150.65 330.886 1096.72" stroke="#9399FB" stroke-width="0.41" stroke-miterlimit="10"></path> <path d="M1622.83 1087.7C1525.73 1022.17 1418.81 975.367 1302.25 975.129C1249.02 975.02 1196.05 984.102 1145.13 1000.4C1089.3 1018.29 1038.74 1047.11 985.727 1072.15C939.628 1093.91 891.839 1112.35 842.032 1121.76C790.623 1131.48 741.455 1126.77 689.77 1123.81C563.952 1116.63 433.946 1139.19 313.836 1087.97" stroke="#9399FB" stroke-width="0.41" stroke-miterlimit="10"></path> <path d="M1636.16 1077.9C1535.41 1014.75 1426.24 968.606 1307.72 967.875C1254.1 967.546 1200.69 976.135 1149.27 992.033C1090.94 1010.07 1038.24 1040.06 982.728 1065.4C934.887 1087.24 885.185 1105.24 833.499 1113.34C781.555 1121.47 732.335 1114.96 680.478 1110.49C552.351 1099.47 419.258 1127.02 295.872 1078.16" stroke="#9399FB" stroke-width="0.41" stroke-miterlimit="10"></path> <path d="M1650.03 1067.01C1547.68 1007.89 1438.52 962.282 1320.58 959.505C1262.64 958.134 1204.81 966.723 1149.18 983.846C1089.91 1002.08 1036.26 1032.67 979.59 1057.75C931.008 1079.25 880.513 1096.56 828.12 1103.69C771.539 1111.38 718.819 1101.59 662.755 1095.94C534.714 1083.04 401.26 1112.75 277.167 1067.25" stroke="#9399FB" stroke-width="0.41" stroke-miterlimit="10"></path> <path d="M1664.34 1054.97C1581.18 1011.09 1494.7 972.443 1402.38 957.056C1311.39 941.907 1218.4 950.368 1130.8 980.337C1042.38 1010.58 963.074 1063.36 871.565 1084.77C831.189 1094.22 789.796 1098.11 748.506 1095.65C701.683 1092.87 656.152 1080.44 609.242 1077.77C492.683 1071.16 371.055 1093.6 257.892 1055.19" stroke="#9399FB" stroke-width="0.41" stroke-miterlimit="10"></path> <path d="M1678.96 1041.76C1592.44 1000.42 1503.81 962.099 1409.52 946.292C1315.7 930.577 1220.07 938.763 1129.77 969.921C1040.1 1000.88 959.609 1054.05 866.376 1074.63C823.586 1084.08 779.831 1087.22 736.266 1083.51C688.839 1079.47 642.998 1065.57 595.468 1061.99C477.202 1053.07 353.608 1078.29 238.204 1041.98" stroke="#9399FB" stroke-width="0.41" stroke-miterlimit="10"></path> <path d="M1691.53 1026.61C1512.3 946.786 1324.44 892.494 1132.47 956.91C1083.2 973.448 1037.86 999.251 990.021 1019.52C946.938 1037.77 902.373 1052.32 856.618 1060.74C813.018 1068.78 768.677 1071.11 724.526 1068.04C675.409 1064.64 627.293 1053.6 578.073 1050.77C458.876 1043.89 334.731 1061.35 218.258 1027.52" stroke="#9399FB" stroke-width="0.41" stroke-miterlimit="10"></path> <path d="M1694.13 1007C1516.72 932.715 1319.03 885.842 1131.06 945.306C1081.27 961.059 1035.95 987.574 987.383 1006.6C942.921 1024.01 896.821 1036.46 849.929 1043.71C753.678 1058.61 657.755 1047.55 561.16 1044.81C440.515 1041.41 315.853 1044.13 198.191 1011.84" stroke="#9399FB" stroke-width="0.41" stroke-miterlimit="10"></path> <path d="M1689.6 983.846C1608.14 952.488 1525.65 930.65 1439.43 920.6C1339.47 908.959 1235.33 904.537 1137.11 931.235C1083.89 945.69 1036.36 973.649 984.763 992.654C938.56 1009.69 890.495 1020.47 841.999 1026.85C744.645 1039.67 643.981 1040 545.955 1039.73C422.913 1039.38 297.751 1026.7 178.244 994.902" stroke="#9399FB" stroke-width="0.41" stroke-miterlimit="10"></path> <path d="M1681.89 958.463C1604.92 931.472 1526.98 919.211 1446.33 913.144C1343.99 905.45 1238.74 893.974 1137.58 917.986C1082.94 930.961 1034.9 959.322 982.124 977.633C932.37 994.902 880.581 1004.26 828.603 1009.9C778.142 1015.39 727.439 1017.47 676.857 1021.13C626.223 1024.78 575.917 1033.57 525.146 1034.37C401.173 1036.35 278.287 1007.97 158.556 976.719" stroke="#9399FB" stroke-width="0.41" stroke-miterlimit="10"></path> <path d="M1675.03 932.093C1603.54 909.744 1531.91 906.948 1457.95 904.298C1351.51 900.461 1243.65 881.109 1137.9 903.037C1082.03 914.623 1033.45 943.35 979.642 961.131C928.233 978.108 874.617 985.874 821.121 990.808C769.005 995.614 716.664 997.789 664.651 1003.87C611.156 1010.12 559.16 1025.93 505.199 1027.58C379.744 1031.39 259.685 987.829 139.265 957.165" stroke="#9399FB" stroke-width="0.41" stroke-miterlimit="10"></path> <path d="M1672.98 906.072C1605.16 886.976 1538.34 892.44 1469.03 892.056C1358.61 891.471 1247.81 865.193 1137.78 885.971C1081.01 896.698 1032.17 926.082 977.435 943.004C924.543 959.36 869.462 965.463 814.691 969.557C759.178 973.705 703.355 975.66 648.273 984.651C595.726 993.24 546.213 1014.57 492.821 1017.8C362.608 1025.69 244.894 964.696 120.508 936.261" stroke="#9399FB" stroke-width="0.41" stroke-miterlimit="10"></path> <path d="M1679.76 881.694C1612.3 863.767 1546.97 874.878 1478.57 875.079C1365.85 875.408 1253 846.224 1140.56 865.576C1081.96 875.664 1032.03 906.766 975.418 923.03C922.181 938.326 866.789 942.419 811.932 945.325C754.161 948.395 695.924 949.656 638.912 960.931C584.02 971.804 534.3 999.873 478.184 1004.46C344.523 1015.41 229.86 939.203 102.612 913.966" stroke="#9399FB" stroke-width="0.41" stroke-miterlimit="10"></path> <path d="M1702.18 861.154C1628.79 844.927 1555.06 848.91 1480.6 847.887C1367.06 846.315 1254.08 828.041 1141.02 848.545C1081.32 859.381 1028.38 888.108 970.16 903.55C916.492 917.804 861.048 921.276 805.95 923.121C750.178 924.985 694.097 925.132 638.791 933.903C583.934 942.602 532.852 964.878 477.064 968.295C340.765 976.61 216.396 918.462 85.5621 890.283" stroke="#9399FB" stroke-width="0.41" stroke-miterlimit="10"></path> <path d="M1738.58 843.921C1655.57 827.054 1572.04 818.502 1487.67 814.006C1369.45 807.683 1252.43 805.49 1135.9 831.531C1076.88 844.725 1021.62 871.076 962.747 883.978C910.769 895.363 857.514 896.295 804.64 895.18C753.006 894.083 701.303 891.159 649.721 895.18C592.019 899.657 536.524 916.908 478.512 919.722C339.765 926.429 205.018 891.178 69.6152 865.155" stroke="#9399FB" stroke-width="0.41" stroke-miterlimit="10"></path> <path d="M1779.14 826.835C1684.5 808.305 1591.06 785.992 1495 776.764C1370.82 764.849 1250.38 780.546 1129.82 813.221C1071.46 829.028 1014.54 853.807 954.799 862.999C904.838 870.693 854.325 868.244 804.243 863.255C753.558 858.193 702.976 850.92 651.963 850.737C595.26 850.536 539.11 861.684 482.477 864.479C339.989 871.497 196.001 859.673 54.9267 838.475" stroke="#9399FB" stroke-width="0.41" stroke-miterlimit="10"></path> <path d="M1814.05 806.788C1710.03 788.112 1609.57 753.464 1504.49 739.941C1441.55 731.827 1380.85 731.608 1318.18 742.792C1253.05 754.414 1189.19 773.072 1125.84 792.607C1067.17 810.68 1008.73 833.705 947.49 839.334C900.252 843.683 853.067 838.438 806.484 830.087C757.73 821.352 709.406 809.949 660.117 805.015C602.26 799.222 544.351 805.362 486.494 808.323C339.541 815.852 188.312 826.798 41.6003 810.351" stroke="#9399FB" stroke-width="0.41" stroke-miterlimit="10"></path> <path d="M1833.54 780.601C1723.87 765.817 1619.5 721.137 1509.48 706.042C1446.95 697.472 1386.13 697.325 1324.11 710.446C1254.72 725.12 1187.42 749.114 1119.8 770.787C1061.76 789.39 1003.04 808.578 942.076 811.721C894.356 814.17 847.205 807.043 800.709 796.188C753.472 785.151 706.803 771.409 658.945 763.514C599.416 753.683 539.214 754.779 479.184 757.246C399.777 760.499 320.577 767.663 241.36 773.931C171.572 779.449 99.8543 787.618 29.9119 780.674" stroke="#9399FB" stroke-width="0.41" stroke-miterlimit="10"></path> <path d="M1840.93 749.353C1729.67 734.807 1622.33 696.614 1510.61 683.127C1447.5 675.507 1387.21 676.713 1324.68 689.066C1256.1 702.626 1189.02 723.477 1121.63 742.372C1062.34 758.983 1003.8 774.845 942.145 775.704C892.063 776.398 842.395 769.144 793.313 759.111C743.731 748.969 694.563 736.488 644.584 728.612C582.382 718.798 520.888 719.657 458.203 722.746C380.761 726.583 303.509 733.491 226.24 739.85C157.901 745.479 88.5964 752.935 19.9815 749.389" stroke="#9399FB" stroke-width="0.41" stroke-miterlimit="10"></path> <path d="M1846.88 716.514C1736.6 706.481 1628.41 678.467 1517.92 668.764C1386 657.178 1261.34 684.15 1132.47 710.776C1069.93 723.696 1008.02 735.555 944.093 735.884C890.339 736.159 836.826 730.548 783.606 722.891C728.49 714.961 673.616 705.129 618.31 698.806C557.505 691.88 497.355 692.191 436.325 694.658C295.285 700.36 153.125 721.229 11.9127 716.532" stroke="#9399FB" stroke-width="0.41" stroke-miterlimit="10"></path> <path d="M1851.31 682.03C1740.44 677.718 1630.31 660.175 1519.39 655.405C1391 649.886 1265.65 663.647 1138.27 678.833C1016.19 693.379 896.546 696.266 774.039 686.416C651.515 676.567 530.473 666.095 407.466 669.165C273.857 672.491 139.679 685.923 6.01736 682.049" stroke="#9399FB" stroke-width="0.41" stroke-miterlimit="10"></path> <path d="M1854.05 645.902C1744.42 645.939 1634.86 638.52 1525.23 637.441C1397.59 636.181 1270.51 639.251 1142.99 644.642C1015.6 650.032 888.529 652.17 761.074 648.351C635.292 644.568 509.733 640.639 383.882 641.681C256.754 642.741 129.42 648.845 2.31024 645.902" stroke="#9399FB" stroke-width="0.41" stroke-miterlimit="10"></path> <path d="M39.7557 608.075C40.4971 702.425 71.1152 797.797 114.594 879.702C147.057 940.865 197.363 988.725 250.117 1029.86C292.079 1062.59 335.593 1092.6 381.572 1118.6C406.742 1132.83 435.792 1143.21 459.514 1159.92" stroke="#9399FB" stroke-width="0.41" stroke-miterlimit="10"></path> <path d="M82.7 608.074C83.7517 662.385 100.164 710.117 116.818 760.846C131.42 805.325 145.229 851.285 163.4 894.265C190.157 957.549 242.79 999.012 295.561 1036.69C338.385 1067.27 379.141 1100.62 423.033 1129.58C447.618 1145.81 481.856 1159.82 502.406 1181.83" stroke="#9399FB" stroke-width="0.41" stroke-miterlimit="10"></path> <path d="M129.593 608.075C132.093 662.368 154.798 705.75 173.244 755.163C191.191 803.224 199.863 853.369 214.138 902.526C225.016 939.97 241.652 966.814 270.202 991.119C292.976 1010.51 318.508 1025.58 343.765 1040.95C388.295 1068.05 427.171 1106.72 469.047 1138.41C492.528 1156.17 526.37 1173.29 544.23 1197.91" stroke="#9399FB" stroke-width="0.41" stroke-miterlimit="10"></path> <path d="M180.106 608.075C184.795 663.792 215.327 702.808 236.187 752.221C258.358 804.722 259.995 862.56 270.77 918.15C278.511 958.061 291.544 983.827 323.904 1006.1C345.885 1021.23 370.21 1031.76 393.898 1043.4C437.963 1065.02 474.615 1108.82 512.302 1141.22C534.369 1160.19 570.59 1181.81 585.037 1208.69" stroke="#9399FB" stroke-width="0.41" stroke-miterlimit="10"></path> <path d="M233.964 608.057C241.204 665.675 279.874 698.696 302.941 748.749C327.421 801.872 322.887 865.374 328.404 922.828C330.576 945.488 331.783 976.243 346.54 994.243C354.091 1003.45 365.366 1010.51 375.366 1016.25C397.364 1028.84 421.741 1035.78 445.153 1044.72C469.461 1054 484.839 1072.46 503.613 1090.8C521.957 1108.71 540.455 1126.44 558.936 1144.2C579.469 1163.96 613.052 1187.13 624.931 1214.56" stroke="#9399FB" stroke-width="0.41" stroke-miterlimit="10"></path> <path d="M290.872 608.057C299.992 663.884 341.213 691.149 367.642 736.962C400.208 793.411 386.571 871.643 388.399 934.761C389.019 955.959 387.985 985.216 400.277 1003.02C406.725 1012.35 418.137 1018.6 427.792 1023.39C449.652 1034.23 473.685 1038.41 496.683 1045.61C520.956 1053.21 535.197 1072.55 552.816 1090.97C569.28 1108.2 585.796 1125.4 602.191 1142.72C621.482 1163.11 653.859 1188.1 663.91 1216" stroke="#9399FB" stroke-width="0.41" stroke-miterlimit="10"></path> <path d="M350.54 608.056C361.659 666.57 410.862 688.481 438.377 736.469C470.719 792.862 450.686 875.571 448.221 937.539C446.635 977.468 445.928 1010.14 483.149 1027.65C503.665 1037.3 526.335 1040.02 547.696 1046.8C571.435 1054.33 585.244 1074.36 601.984 1092.78C617.724 1110.1 633.412 1127.48 648.877 1145.1C666.048 1164.65 692.856 1187.86 702.079 1213.46" stroke="#9399FB" stroke-width="0.41" stroke-miterlimit="10"></path> <path d="M412.655 608.057C424.258 668.416 479.684 685.777 507.096 735.592C539.024 793.576 512.526 878.258 506.837 940.39C503.285 979.204 503.889 1008.19 538.645 1026.95C557.195 1036.97 578.055 1040.88 597.295 1049.05C617.966 1057.84 630.809 1075.47 645.825 1092.32C660.807 1109.11 675.633 1126.07 690.218 1143.27C706.251 1162.18 729.766 1183.67 739.49 1207.43" stroke="#9399FB" stroke-width="0.41" stroke-miterlimit="10"></path> <path d="M476.96 608.057C482.287 639.872 495.114 656.155 518.181 676.768C539.076 695.444 562.298 712.768 574.469 739.74C598.778 793.649 575.78 863.419 566.022 918.479C558.988 958.189 556.609 990.297 588.175 1017.27C605.381 1031.98 626.655 1040 644.929 1052.98C677.685 1076.22 704.838 1113.39 731.284 1144.15C746.558 1161.91 761.557 1179.93 776.228 1198.24" stroke="#9399FB" stroke-width="0.41" stroke-miterlimit="10"></path> <path d="M543.162 608.057C549.385 640.183 562.212 658.968 584.003 681.903C603.398 702.333 625.827 722.398 635.964 750.302C654.704 801.982 630.93 865.74 622.207 916.981C616.104 952.78 620.19 977.578 642.17 1005.35C658.204 1025.6 679.305 1040.22 697.08 1058.53C723.612 1085.87 748.334 1115.93 773.642 1144.62C785.158 1157.69 798.226 1177.44 812.38 1186.49" stroke="#9399FB" stroke-width="0.41" stroke-miterlimit="10"></path> <path d="M610.966 608.058C621.276 665.713 662.634 697.053 685.529 747.544C707.682 796.428 689.184 855.508 681.253 906.072C675.478 942.84 679.96 969.319 699.597 1000.07C713.63 1022.06 732.094 1039.97 747.696 1060.58C769.125 1088.9 791.641 1115.62 815.363 1141.9C821.604 1148.83 839.205 1174.14 847.963 1172.56" stroke="#9399FB" stroke-width="0.41" stroke-miterlimit="10"></path> <path d="M680.064 608.075C684.805 642.96 695.062 670.701 710.94 701.547C721.56 722.16 733.059 742.573 740.093 764.977C755.247 813.275 742.3 864.589 738.524 913.655C733.99 972.498 768.677 1012.99 797.175 1058.93C804.105 1070.1 868.737 1167.14 883.047 1156.9" stroke="#9399FB" stroke-width="0.41" stroke-miterlimit="10"></path> <path d="M750.178 608.076C755.316 670.445 780.71 723.02 792.382 783.452C800.174 823.82 797.709 864.096 797.536 904.939C797.312 962.082 821.379 1004.84 846.015 1053.36C850.17 1061.53 907.993 1153.28 917.716 1139.93" stroke="#9399FB" stroke-width="0.41" stroke-miterlimit="10"></path> <path d="M821.018 608.094C823.966 706.975 844.412 805.747 855.86 903.97C861.721 954.297 876.237 997.534 894.701 1043.71C897.649 1051.11 942.818 1135.98 952.058 1122.16" stroke="#9399FB" stroke-width="0.41" stroke-miterlimit="10"></path> <path d="M892.287 608.093C891.425 669.33 891.012 730.95 894.942 792.095C897.373 829.831 906.355 866.69 915.182 903.22C925.388 945.47 931.715 987.829 943.645 1029.73C945.679 1036.88 974.884 1114.69 986.09 1104.03" stroke="#9399FB" stroke-width="0.41" stroke-miterlimit="10"></path> <path d="M963.712 608.076C960.971 668.581 953.024 728.813 951.489 789.337C950.576 825.373 961.264 855.635 973.056 888.675C986.762 927.124 986.469 970.799 993.399 1011.24C995.244 1022.02 1005.9 1085.96 1019.97 1085.94" stroke="#9399FB" stroke-width="0.41" stroke-miterlimit="10"></path> <path d="M1035 608.057C1031.53 667.064 1016.24 724.152 1012.45 782.903C1010.29 816.491 1019.54 839.206 1032.12 868.664C1047.02 903.494 1041.6 950.148 1044.34 987.994C1046.26 1014.56 1047.39 1042.45 1053.64 1068.42" stroke="#9399FB" stroke-width="0.41" stroke-miterlimit="10"></path> <path d="M1105.84 608.057C1101.75 662.313 1085.56 714.248 1081.29 768.156C1078.82 799.277 1088.79 821.937 1098.08 850.097C1109.46 884.599 1100.98 926.428 1100.37 962.41C1099.89 990.863 1101.08 1026.06 1087.27 1051.86" stroke="#9399FB" stroke-width="0.41" stroke-miterlimit="10"></path> <path d="M1175.95 608.057C1172.16 656.338 1156.18 701.84 1151.97 749.682C1149.44 778.5 1157.3 804.522 1162.73 832.317C1170.3 870.985 1160.47 906.126 1154.97 944.082C1149.78 979.881 1143.96 1009.39 1120.84 1036.77" stroke="#9399FB" stroke-width="0.41" stroke-miterlimit="10"></path> <path d="M1245.05 608.039C1242.22 648.791 1228.98 684.681 1223.88 724.646C1219.47 759.239 1226.59 793.905 1229.14 828.297C1232.12 868.336 1219.48 895.747 1208.3 931.966C1200.99 955.613 1197.23 978.291 1181.94 998.21C1173.95 1008.61 1163.99 1015.13 1154.49 1023.52" stroke="#9399FB" stroke-width="0.41" stroke-miterlimit="10"></path> <path d="M1312.86 608.039C1310.98 642.467 1300.24 669.714 1294.87 702.936C1288.72 741.111 1293.46 781.551 1293.63 820.055C1293.74 844.579 1293.63 871.021 1282.36 893.206C1276.38 904.993 1266.15 913.472 1260.02 925.058C1248.05 947.59 1244.1 970.122 1225.16 988.414C1214.02 999.159 1201.23 1005.12 1188.3 1012.63" stroke="#9399FB" stroke-width="0.41" stroke-miterlimit="10"></path> <path d="M1379.04 608.039C1378.28 625.966 1377.85 640.421 1372.97 657.123C1370.01 667.283 1365.56 676.749 1363.47 687.239C1355.33 728.063 1358.59 772.305 1356.73 813.86C1355.59 839.298 1356.63 872.319 1341.59 894.047C1333.16 906.217 1319.32 911.426 1310.32 922.719C1301.89 933.281 1298.7 947.572 1290.87 958.865C1283.79 969.08 1275.12 977.651 1265.22 984.741C1251.96 994.244 1237.31 999.397 1222.24 1004.5" stroke="#9399FB" stroke-width="0.41" stroke-miterlimit="10"></path> <path d="M1443.34 608.058C1442.59 627.374 1442.22 641.006 1436.41 658.604C1433.48 667.449 1429.74 675.325 1427.71 684.645C1418.05 729.051 1420.36 777.733 1416.17 823.016C1413.81 848.527 1413.9 882.517 1394.42 901.156C1383.97 911.17 1369.14 913.601 1358.8 923.542C1349.52 932.46 1345.82 946.988 1337.66 957.203C1328.46 968.752 1316.82 977.908 1304.11 984.742C1289.39 992.655 1272.89 997.899 1256.45 999.617" stroke="#9399FB" stroke-width="0.41" stroke-miterlimit="10"></path> <path d="M1505.48 608.057C1504.67 626.368 1504.46 642.705 1498.43 659.846C1494.22 671.779 1489.7 681.355 1487.44 694.183C1480.17 735.391 1477.44 777.732 1470.43 819.123C1465.39 848.855 1463.84 882.461 1441.83 904.39C1431.53 914.642 1417.86 919.667 1406.93 928.932C1395.59 938.526 1389.07 952.78 1378.42 963.324C1368.56 973.082 1356.92 980.758 1344.63 986.55C1329.6 993.659 1307.73 1002.54 1291.01 998.465" stroke="#9399FB" stroke-width="0.41" stroke-miterlimit="10"></path> <path d="M1565.14 608.057C1563.63 641.974 1554.2 666.26 1547.15 698.166C1537.04 743.815 1527.82 787.49 1513.74 832.225C1505.74 857.626 1500.08 882.625 1484.24 904.024C1474.96 916.542 1463.46 925.953 1452.33 936.461C1429.24 958.244 1412.76 980.392 1382.95 992.873C1368.49 998.922 1341.08 1009.87 1325.96 1001.43" stroke="#9399FB" stroke-width="0.41" stroke-miterlimit="10"></path> <path d="M1622.04 608.057C1618.81 684.315 1593.31 758.289 1558.21 824.185C1537.23 863.584 1523.61 911.298 1495.46 946.073C1475.01 971.328 1450.4 991.302 1420.71 1002.61C1406.64 1007.97 1375.3 1019.99 1361.32 1008.97" stroke="#9399FB" stroke-width="0.41" stroke-miterlimit="10"></path> <path d="M1675.89 608.057C1674.38 648.041 1667.14 683.474 1657.34 721.814C1645.24 769.125 1618.12 798.674 1588.75 834.894C1571.11 856.622 1558.23 879.154 1551.15 906.93C1546.8 923.962 1545.54 942.071 1536.85 957.531C1520.91 985.893 1486.57 1005.25 1458 1015.84C1444.48 1020.85 1410.07 1034.19 1397.24 1021.56" stroke="#9399FB" stroke-width="0.41" stroke-miterlimit="10"></path> <path d="M1726.41 608.057C1724.94 653.157 1718.06 695.261 1706.94 738.753C1696.01 781.478 1660.98 804.778 1629.45 830.672C1601.35 853.752 1582.78 873.872 1580.57 912.175C1579.45 931.472 1583.73 952.14 1576.92 970.579C1565.66 1001.02 1522.01 1021.78 1494.87 1032.27C1481.32 1037.52 1446.86 1052.03 1433.72 1039.64" stroke="#9399FB" stroke-width="0.41" stroke-miterlimit="10"></path> <path d="M1773.28 608.056C1772.01 655.313 1765.87 700.706 1755.09 746.483C1742.99 797.906 1692.81 815.833 1653.53 840.375C1621.61 860.312 1606.64 878.933 1610.49 919.63C1612.49 940.846 1621.21 963.78 1616.11 985.033C1608.4 1017.2 1558.06 1040.42 1531.37 1052.01C1517.53 1058.02 1485.03 1074.28 1470.86 1063.65" stroke="#9399FB" stroke-width="0.41" stroke-miterlimit="10"></path> <path d="M1816.24 608.056C1815.19 656.976 1810.14 704.562 1799.49 752.203C1792.95 781.423 1781.4 795.878 1756.59 810.826C1737.15 822.558 1716.03 830.873 1695.65 840.485C1660.71 856.986 1635.35 873.543 1640.34 917.51C1643.41 944.41 1659.5 973.265 1654.88 1000.64C1649.34 1033.48 1593.61 1061.33 1567.63 1074.8C1553.02 1082.36 1525.85 1098.9 1508.72 1094.07" stroke="#9399FB" stroke-width="0.41" stroke-miterlimit="10"></path> </svg> 