<?xml version="1.0" encoding="UTF-8"?> <!--?xml version="1.0" encoding="UTF-8"?--> <!--?xml version="1.0" encoding="UTF-8"?--> <svg xmlns="http://www.w3.org/2000/svg" width="1160" height="620" viewBox="0 0 1160 620" fill="none"> <mask id="path-1-inside-1_150_671" fill="white"> <path fill-rule="evenodd" clip-rule="evenodd" d="M1160 10C1160 4.47715 1155.52 0 1150 0H10C4.47715 0 0 4.47715 0 10V76.5999C0 79.725 1.461 82.6705 3.9491 84.5614L36.0509 108.959C38.539 110.85 40 113.796 40 116.921L40 259.079C40 262.204 38.539 265.15 36.0509 267.041L3.9491 291.439C1.461 293.33 0 296.275 0 299.4V505.511C0 508.163 1.05357 510.707 2.92893 512.582L107.418 617.071C109.293 618.946 111.837 620 114.489 620H1150C1155.52 620 1160 615.523 1160 610V515.397C1160 513.031 1159.16 510.741 1157.63 508.935L1123.37 468.466C1121.84 466.66 1121 464.371 1121 462.004V232.995C1121 230.629 1121.84 228.34 1123.37 226.534L1157.63 186.065C1159.16 184.259 1160 181.969 1160 179.603V10Z"></path> </mask> <path fill-rule="evenodd" clip-rule="evenodd" d="M1160 10C1160 4.47715 1155.52 0 1150 0H10C4.47715 0 0 4.47715 0 10V76.5999C0 79.725 1.461 82.6705 3.9491 84.5614L36.0509 108.959C38.539 110.85 40 113.796 40 116.921L40 259.079C40 262.204 38.539 265.15 36.0509 267.041L3.9491 291.439C1.461 293.33 0 296.275 0 299.4V505.511C0 508.163 1.05357 510.707 2.92893 512.582L107.418 617.071C109.293 618.946 111.837 620 114.489 620H1150C1155.52 620 1160 615.523 1160 610V515.397C1160 513.031 1159.16 510.741 1157.63 508.935L1123.37 468.466C1121.84 466.66 1121 464.371 1121 462.004V232.995C1121 230.629 1121.84 228.34 1123.37 226.534L1157.63 186.065C1159.16 184.259 1160 181.969 1160 179.603V10Z" fill="white" fill-opacity="0.05"></path> <path d="M1157.63 186.065L1156.87 185.418L1157.63 186.065ZM1123.37 226.534L1124.13 227.18L1123.37 226.534ZM1123.37 468.466L1124.13 467.82L1123.37 468.466ZM1157.63 508.935L1156.87 509.582L1157.63 508.935ZM107.418 617.071L106.711 617.778L107.418 617.071ZM2.92893 512.582L3.63604 511.875L2.92893 512.582ZM3.9491 291.439L3.34401 290.642L3.9491 291.439ZM40 259.079L39 259.079L40 259.079ZM36.0509 267.041L36.656 267.837L36.0509 267.041ZM36.0509 108.959L35.4458 109.755L36.0509 108.959ZM40 116.921L41 116.921L40 116.921ZM10 1H1150V-1H10V1ZM1 76.5999V10H-1V76.5999H1ZM3.34401 85.3576L35.4458 109.755L36.656 108.163L4.55419 83.7653L3.34401 85.3576ZM39 116.921L39 259.079L41 259.079L41 116.921L39 116.921ZM35.4458 266.245L3.34401 290.642L4.55419 292.235L36.656 267.837L35.4458 266.245ZM1 505.511V299.4H-1V505.511H1ZM108.125 616.364L3.63604 511.875L2.22183 513.289L106.711 617.778L108.125 616.364ZM1150 619H114.489V621H1150V619ZM1159 515.397V610H1161V515.397H1159ZM1122.6 469.112L1156.87 509.582L1158.4 508.289L1124.13 467.82L1122.6 469.112ZM1120 232.995V462.004H1122V232.995H1120ZM1156.87 185.418L1122.6 225.888L1124.13 227.18L1158.4 186.711L1156.87 185.418ZM1159 10V179.603H1161V10H1159ZM1158.4 186.711C1160.08 184.724 1161 182.206 1161 179.603H1159C1159 181.733 1158.24 183.793 1156.87 185.418L1158.4 186.711ZM1122 232.995C1122 230.866 1122.76 228.805 1124.13 227.18L1122.6 225.888C1120.92 227.874 1120 230.393 1120 232.995H1122ZM1124.13 467.82C1122.76 466.195 1122 464.134 1122 462.004H1120C1120 464.607 1120.92 467.126 1122.6 469.112L1124.13 467.82ZM1161 515.397C1161 512.794 1160.08 510.276 1158.4 508.289L1156.87 509.582C1158.24 511.207 1159 513.267 1159 515.397H1161ZM1150 621C1156.08 621 1161 616.075 1161 610H1159C1159 614.971 1154.97 619 1150 619V621ZM106.711 617.778C108.774 619.841 111.571 621 114.489 621V619C112.102 619 109.813 618.052 108.125 616.364L106.711 617.778ZM-1 505.511C-1 508.429 0.158928 511.226 2.22183 513.289L3.63604 511.875C1.94821 510.187 1 507.898 1 505.511H-1ZM3.34401 290.642C0.6071 292.722 -1 295.962 -1 299.4H1C1 296.587 2.3149 293.937 4.55419 292.235L3.34401 290.642ZM39 259.079C39 261.892 37.6851 264.543 35.4458 266.245L36.656 267.837C39.3929 265.757 41 262.517 41 259.079L39 259.079ZM35.4458 109.755C37.6851 111.457 39 114.108 39 116.921L41 116.921C41 113.483 39.3929 110.243 36.656 108.163L35.4458 109.755ZM-1 76.5999C-1 80.0375 0.607098 83.2775 3.34401 85.3576L4.55419 83.7653C2.3149 82.0634 1 79.4125 1 76.5999H-1ZM1150 1C1154.97 1 1159 5.02944 1159 10H1161C1161 3.92487 1156.08 -1 1150 -1V1ZM10 -1C3.92487 -1 -1 3.92487 -1 10H1C1 5.02944 5.02944 1 10 1V-1Z" fill="white" fill-opacity="0.29" mask="url(#path-1-inside-1_150_671)"></path> </svg> 