<?xml version="1.0" encoding="UTF-8"?> <svg xmlns="http://www.w3.org/2000/svg" width="191" height="72" viewBox="0 0 191 72" fill="none"> <g filter="url(#filter0_b_208_671)"> <path d="M0 33C0 14.7746 14.7746 1.93144e-06 33 4.314e-06L153.909 2.01201e-05C174.394 2.2798e-05 191 16.6062 191 37.0909V37.0909C191 56.3707 175.371 72 156.091 72H2.99999C1.34314 72 0 70.6569 0 69V33Z" fill="white" fill-opacity="0.02"></path> <path d="M33 0.500004L153.909 0.50002C174.118 0.500023 190.5 16.8823 190.5 37.0909C190.5 56.0945 175.095 71.5 156.091 71.5H2.99999C1.61928 71.5 0.5 70.3807 0.5 69V33C0.5 15.0507 15.0507 0.500002 33 0.500004Z" stroke="#B7F46A"></path> </g> <path d="M24.904 24.368L24.244 26H22.192L25.636 17.6H28.252L31.696 26H29.656L28.996 24.356L24.904 24.368ZM26.776 19.16L25.24 23.312H28.684L27.124 19.148C27.016 18.812 27.16 18.248 27.16 17.9H26.716C26.728 18.26 26.872 18.824 26.776 19.16ZM43.5038 22.724H37.3478C37.3478 22.82 37.3478 22.916 37.3478 23.012C37.3718 24.344 38.4038 25.112 39.7958 25.112C40.7678 25.112 41.9918 24.692 42.3278 23.612H43.9118C43.4918 25.376 41.6318 26.18 39.7598 26.18C37.4678 26.18 35.5718 24.956 35.5718 22.664C35.5718 20.276 37.5398 19.112 39.6878 19.112C42.0158 19.112 43.5638 20.48 43.5038 22.724ZM37.4198 22.028H41.7518C41.7158 20.924 41.0558 20.156 39.6758 20.156C38.1758 20.156 37.5998 21.044 37.4198 22.028ZM55.6491 26H45.3891V19.244H47.1891V24.668H50.0331V19.244H51.8331V24.668H54.6771V19.244H56.4771V24.668H57.4371L57.4491 27.212H55.6491V26ZM66.0858 22.724H59.9298C59.9298 22.82 59.9298 22.916 59.9298 23.012C59.9538 24.344 60.9858 25.112 62.3778 25.112C63.3498 25.112 64.5738 24.692 64.9098 23.612H66.4938C66.0738 25.376 64.2138 26.18 62.3418 26.18C60.0498 26.18 58.1538 24.956 58.1538 22.664C58.1538 20.276 60.1218 19.112 62.2698 19.112C64.5978 19.112 66.1458 20.48 66.0858 22.724ZM60.0018 22.028H64.3338C64.2978 20.924 63.6378 20.156 62.2578 20.156C60.7578 20.156 60.1818 21.044 60.0018 22.028ZM77.8323 27.212V26H72.4443V27.212H70.6323L70.6563 24.668H71.1003C72.2403 24.668 73.1763 23 73.6923 19.292V19.244H78.4563L78.4683 24.668H79.6203L79.6323 27.212H77.8323ZM74.4243 24.668H76.6683V20.576H75.0363C74.7483 22.34 73.9203 24.416 72.3843 25.016L72.5643 25.352C73.1643 25.028 73.8603 24.668 74.4243 24.668ZM80.2534 23.864C80.2534 22.472 81.5974 21.872 83.0614 21.872C84.6334 21.872 85.8214 22.58 86.6374 23.12C86.6494 22.904 86.6374 22.424 86.6374 22.232C86.6374 21.032 86.0494 20.54 84.5014 20.54H80.9974L80.9854 19.244H85.1374C87.4174 19.244 88.4374 20.192 88.4374 22.4V24.668H89.6254V26.012H87.5134V26L87.2854 26.012C86.9014 26.012 86.7334 25.592 86.7334 25.316C86.7334 24.932 86.9614 24.224 87.0814 24.044L86.7214 23.852C85.9174 25.652 84.2974 26.12 83.1694 26.12C81.6934 26.12 80.2534 25.304 80.2534 23.864ZM82.0534 23.888C82.0534 24.68 82.9414 25.088 83.8534 25.088C85.5694 25.088 86.3014 23.66 86.3014 23.66C86.3014 23.66 84.9214 22.76 83.7094 22.76C83.1934 22.76 82.0534 22.928 82.0534 23.888ZM97.4613 27.212V26H92.0733V27.212H90.2613L90.2853 24.668H90.7293C91.8693 24.668 92.8053 23 93.3213 19.292V19.244H98.0853L98.0973 24.668H99.2493L99.2613 27.212H97.4613ZM94.0533 24.668H96.2973V20.576H94.6653C94.3773 22.34 93.5493 24.416 92.0133 25.016L92.1933 25.352C92.7933 25.028 93.4893 24.668 94.0533 24.668ZM106.134 26V23.348C106.134 22.22 106.554 20.768 106.902 19.676L106.518 19.604C106.17 20.696 105.654 22.136 104.994 23.108L102.546 26H100.338V19.244H102.114L102.126 22.376C102.126 23.336 101.754 24.572 101.49 25.508L101.886 25.58C102.15 24.644 102.45 23.396 102.954 22.532L105.606 19.244H107.934L107.91 26H106.134ZM118.411 22.724L116.635 26H113.815L112.027 22.712C111.751 21.776 111.655 20.504 111.499 19.544L111.103 19.592C111.259 20.54 111.571 21.8 111.595 22.76L111.607 26H109.807V19.244H112.591L115.111 25.532H115.339L117.859 19.244H120.643V26H118.843V22.772C118.867 21.812 119.191 20.552 119.347 19.604L118.951 19.568C118.795 20.504 118.687 21.788 118.411 22.724ZM29.68 41.212V40H24.292V41.212H22.48L22.504 38.668H22.948C24.088 38.668 25.024 37 25.54 33.292V33.244H30.304L30.316 38.668H31.468L31.48 41.212H29.68ZM26.272 38.668H28.516V34.576H26.884C26.596 36.34 25.768 38.416 24.232 39.016L24.412 39.352C25.012 39.028 25.708 38.668 26.272 38.668ZM36.6011 33.112C38.6291 33.112 40.8371 34.252 40.8371 36.664C40.8371 38.896 38.7971 40.192 36.5411 40.192C34.2491 40.192 32.1731 38.848 32.1731 36.664C32.1731 34.348 34.4891 33.112 36.6011 33.112ZM33.9611 36.64C33.9611 38.104 35.0171 39.232 36.5171 39.232C38.0051 39.232 39.0371 38.116 39.0371 36.64C39.0371 35.272 38.1371 34.144 36.5531 34.144C34.8251 34.144 33.9611 35.476 33.9611 36.64ZM48.7865 37.204H50.4665C50.1785 39.16 48.1265 40.18 46.1105 40.18C43.8905 40.18 41.9465 38.944 41.9465 36.664C41.9465 34.216 44.1305 33.112 46.1705 33.112C48.0785 33.112 50.0585 34.06 50.2025 36.088H48.5345C48.5105 34.96 47.5505 34.156 46.0865 34.156C44.3345 34.156 43.5785 35.32 43.5785 36.664C43.5785 38.392 44.6585 39.148 46.0865 39.148C47.5745 39.148 48.6665 38.296 48.7865 37.204ZM58.3747 33.244V34.66H55.5907V40H53.9467V34.66H51.0907V33.244H58.3747ZM65.7494 33.244H67.5614L64.6814 40.096L65.8454 43H61.3814V41.668H63.5654L62.9294 39.988C62.2694 39.952 61.8614 39.736 61.5974 39.112L58.8254 33.244H60.7214L63.0854 38.452L62.8334 39.136H63.2414L65.7494 33.244ZM68.7212 40V33.244H76.2092V40H74.4092V34.576H70.5212V40H68.7212ZM88.0673 36.844C88.5593 36.94 88.3673 37.516 88.1393 38.656H89.4113V40.024H85.8353L87.0233 37.492H82.8473V40H81.2033V33.256H82.8473V36.064H83.3753L87.2033 33.244H89.3513L85.9193 35.824C85.4393 36.22 84.7073 36.4 83.7593 36.592V36.976C84.0473 36.904 84.7673 36.712 85.1273 36.64C85.6793 36.556 86.1953 36.508 86.6393 36.508C87.3233 36.508 87.8513 36.616 88.0673 36.844ZM100.009 33.244H101.809V40H100.009V37.288H95.3766V40H93.5766V33.244H95.3766V35.992H100.009V33.244ZM103.14 37.864C103.14 36.472 104.484 35.872 105.948 35.872C107.52 35.872 108.708 36.58 109.524 37.12C109.536 36.904 109.524 36.424 109.524 36.232C109.524 35.032 108.936 34.54 107.388 34.54H103.884L103.872 33.244H108.024C110.304 33.244 111.324 34.192 111.324 36.4V38.668H112.512V40.012H110.4V40L110.172 40.012C109.788 40.012 109.62 39.592 109.62 39.316C109.62 38.932 109.848 38.224 109.968 38.044L109.608 37.852C108.804 39.652 107.184 40.12 106.056 40.12C104.58 40.12 103.14 39.304 103.14 37.864ZM104.94 37.888C104.94 38.68 105.828 39.088 106.74 39.088C108.456 39.088 109.188 37.66 109.188 37.66C109.188 37.66 107.808 36.76 106.596 36.76C106.08 36.76 104.94 36.928 104.94 37.888ZM113.604 33.244H115.404V38.668H118.248V33.244H120.048V38.668H122.892V33.244H124.692V40H113.604V33.244ZM134.125 36.724H127.969C127.969 36.82 127.969 36.916 127.969 37.012C127.993 38.344 129.025 39.112 130.417 39.112C131.389 39.112 132.613 38.692 132.949 37.612H134.533C134.113 39.376 132.253 40.18 130.381 40.18C128.089 40.18 126.193 38.956 126.193 36.664C126.193 34.276 128.161 33.112 130.309 33.112C132.637 33.112 134.185 34.48 134.125 36.724ZM128.041 36.028H132.373C132.337 34.924 131.677 34.156 130.297 34.156C128.797 34.156 128.221 35.044 128.041 36.028ZM144.614 36.724L142.838 40H140.018L138.23 36.712C137.954 35.776 137.858 34.504 137.702 33.544L137.306 33.592C137.462 34.54 137.774 35.8 137.798 36.76L137.81 40H136.01V33.244H138.794L141.314 39.532H141.542L144.062 33.244H146.846V40H145.046V36.772C145.07 35.812 145.394 34.552 145.55 33.604L145.154 33.568C144.998 34.504 144.89 35.788 144.614 36.724ZM154.917 33.244H156.729L153.849 40.096L155.013 43H150.549V41.668H152.733L152.097 39.988C151.437 39.952 151.029 39.736 150.765 39.112L147.993 33.244H149.889L152.253 38.452L152.001 39.136H152.409L154.917 33.244ZM26.728 54.12C24.328 54.12 22.696 52.788 22.696 50.172C22.696 47.04 24.184 46.296 26.944 45.504C27.424 45.36 29.2 44.832 29.596 44.724C29.596 45 29.596 45.804 29.596 46.104C29.068 46.26 27.556 46.716 27.004 46.884C25.168 47.364 24.424 48.216 23.848 49.476L24.136 49.764C24.844 48.936 25.864 48.588 27.088 48.588C28.864 48.588 30.448 49.44 30.448 51.24C30.448 53.196 28.48 54.12 26.728 54.12ZM26.572 49.548C25.768 49.548 25.048 49.776 24.352 50.232C24.352 50.28 24.352 50.448 24.352 50.484C24.352 52.056 25.432 52.728 26.74 52.728C27.82 52.728 28.804 52.152 28.804 51.036C28.804 49.932 27.664 49.548 26.572 49.548ZM36.0152 47.112C38.0432 47.112 40.2512 48.252 40.2512 50.664C40.2512 52.896 38.2112 54.192 35.9552 54.192C33.6632 54.192 31.5872 52.848 31.5872 50.664C31.5872 48.348 33.9032 47.112 36.0152 47.112ZM33.3752 50.64C33.3752 52.104 34.4312 53.232 35.9312 53.232C37.4192 53.232 38.4512 52.116 38.4512 50.64C38.4512 49.272 37.5512 48.144 35.9672 48.144C34.2392 48.144 33.3752 49.476 33.3752 50.64ZM48.2966 47.244V48.66H45.5126V54H43.8686V48.66H41.0126V47.244H48.2966ZM55.6713 47.244H57.4833L54.6033 54.096L55.7673 57H51.3033V55.668H53.4873L52.8513 53.988C52.1913 53.952 51.7833 53.736 51.5193 53.112L48.7473 47.244H50.6433L53.0073 52.452L52.7553 53.136H53.1633L55.6713 47.244ZM68.2162 51.204H69.8962C69.6082 53.16 67.5562 54.18 65.5402 54.18C63.3202 54.18 61.3762 52.944 61.3762 50.664C61.3762 48.216 63.5602 47.112 65.6002 47.112C67.5082 47.112 69.4882 48.06 69.6322 50.088H67.9642C67.9402 48.96 66.9802 48.156 65.5162 48.156C63.7642 48.156 63.0082 49.32 63.0082 50.664C63.0082 52.392 64.0882 53.148 65.5162 53.148C67.0042 53.148 68.0962 52.296 68.2162 51.204ZM80.8016 47.244H82.6016V54H80.8016V51.288H76.1696V54H74.3696V47.244H76.1696V49.992H80.8016V47.244ZM91.9491 50.724H85.7931C85.7931 50.82 85.7931 50.916 85.7931 51.012C85.8171 52.344 86.8491 53.112 88.2411 53.112C89.2131 53.112 90.4371 52.692 90.7731 51.612H92.3571C91.9371 53.376 90.0771 54.18 88.2051 54.18C85.9131 54.18 84.0171 52.956 84.0171 50.664C84.0171 48.276 85.9851 47.112 88.1331 47.112C90.4611 47.112 92.0091 48.48 91.9491 50.724ZM85.8651 50.028H90.1971C90.1611 48.924 89.5011 48.156 88.1211 48.156C86.6211 48.156 86.0451 49.044 85.8651 50.028ZM96.2584 44.628H97.0864C97.0864 45.096 97.3744 45.444 97.7944 45.444C98.2264 45.444 98.5264 45.096 98.5264 44.628H99.3544C99.3544 45.432 98.7184 45.996 97.8184 45.996C96.9064 45.996 96.2584 45.42 96.2584 44.628ZM99.6304 54V51.348C99.6304 50.22 100.05 48.768 100.398 47.676L100.014 47.604C99.6664 48.696 99.1504 50.136 98.4904 51.108L96.0424 54H93.8344V47.244H95.6104L95.6224 50.376C95.6224 51.336 95.2504 52.572 94.9864 53.508L95.3824 53.58C95.6464 52.644 95.9464 51.396 96.4504 50.532L99.1024 47.244H101.43L101.406 54H99.6304ZM108.547 54.12C106.819 54.12 105.523 53.124 104.923 51.924H104.551L105.115 53.136V57H103.315V47.244H105.115V48.024L104.575 48.828H104.983C105.559 47.904 107.071 47.136 108.595 47.136C110.479 47.136 112.195 48.3 112.195 50.616C112.195 52.956 110.431 54.12 108.547 54.12ZM107.911 48.18C106.207 48.18 105.127 49.08 105.127 50.436C105.127 51.72 106.111 52.884 107.959 52.884C109.639 52.884 110.395 51.924 110.395 50.508C110.395 49.044 109.591 48.18 107.911 48.18ZM117.777 47.112C119.805 47.112 122.013 48.252 122.013 50.664C122.013 52.896 119.973 54.192 117.717 54.192C115.425 54.192 113.349 52.848 113.349 50.664C113.349 48.348 115.665 47.112 117.777 47.112ZM115.137 50.64C115.137 52.104 116.193 53.232 117.693 53.232C119.181 53.232 120.213 52.116 120.213 50.64C120.213 49.272 119.313 48.144 117.729 48.144C116.001 48.144 115.137 49.476 115.137 50.64ZM129.962 51.204H131.642C131.354 53.16 129.302 54.18 127.286 54.18C125.066 54.18 123.122 52.944 123.122 50.664C123.122 48.216 125.306 47.112 127.346 47.112C129.254 47.112 131.234 48.06 131.378 50.088H129.71C129.686 48.96 128.726 48.156 127.262 48.156C125.51 48.156 124.754 49.32 124.754 50.664C124.754 52.392 125.834 53.148 127.262 53.148C128.75 53.148 129.842 52.296 129.962 51.204ZM140.559 50.724H134.403C134.403 50.82 134.403 50.916 134.403 51.012C134.427 52.344 135.459 53.112 136.851 53.112C137.823 53.112 139.047 52.692 139.383 51.612H140.967C140.547 53.376 138.687 54.18 136.815 54.18C134.523 54.18 132.627 52.956 132.627 50.664C132.627 48.276 134.595 47.112 136.743 47.112C139.071 47.112 140.619 48.48 140.559 50.724ZM134.475 50.028H138.807C138.771 48.924 138.111 48.156 136.731 48.156C135.23 48.156 134.655 49.044 134.475 50.028ZM148.996 47.244V48.66H146.212V54H144.568V48.66H141.712V47.244H148.996ZM152.146 47.244V49.956H154.75C156.766 49.956 158.182 50.52 158.182 52.02C158.182 53.232 157.018 54 155.23 54H150.346V47.244H152.146ZM154.978 52.812C155.782 52.812 156.406 52.524 156.406 51.936C156.406 51.324 155.734 51.048 154.726 51.048H152.146V52.812H154.978ZM168.075 47.088C170.103 47.088 172.323 48.228 172.323 50.64C172.323 52.86 170.283 54.168 168.027 54.168C165.975 54.168 164.115 53.052 163.743 51.288H161.331V54H159.531V47.244H161.331V49.992H163.755C164.139 48.084 166.215 47.088 168.075 47.088ZM165.447 50.604C165.447 52.068 166.503 53.208 168.003 53.208C169.491 53.208 170.523 52.08 170.523 50.604C170.523 49.236 169.623 48.108 168.003 48.108C166.311 48.108 165.447 49.452 165.447 50.604Z" fill="#B7F46A"></path> <defs> <filter id="filter0_b_208_671" x="-9.9" y="-9.9" width="210.8" height="91.8" filterUnits="userSpaceOnUse" color-interpolation-filters="sRGB"> <feFlood flood-opacity="0" result="BackgroundImageFix"></feFlood> <feGaussianBlur in="BackgroundImageFix" stdDeviation="4.95"></feGaussianBlur> <feComposite in2="SourceAlpha" operator="in" result="effect1_backgroundBlur_208_671"></feComposite> <feBlend mode="normal" in="SourceGraphic" in2="effect1_backgroundBlur_208_671" result="shape"></feBlend> </filter> </defs> </svg> 