<?xml version="1.0" encoding="UTF-8"?> <svg xmlns="http://www.w3.org/2000/svg" width="1878" height="1109" viewBox="0 0 1878 1109" fill="none"> <g filter="url(#filter0_f_150_16)"> <path d="M96.7129 904.687L75.9005 938.064C46.5517 985.131 98.7349 1040.56 147.483 1014.1L159.305 1007.68C172.116 1000.72 187.194 999.245 201.112 1003.58L315.53 1039.18C321.315 1040.98 327.361 1041.8 333.416 1041.59L532.115 1034.81C549.991 1034.2 566.406 1024.78 575.948 1009.65L667.575 864.379C673.17 855.508 676.061 845.201 675.894 834.715L674.705 759.721C674.215 728.84 699.678 703.84 730.545 704.896L942.749 712.157C946.27 712.278 949.77 712.742 953.201 713.545L1203.92 772.184C1225.29 777.182 1247.55 768.753 1260.25 750.86L1359.88 610.507C1364.83 603.535 1368.05 595.486 1369.28 587.024L1382.04 499.282C1384.39 483.121 1393.93 468.892 1407.99 460.577L1495.59 408.758L1655.43 339.457C1664.6 335.48 1672.49 329.036 1678.21 320.842L1802.7 142.677C1805.47 138.723 1807.1 134.09 1807.42 129.278L1810.09 89.325C1811.67 65.7417 1778.72 58.5806 1770.37 80.6919C1769.96 81.7641 1769.51 82.7415 1768.92 83.7216C1722.1 160.977 1495.19 309.35 1487.34 312.753C1483.07 314.604 1461.93 298.736 1438.38 279.18C1410.03 255.644 1366.53 264.682 1351.56 298.346L1312.99 385.088C1311.8 387.774 1310.39 390.359 1308.77 392.815L1204.19 551.869C1191.21 571.602 1166.92 580.615 1144.21 574.118L995.567 531.589C990.395 530.11 985.03 529.411 979.651 529.517L726.218 534.501C717.606 534.67 709.16 536.897 701.584 540.996L439.608 682.732C412.771 697.252 403.285 731.107 418.673 757.457L448.783 809.02C465.925 838.376 452.005 876.078 419.9 887.251L299.106 929.288C285.914 933.878 271.457 933.179 258.77 927.337L165.122 884.21C140.416 872.833 111.105 881.607 96.7129 904.687Z" fill="url(#paint0_linear_150_16)"></path> </g> <defs> <filter id="filter0_f_150_16" x="0.495018" y="0.469139" width="1876.55" height="1108.05" filterUnits="userSpaceOnUse" color-interpolation-filters="sRGB"> <feFlood flood-opacity="0" result="BackgroundImageFix"></feFlood> <feBlend mode="normal" in="SourceGraphic" in2="BackgroundImageFix" result="shape"></feBlend> <feGaussianBlur stdDeviation="33.45" result="effect1_foregroundBlur_150_16"></feGaussianBlur> </filter> <linearGradient id="paint0_linear_150_16" x1="163.524" y1="937.485" x2="1600.12" y2="314.609" gradientUnits="userSpaceOnUse"> <stop stop-color="#D1F373"></stop> <stop offset="0.285" stop-color="#3783FF"></stop> <stop offset="0.51" stop-color="#2339E2"></stop> <stop offset="0.795" stop-color="#9529FF"></stop> <stop offset="1" stop-color="#F0A692"></stop> </linearGradient> </defs> </svg> 