<?xml version="1.0" encoding="UTF-8"?> <svg xmlns="http://www.w3.org/2000/svg" width="1789" height="795" viewBox="0 0 1789 795" fill="none"> <g filter="url(#filter0_f_186_128)"> <path d="M1691 281.883L1709.12 260.161C1743.74 218.654 1702.03 157.866 1650.55 174.347C1635.29 179.232 1618.56 177.117 1605.04 168.527L1515.13 111.41C1509.73 107.984 1503.78 105.542 1497.53 104.199L1331.58 68.5034C1312.06 64.3047 1291.81 71.2202 1278.94 86.4843L1181.7 201.792C1175.15 209.558 1170.93 219.014 1169.51 229.074L1160.13 295.678C1155.54 328.312 1123.03 349.254 1091.42 339.952L919.359 289.329C915.792 288.28 912.343 286.865 909.067 285.107L707.042 176.695C685.567 165.17 659.034 169.459 642.284 187.163L540.688 294.537C534.847 300.71 530.545 308.175 528.133 316.324L504.479 396.238C499.633 412.61 487.329 425.726 471.3 431.607L394.93 459.628C392.526 460.51 390.063 461.219 387.559 461.752L245.194 492.021C234.346 494.328 224.471 499.919 216.911 508.034L83.7162 651.023C80.7022 654.259 78.6129 658.245 77.6667 662.565L68.2552 705.535C63.6784 726.43 92.3527 737.09 102.536 718.278C103.031 717.364 103.563 716.536 104.218 715.729C156.625 651.155 376.67 557.475 384.018 555.913C387.509 555.17 400.166 570.387 415.012 590.365C438.518 621.993 486.908 621.314 507.612 587.784L546.568 524.695C548.15 522.134 549.943 519.709 551.929 517.446L660.91 393.276C678.154 373.63 706.993 369.155 729.379 382.652L844.442 452.029C849.307 454.962 854.604 457.11 860.138 458.392L1077.35 508.712C1086.8 510.902 1096.67 510.504 1105.92 507.559L1347.28 430.703C1375.83 421.615 1391.52 391.03 1382.25 362.545L1363.33 304.394C1352.85 272.155 1374.31 238.34 1407.95 234.112L1507.59 221.588C1522.44 219.721 1537.41 224.105 1548.91 233.693L1614.95 288.766C1637.85 307.863 1671.9 304.782 1691 281.883Z" fill="url(#paint0_linear_186_128)"></path> </g> <defs> <filter id="filter0_f_186_128" x="0.864403" y="0.394432" width="1787.86" height="794.54" filterUnits="userSpaceOnUse" color-interpolation-filters="sRGB"> <feFlood flood-opacity="0" result="BackgroundImageFix"></feFlood> <feBlend mode="normal" in="SourceGraphic" in2="BackgroundImageFix" result="shape"></feBlend> <feGaussianBlur stdDeviation="33.45" result="effect1_foregroundBlur_186_128"></feGaussianBlur> </filter> <linearGradient id="paint0_linear_186_128" x1="1631.21" y1="243.129" x2="286.078" y2="529.129" gradientUnits="userSpaceOnUse"> <stop stop-color="#F0A692"></stop> <stop offset="0.315" stop-color="#0055E6"></stop> <stop offset="0.645" stop-color="#C729FF"></stop> <stop offset="1" stop-color="#F0A692"></stop> <stop offset="1" stop-color="#FF4411"></stop> </linearGradient> </defs> </svg> 