<?xml version="1.0" encoding="UTF-8"?> <svg xmlns="http://www.w3.org/2000/svg" width="2184" height="937" viewBox="0 0 2184 937" fill="none"> <g filter="url(#filter0_f_185_2)"> <path d="M1987.02 865.908L2082.24 827.883C2131.33 808.281 2125.94 737.12 2074.46 725.139L2022.31 713.002C2005.46 709.082 1991.51 697.331 1984.79 681.397L1929.9 551.291C1927.33 545.195 1923.66 539.623 1919.08 534.853L1772.28 382.184C1757.13 366.42 1733.96 361.354 1713.61 369.353L1530.3 441.395C1521.19 444.975 1513.22 450.964 1507.25 458.72L1441.06 544.738C1419.86 572.285 1378.54 572.92 1356.5 546.038L1210.92 368.433C1208.48 365.455 1206.36 362.225 1204.61 358.797L1070.6 96.8905C1058.5 73.2472 1031.01 61.9107 1005.76 70.1561L823.562 129.663C815.617 132.258 808.383 136.661 802.429 142.527L717.005 226.685C704.453 239.051 686.657 244.515 669.328 241.324L569.078 222.864C566.27 222.346 563.506 221.607 560.814 220.653L395.282 161.969C383.904 157.935 371.503 157.83 360.059 161.67L127.629 239.662C122.527 241.374 117.963 244.393 114.393 248.419L72.8174 295.286C55.4882 314.821 79.9441 343.165 101.807 328.883C102.857 328.198 103.901 327.622 105.059 327.14C201.02 287.223 485.476 323.168 493.925 326.163C498.623 327.828 501.33 362.749 502.8 403.036C504.316 444.585 549.384 470.643 585.411 449.89L679.564 395.651C682.193 394.136 684.944 392.847 687.789 391.794L887.125 318.075C913.756 308.226 943.464 320.683 955.107 346.578L1027.99 508.683C1030.41 514.052 1033.68 518.991 1037.69 523.303L1224.94 724.757C1232.24 732.613 1241.72 738.116 1252.16 740.566L1559.39 812.635C1588.1 819.368 1616.89 801.836 1624.09 773.247L1653.98 654.558C1662.25 621.706 1698.38 604.496 1729.1 618.773L1852.26 676.005C1866.57 682.658 1877.26 695.243 1881.51 710.447L1914.98 830.288C1923.63 861.22 1957.19 877.819 1987.02 865.908Z" fill="url(#paint0_linear_185_2)"></path> </g> <defs> <filter id="filter0_f_185_2" x="0.0467758" y="0.579988" width="2183.08" height="936.101" filterUnits="userSpaceOnUse" color-interpolation-filters="sRGB"> <feFlood flood-opacity="0" result="BackgroundImageFix"></feFlood> <feBlend mode="normal" in="SourceGraphic" in2="BackgroundImageFix" result="shape"></feBlend> <feGaussianBlur stdDeviation="33.45" result="effect1_foregroundBlur_185_2"></feGaussianBlur> </filter> <linearGradient id="paint0_linear_185_2" x1="1959.48" y1="779.866" x2="413.215" y2="231.688" gradientUnits="userSpaceOnUse"> <stop stop-color="#D1F373"></stop> <stop offset="0.325" stop-color="#3783FF"></stop> <stop offset="0.58" stop-color="#2339E2"></stop> <stop offset="0.795" stop-color="#9529FF"></stop> <stop offset="1" stop-color="#F0A692"></stop> </linearGradient> </defs> </svg> 