<?xml version="1.0" encoding="UTF-8"?> <svg xmlns="http://www.w3.org/2000/svg" width="622" height="416" viewBox="0 0 622 416" fill="none"> <mask id="path-1-inside-1_211_677" fill="white"> <path fill-rule="evenodd" clip-rule="evenodd" d="M622 406C622 411.523 617.523 416 612 416H10C4.47715 416 0 411.523 0 406V359.011C0 355.607 1.73136 352.437 4.59516 350.597L16.8531 342.723C19.7169 340.883 21.4482 337.713 21.4482 334.309L21.4482 276.307C21.4482 272.903 19.7169 269.733 16.8531 267.893L4.59517 260.019C1.73137 258.179 0 255.009 0 251.605V54.6533C0 51.71 1.2967 48.9161 3.54463 47.016L56.3735 2.36271C58.1785 0.83706 60.4655 0 62.8289 0H612C617.523 0 622 4.47715 622 10V52.1381C622 55.2525 620.549 58.1892 618.075 60.0812L604.476 70.4821C602.003 72.3741 600.552 75.3107 600.552 78.4252V189.854C600.552 192.968 602.003 195.905 604.476 197.797L618.075 208.198C620.549 210.09 622 213.026 622 216.141V406Z"></path> </mask> <path fill-rule="evenodd" clip-rule="evenodd" d="M622 406C622 411.523 617.523 416 612 416H10C4.47715 416 0 411.523 0 406V359.011C0 355.607 1.73136 352.437 4.59516 350.597L16.8531 342.723C19.7169 340.883 21.4482 337.713 21.4482 334.309L21.4482 276.307C21.4482 272.903 19.7169 269.733 16.8531 267.893L4.59517 260.019C1.73137 258.179 0 255.009 0 251.605V54.6533C0 51.71 1.2967 48.9161 3.54463 47.016L56.3735 2.36271C58.1785 0.83706 60.4655 0 62.8289 0H612C617.523 0 622 4.47715 622 10V52.1381C622 55.2525 620.549 58.1892 618.075 60.0812L604.476 70.4821C602.003 72.3741 600.552 75.3107 600.552 78.4252V189.854C600.552 192.968 602.003 195.905 604.476 197.797L618.075 208.198C620.549 210.09 622 213.026 622 216.141V406Z" fill="white" fill-opacity="0.05"></path> <path d="M618.075 208.198L617.468 208.992L618.075 208.198ZM604.476 197.797L605.084 197.002L604.476 197.797ZM604.476 70.4821L605.084 71.2764L604.476 70.4821ZM618.075 60.0812L617.468 59.2869L618.075 60.0812ZM56.3735 2.36271L55.728 1.59898L56.3735 2.36271ZM4.59517 260.019L5.13565 259.177L4.59517 260.019ZM21.4482 276.307L20.4482 276.307L21.4482 276.307ZM16.8531 267.893L16.3126 268.734L16.8531 267.893ZM10 415H612V417H10V415ZM1 359.011V406H-1V359.011H1ZM4.05468 349.756L16.3126 341.882L17.3936 343.564L5.13564 351.439L4.05468 349.756ZM20.4482 334.309L20.4482 276.307L22.4482 276.307L22.4482 334.309L20.4482 334.309ZM16.3126 268.734L4.05468 260.86L5.13565 259.177L17.3936 267.052L16.3126 268.734ZM1 54.6533V251.605H-1V54.6533H1ZM57.0191 3.12644L4.19017 47.7798L2.89909 46.2523L55.728 1.59898L57.0191 3.12644ZM612 1H62.8289V-1H612V1ZM621 52.1381V10H623V52.1381H621ZM603.869 69.6878L617.468 59.2869L618.683 60.8755L605.084 71.2764L603.869 69.6878ZM599.552 189.854V78.4252H601.552V189.854H599.552ZM617.468 208.992L603.869 198.591L605.084 197.002L618.683 207.403L617.468 208.992ZM621 406V216.141H623V406H621ZM618.683 207.403C621.404 209.485 623 212.715 623 216.141H621C621 213.338 619.694 210.695 617.468 208.992L618.683 207.403ZM601.552 189.854C601.552 192.657 602.857 195.3 605.084 197.002L603.869 198.591C601.148 196.51 599.552 193.28 599.552 189.854H601.552ZM605.084 71.2764C602.857 72.9792 601.552 75.6222 601.552 78.4252H599.552C599.552 74.9993 601.148 71.769 603.869 69.6878L605.084 71.2764ZM623 52.1381C623 55.564 621.404 58.7943 618.683 60.8755L617.468 59.2869C619.694 57.5841 621 54.9411 621 52.1381H623ZM612 -1C618.075 -1 623 3.92487 623 10H621C621 5.02944 616.971 1 612 1V-1ZM55.728 1.59898C57.7135 -0.0792348 60.2292 -1 62.8289 -1V1C60.7019 1 58.6436 1.75335 57.0191 3.12644L55.728 1.59898ZM-1 54.6533C-1 51.4156 0.426371 48.3424 2.89909 46.2523L4.19017 47.7798C2.16703 49.4898 1 52.0043 1 54.6533H-1ZM4.05468 260.86C0.904506 258.836 -1 255.349 -1 251.605H1C1 254.669 2.55823 257.522 5.13565 259.177L4.05468 260.86ZM20.4482 276.307C20.4482 273.243 18.89 270.39 16.3126 268.734L17.3936 267.052C20.5437 269.075 22.4482 272.563 22.4482 276.307L20.4482 276.307ZM16.3126 341.882C18.89 340.226 20.4482 337.373 20.4482 334.309L22.4482 334.309C22.4482 338.054 20.5437 341.541 17.3936 343.564L16.3126 341.882ZM-1 359.011C-1 355.267 0.904501 351.78 4.05468 349.756L5.13564 351.439C2.55823 353.095 1 355.948 1 359.011H-1ZM612 415C616.971 415 621 410.971 621 406H623C623 412.075 618.075 417 612 417V415ZM10 417C3.92487 417 -1 412.075 -1 406H1C1 410.971 5.02944 415 10 415V417Z" fill="white" fill-opacity="0.29" mask="url(#path-1-inside-1_211_677)"></path> </svg> 