<?xml version="1.0" encoding="UTF-8"?> <svg xmlns="http://www.w3.org/2000/svg" width="620" height="800" viewBox="0 0 620 800" fill="none"> <mask id="path-1-inside-1_194_179" fill="white"> <path fill-rule="evenodd" clip-rule="evenodd" d="M620 10C620 4.47715 615.523 0 610 0H10C4.47715 0 0 4.47716 0 10V111.8C0 114.925 1.461 117.871 3.9491 119.762L16.0509 128.959C18.539 130.85 20 133.796 20 136.921L20 279.079C20 282.204 18.539 285.15 16.0509 287.041L3.9491 296.238C1.461 298.129 0 301.075 0 304.2V755.511C0 758.163 1.05357 760.707 2.92893 762.582L37.4178 797.071C39.2931 798.946 41.8367 800 44.4889 800H610C615.523 800 620 795.523 620 790V731.775C620 729.409 619.161 727.119 617.632 725.313L603.368 708.466C601.839 706.66 601 704.371 601 702.005V472.995C601 470.629 601.839 468.34 603.368 466.534L617.632 449.687C619.161 447.881 620 445.591 620 443.225V10Z"></path> </mask> <path fill-rule="evenodd" clip-rule="evenodd" d="M620 10C620 4.47715 615.523 0 610 0H10C4.47715 0 0 4.47716 0 10V111.8C0 114.925 1.461 117.871 3.9491 119.762L16.0509 128.959C18.539 130.85 20 133.796 20 136.921L20 279.079C20 282.204 18.539 285.15 16.0509 287.041L3.9491 296.238C1.461 298.129 0 301.075 0 304.2V755.511C0 758.163 1.05357 760.707 2.92893 762.582L37.4178 797.071C39.2931 798.946 41.8367 800 44.4889 800H610C615.523 800 620 795.523 620 790V731.775C620 729.409 619.161 727.119 617.632 725.313L603.368 708.466C601.839 706.66 601 704.371 601 702.005V472.995C601 470.629 601.839 468.34 603.368 466.534L617.632 449.687C619.161 447.881 620 445.591 620 443.225V10Z" fill="white" fill-opacity="0.05"></path> <path d="M617.632 449.687L618.395 450.333L617.632 449.687ZM603.368 466.534L602.605 465.888L603.368 466.534ZM603.368 708.466L602.605 709.112L603.368 708.466ZM617.632 725.313L618.395 724.667L617.632 725.313ZM37.4178 797.071L36.7106 797.778L37.4178 797.071ZM2.92893 762.582L3.63604 761.875L2.92893 762.582ZM3.9491 296.238L3.34401 295.442L3.9491 296.238ZM16.0509 287.041L16.656 287.837L16.0509 287.041ZM16.0509 128.959L16.656 128.163L16.0509 128.959ZM10 1H610V-1H10V1ZM1 111.8V10H-1V111.8H1ZM3.34401 120.558L15.4458 129.755L16.656 128.163L4.55419 118.966L3.34401 120.558ZM19 136.921L19 279.079L21 279.079L21 136.921L19 136.921ZM15.4458 286.245L3.34401 295.442L4.55419 297.034L16.656 287.837L15.4458 286.245ZM1 755.511V304.2H-1V755.511H1ZM38.1249 796.364L3.63604 761.875L2.22182 763.289L36.7106 797.778L38.1249 796.364ZM610 799H44.4889V801H610V799ZM619 731.775V790H621V731.775H619ZM602.605 709.112L616.869 725.959L618.395 724.667L604.131 707.82L602.605 709.112ZM600 472.995V702.005H602V472.995H600ZM616.869 449.041L602.605 465.888L604.131 467.18L618.395 450.333L616.869 449.041ZM619 10V443.225H621V10H619ZM618.395 450.333C620.077 448.346 621 445.828 621 443.225H619C619 445.355 618.245 447.415 616.869 449.041L618.395 450.333ZM602 472.995C602 470.866 602.755 468.805 604.131 467.18L602.605 465.888C600.923 467.874 600 470.393 600 472.995H602ZM604.131 707.82C602.755 706.195 602 704.134 602 702.005H600C600 704.607 600.923 707.126 602.605 709.112L604.131 707.82ZM621 731.775C621 729.172 620.077 726.654 618.395 724.667L616.869 725.959C618.245 727.585 619 729.645 619 731.775H621ZM610 801C616.075 801 621 796.075 621 790H619C619 794.971 614.971 799 610 799V801ZM36.7106 797.778C38.7735 799.841 41.5715 801 44.4889 801V799C42.1019 799 39.8127 798.052 38.1249 796.364L36.7106 797.778ZM-1 755.511C-1 758.429 0.158924 761.226 2.22182 763.289L3.63604 761.875C1.94821 760.187 1 757.898 1 755.511H-1ZM3.34401 295.442C0.607099 297.522 -1 300.762 -1 304.2H1C1 301.387 2.3149 298.736 4.55419 297.034L3.34401 295.442ZM19 279.079C19 281.892 17.6851 284.543 15.4458 286.245L16.656 287.837C19.3929 285.757 21 282.517 21 279.079L19 279.079ZM15.4458 129.755C17.6851 131.457 19 134.108 19 136.921L21 136.921C21 133.483 19.3929 130.243 16.656 128.163L15.4458 129.755ZM-1 111.8C-1 115.238 0.607098 118.478 3.34401 120.558L4.55419 118.966C2.3149 117.264 1 114.613 1 111.8H-1ZM610 1C614.971 1 619 5.02944 619 10H621C621 3.92487 616.075 -1 610 -1V1ZM10 -1C3.92487 -1 -1 3.92487 -1 10H1C1 5.02944 5.02944 1 10 1V-1Z" fill="white" fill-opacity="0.29" mask="url(#path-1-inside-1_194_179)"></path> </svg> 