<?xml version="1.0" encoding="UTF-8"?> <svg xmlns="http://www.w3.org/2000/svg" width="183" height="61" viewBox="0 0 183 61" fill="none"> <path d="M150 0.500004L31.4242 0.500018C14.3453 0.500019 0.5 14.3453 0.5 31.4243C0.5 47.4823 13.5177 60.5 29.5758 60.5H180C181.381 60.5 182.5 59.3807 182.5 58V33C182.5 15.0507 167.949 0.500002 150 0.500004Z" fill="white" fill-opacity="0.02" stroke="#B7F46A"></path> <path d="M38.624 22.968C39.86 22.992 40.388 23.604 40.388 24.552C40.388 26.472 38.468 27.192 36.644 27.192C34.568 27.192 32.612 26.328 32.612 24.072H34.268C34.256 25.248 35.564 25.812 36.668 25.812C37.7 25.812 38.732 25.476 38.732 24.48C38.732 23.616 38.312 23.244 37.28 23.244H35.516V22.284H37.28C38.216 22.284 38.732 21.84 38.732 21.036C38.732 20.064 37.664 19.716 36.656 19.716C35.528 19.716 34.256 20.256 34.268 21.468H32.612C32.612 19.188 34.532 18.336 36.632 18.336C38.456 18.336 40.388 19.068 40.388 20.964C40.388 21.852 39.8 22.536 38.624 22.56V22.968ZM41.4566 24.864C41.4566 23.472 42.8006 22.872 44.2646 22.872C45.8366 22.872 47.0246 23.58 47.8406 24.12C47.8526 23.904 47.8406 23.424 47.8406 23.232C47.8406 22.032 47.2526 21.54 45.7046 21.54H42.2006L42.1886 20.244H46.3406C48.6206 20.244 49.6406 21.192 49.6406 23.4V25.668H50.8286V27.012H48.7166V27L48.4886 27.012C48.1046 27.012 47.9366 26.592 47.9366 26.316C47.9366 25.932 48.1646 25.224 48.2846 25.044L47.9246 24.852C47.1206 26.652 45.5006 27.12 44.3726 27.12C42.8966 27.12 41.4566 26.304 41.4566 24.864ZM43.2566 24.888C43.2566 25.68 44.1446 26.088 45.0566 26.088C46.7726 26.088 47.5046 24.66 47.5046 24.66C47.5046 24.66 46.1246 23.76 44.9126 23.76C44.3966 23.76 43.2566 23.928 43.2566 24.888ZM51.9204 27V20.244H59.4084V27H57.6084V21.576H53.7204V27H51.9204ZM67.0093 27V24.348C67.0093 23.22 67.4293 21.768 67.7773 20.676L67.3933 20.604C67.0453 21.696 66.5293 23.136 65.8693 24.108L63.4213 27H61.2133V20.244H62.9893L63.0013 23.376C63.0013 24.336 62.6293 25.572 62.3653 26.508L62.7613 26.58C63.0253 25.644 63.3253 24.396 63.8293 23.532L66.4813 20.244H68.8093L68.7853 27H67.0093ZM77.1381 24.204H78.8181C78.5301 26.16 76.4781 27.18 74.4621 27.18C72.2421 27.18 70.2981 25.944 70.2981 23.664C70.2981 21.216 72.4821 20.112 74.5221 20.112C76.4301 20.112 78.4101 21.06 78.5541 23.088H76.8861C76.8621 21.96 75.9021 21.156 74.4381 21.156C72.6861 21.156 71.9301 22.32 71.9301 23.664C71.9301 25.392 73.0101 26.148 74.4381 26.148C75.9261 26.148 77.0181 25.296 77.1381 24.204ZM80.3543 20.244H82.1543V22.956H84.7583C86.7743 22.956 88.1903 23.52 88.1903 25.02C88.1903 26.232 87.0263 27 85.2383 27H80.3543V20.244ZM91.2263 27H89.4143V20.244H91.2263V27ZM82.1543 25.812H84.9863C85.7903 25.812 86.4143 25.524 86.4143 24.936C86.4143 24.324 85.7423 24.048 84.7343 24.048H82.1543V25.812ZM98.5835 23.76C99.9515 23.856 101.14 24.036 101.14 25.248C101.14 26.604 99.7115 27 98.1875 27H93.3035V20.16H97.6475C99.2555 20.16 100.972 20.424 100.972 21.84C100.972 22.968 99.8795 23.364 98.5835 23.448V23.76ZM97.5515 21.396H95.1035V23.22H97.7075C98.5955 23.22 99.2555 22.872 99.2555 22.26C99.2555 21.648 98.5235 21.396 97.5515 21.396ZM97.9355 25.884C98.7395 25.884 99.3635 25.56 99.3635 24.936C99.3635 24.288 98.6915 23.952 97.6955 23.952H95.1035V25.884H97.9355ZM102.16 24.864C102.16 23.472 103.504 22.872 104.968 22.872C106.54 22.872 107.728 23.58 108.544 24.12C108.556 23.904 108.544 23.424 108.544 23.232C108.544 22.032 107.956 21.54 106.408 21.54H102.904L102.892 20.244H107.044C109.324 20.244 110.344 21.192 110.344 23.4V25.668H111.532V27.012H109.42V27L109.192 27.012C108.808 27.012 108.64 26.592 108.64 26.316C108.64 25.932 108.868 25.224 108.988 25.044L108.628 24.852C107.824 26.652 106.204 27.12 105.076 27.12C103.6 27.12 102.16 26.304 102.16 24.864ZM103.96 24.888C103.96 25.68 104.848 26.088 105.76 26.088C107.476 26.088 108.208 24.66 108.208 24.66C108.208 24.66 106.828 23.76 105.616 23.76C105.1 23.76 103.96 23.928 103.96 24.888ZM115.048 17.628H115.876C115.876 18.096 116.164 18.444 116.584 18.444C117.016 18.444 117.316 18.096 117.316 17.628H118.144C118.144 18.432 117.508 18.996 116.608 18.996C115.696 18.996 115.048 18.42 115.048 17.628ZM118.42 27V24.348C118.42 23.22 118.84 21.768 119.188 20.676L118.804 20.604C118.456 21.696 117.94 23.136 117.28 24.108L114.832 27H112.624V20.244H114.4L114.412 23.376C114.412 24.336 114.04 25.572 113.776 26.508L114.172 26.58C114.436 25.644 114.736 24.396 115.24 23.532L117.892 20.244H120.22L120.196 27H118.42ZM128.548 24.204H130.228C129.94 26.16 127.888 27.18 125.872 27.18C123.652 27.18 121.708 25.944 121.708 23.664C121.708 21.216 123.892 20.112 125.932 20.112C127.84 20.112 129.82 21.06 129.964 23.088H128.296C128.272 21.96 127.312 21.156 125.848 21.156C124.096 21.156 123.34 22.32 123.34 23.664C123.34 25.392 124.42 26.148 125.848 26.148C127.336 26.148 128.428 25.296 128.548 24.204ZM139.348 20.244V27H137.704V24.36H133.444L134.62 27.012H131.128V25.668H132.484C132.232 24.432 131.992 23.856 133.12 23.796V23.472C132.028 23.34 131.224 22.836 131.224 21.888C131.224 20.616 132.664 20.244 134.32 20.244H139.348ZM137.704 23.292V21.348H134.332C133.552 21.348 132.844 21.648 132.844 22.308C132.844 22.98 133.54 23.316 134.356 23.316L137.704 23.292ZM140.714 26.148C140.714 25.56 141.122 25.176 141.758 25.176C142.382 25.176 142.802 25.56 142.802 26.148C142.802 26.208 142.79 26.268 142.778 26.316L142.73 27.048L141.602 28.584H140.978L141.518 27.096C141.026 27.012 140.714 26.652 140.714 26.148ZM41.54 37.724L39.764 41H36.944L35.156 37.712C34.88 36.776 34.784 35.504 34.628 34.544L34.232 34.592C34.388 35.54 34.7 36.8 34.724 37.76L34.736 41H32.936V34.244H35.72L38.24 40.532H38.468L40.988 34.244H43.772V41H41.972V37.772C41.996 36.812 42.32 35.552 42.476 34.604L42.08 34.568C41.924 35.504 41.816 36.788 41.54 37.724ZM45.8191 34.244H47.6191V36.956H50.2231C52.2391 36.956 53.6551 37.52 53.6551 39.02C53.6551 40.232 52.4911 41 50.7031 41H45.8191V34.244ZM56.6911 41H54.8791V34.244H56.6911V41ZM47.6191 39.812H50.4511C51.2551 39.812 51.8791 39.524 51.8791 38.936C51.8791 38.324 51.2071 38.048 50.1991 38.048H47.6191V39.812ZM68.2575 34.244V35.66H65.4735V41H63.8295V35.66H60.9735V34.244H68.2575ZM76.9882 37.724H70.8322C70.8322 37.82 70.8322 37.916 70.8322 38.012C70.8562 39.344 71.8882 40.112 73.2802 40.112C74.2522 40.112 75.4762 39.692 75.8122 38.612H77.3962C76.9762 40.376 75.1162 41.18 73.2442 41.18C70.9522 41.18 69.0562 39.956 69.0562 37.664C69.0562 35.276 71.0242 34.112 73.1722 34.112C75.5002 34.112 77.0482 35.48 76.9882 37.724ZM70.9042 37.028H75.2362C75.2002 35.924 74.5402 35.156 73.1602 35.156C71.6602 35.156 71.0842 36.044 70.9042 37.028ZM82.6655 41.12C80.2655 41.12 78.6335 39.788 78.6335 37.172C78.6335 34.04 80.1215 33.296 82.8815 32.504C83.3615 32.36 85.1375 31.832 85.5335 31.724C85.5335 32 85.5335 32.804 85.5335 33.104C85.0055 33.26 83.4935 33.716 82.9415 33.884C81.1055 34.364 80.3615 35.216 79.7855 36.476L80.0735 36.764C80.7815 35.936 81.8015 35.588 83.0255 35.588C84.8015 35.588 86.3855 36.44 86.3855 38.24C86.3855 40.196 84.4175 41.12 82.6655 41.12ZM82.5095 36.548C81.7055 36.548 80.9855 36.776 80.2895 37.232C80.2895 37.28 80.2895 37.448 80.2895 37.484C80.2895 39.056 81.3695 39.728 82.6775 39.728C83.7575 39.728 84.7415 39.152 84.7415 38.036C84.7415 36.932 83.6015 36.548 82.5095 36.548ZM95.6727 34.244V41H94.0287V38.36H89.7687L90.9447 41.012H87.4527V39.668H88.8087C88.5567 38.432 88.3167 37.856 89.4447 37.796V37.472C88.3527 37.34 87.5487 36.836 87.5487 35.888C87.5487 34.616 88.9887 34.244 90.6447 34.244H95.6727ZM94.0287 37.292V35.348H90.6567C89.8767 35.348 89.1687 35.648 89.1687 36.308C89.1687 36.98 89.8647 37.316 90.6807 37.316L94.0287 37.292ZM103.096 36.8L100.108 34.244H101.992L105.316 37.04L105.747 37.808H106.12L105.7 36.968V32.24H107.5V36.968L107.08 37.808H107.44L107.884 37.04L111.196 34.244H113.08L110.104 36.8C110.332 38.408 111.148 39.668 112.252 39.668H113.308L113.32 41H111.892C110.44 41 109.288 39.236 109.096 37.664H108.664L107.5 39.14V41H105.7V39.14L104.536 37.664H104.092C103.912 39.236 102.76 41 101.308 41H99.8675L99.8795 39.668H100.948C102.052 39.668 102.868 38.408 103.096 36.8ZM121.078 42.212V41H115.69V42.212H113.878L113.902 39.668H114.346C115.486 39.668 116.422 38 116.938 34.292V34.244H121.702L121.714 39.668H122.866L122.878 42.212H121.078ZM117.67 39.668H119.914V35.576H118.282C117.994 37.34 117.166 39.416 115.63 40.016L115.81 40.352C116.41 40.028 117.106 39.668 117.67 39.668ZM125.732 32.144C125.732 31.724 126.032 31.448 126.476 31.448C126.92 31.448 127.22 31.724 127.22 32.144C127.22 32.552 126.92 32.84 126.476 32.84C126.032 32.84 125.732 32.552 125.732 32.144ZM128.276 32.144C128.276 31.724 128.576 31.448 129.02 31.448C129.476 31.448 129.776 31.724 129.776 32.144C129.776 32.552 129.476 32.84 129.02 32.84C128.576 32.84 128.276 32.552 128.276 32.144ZM131.516 37.724H125.36C125.36 37.82 125.36 37.916 125.36 38.012C125.384 39.344 126.416 40.112 127.808 40.112C128.78 40.112 130.004 39.692 130.34 38.612H131.924C131.504 40.376 129.644 41.18 127.772 41.18C125.48 41.18 123.584 39.956 123.584 37.664C123.584 35.276 125.552 34.112 127.7 34.112C130.028 34.112 131.576 35.48 131.516 37.724ZM125.432 37.028H129.764C129.728 35.924 129.068 35.156 127.688 35.156C126.188 35.156 125.612 36.044 125.432 37.028ZM142.005 37.724L140.229 41H137.409L135.621 37.712C135.345 36.776 135.249 35.504 135.093 34.544L134.697 34.592C134.853 35.54 135.165 36.8 135.189 37.76L135.201 41H133.401V34.244H136.185L138.705 40.532H138.933L141.453 34.244H144.237V41H142.437V37.772C142.461 36.812 142.785 35.552 142.941 34.604L142.545 34.568C142.389 35.504 142.281 36.788 142.005 37.724ZM146.644 37.472L146.164 32.6H148.156L147.664 37.472H146.644ZM146.128 40.148C146.128 39.56 146.536 39.176 147.16 39.176C147.796 39.176 148.204 39.56 148.204 40.148C148.204 40.724 147.796 41.108 147.16 41.108C146.536 41.108 146.128 40.724 146.128 40.148Z" fill="#B7F46A"></path> </svg> 