<?xml version="1.0" encoding="UTF-8"?> <svg xmlns="http://www.w3.org/2000/svg" width="1853" height="1148" viewBox="0 0 1853 1148" fill="none"> <g filter="url(#filter0_f_162_3)"> <path d="M1758.27 949.783L1778.17 983.709C1806.24 1031.55 1752.58 1085.55 1704.56 1057.78L1692.92 1051.05C1680.3 1043.75 1665.27 1041.87 1651.24 1045.82L1535.9 1078.33C1530.07 1079.97 1524.01 1080.62 1517.96 1080.25L1319.51 1068.12C1301.66 1067.03 1285.51 1057.17 1276.38 1041.79L1188.7 894.099C1183.34 885.081 1180.73 874.699 1181.18 864.221L1184.39 789.287C1185.71 758.43 1160.94 732.753 1130.05 732.977L917.728 734.514C914.206 734.539 910.694 734.909 907.243 735.619L655.032 787.478C633.539 791.897 611.509 782.871 599.295 764.642L503.492 621.655C498.732 614.551 495.728 606.419 494.725 597.927L484.333 509.873C482.419 493.654 473.267 479.173 459.44 470.482L373.266 416.32L215.355 342.735C206.295 338.512 198.584 331.858 193.082 323.513L73.4402 142.056C70.7852 138.029 69.2804 133.354 69.0879 128.534L67.4915 88.5243C66.5491 64.907 99.6826 58.6368 107.435 80.9654C107.811 82.048 108.238 83.0374 108.805 84.033C153.517 162.522 376.351 316.96 384.104 320.573C388.321 322.538 409.882 307.246 433.953 288.332C462.922 265.569 506.163 275.776 520.219 309.831L556.438 397.581C557.559 400.299 558.901 402.921 560.45 405.42L660.708 567.236C673.146 587.312 697.187 596.975 720.06 591.094L869.798 552.588C875.008 551.248 880.389 550.694 885.764 550.945L1138.97 562.76C1147.57 563.161 1155.96 565.615 1163.42 569.916L1421.48 718.664C1447.92 733.902 1456.49 768.001 1440.39 793.926L1408.9 844.659C1390.98 873.542 1403.87 911.606 1435.67 923.64L1555.28 968.918C1568.35 973.863 1582.82 973.553 1595.66 968.055L1690.43 927.469C1715.44 916.762 1744.5 926.323 1758.27 949.783Z" fill="url(#paint0_linear_162_3)"></path> </g> <defs> <filter id="filter0_f_162_3" x="0.571678" y="0.229607" width="1852.25" height="1147.02" filterUnits="userSpaceOnUse" color-interpolation-filters="sRGB"> <feFlood flood-opacity="0" result="BackgroundImageFix"></feFlood> <feBlend mode="normal" in="SourceGraphic" in2="BackgroundImageFix" result="shape"></feBlend> <feGaussianBlur stdDeviation="33.45" result="effect1_foregroundBlur_162_3"></feGaussianBlur> </filter> <linearGradient id="paint0_linear_162_3" x1="1690.6" y1="980.768" x2="271.314" y2="319.387" gradientUnits="userSpaceOnUse"> <stop stop-color="#D1F373"></stop> <stop offset="0.225" stop-color="#30B4FF"></stop> <stop offset="0.51" stop-color="#2339E2"></stop> <stop offset="0.795" stop-color="#9529FF"></stop> <stop offset="1" stop-color="#F0A692"></stop> </linearGradient> </defs> </svg> 