<?xml version="1.0" encoding="UTF-8"?> <svg xmlns="http://www.w3.org/2000/svg" width="1160" height="620" viewBox="0 0 1160 620" fill="none"> <g clip-path="url(#clip0_150_768)"> <g opacity="0.4"> <mask id="mask0_150_768" style="mask-type:alpha" maskUnits="userSpaceOnUse" x="-669" y="340" width="2160" height="668"> <g clip-path="url(#clip1_150_768)"> <path d="M1490.58 1007.6C915.679 1007.5 340.779 1007.6 -234.121 1007.6C-378.94 1007.6 -523.76 1007.56 -668.579 1007.6C-664.784 821.935 -575.62 664.661 -427.267 555.538C-355.128 502.491 -272.148 458.051 -185.935 432.571C-65.5903 355.208 67.5036 321.261 208.528 353.181C311.144 376.394 405.127 426.071 498.387 473.038C586.628 517.478 678.362 563.703 777.666 576.022C916.682 593.276 1034.72 526.847 1132.36 433.093C1155.85 442.281 1178.25 454.721 1199.7 467.862C1218.35 479.298 1236.38 491.757 1253.68 505.119C1271.09 518.541 1298.58 535.294 1303.03 558.246C1308.6 586.876 1287.67 621.104 1281.65 648.61C1271.91 693.11 1289.02 719.192 1328.59 737.71C1360.24 752.517 1394.69 761.284 1425.27 778.418C1450.95 792.803 1461.73 806.747 1469.78 834.314C1486.08 890.109 1489.59 949.877 1490.58 1007.6Z" stroke="#00CECE" stroke-width="0.41" stroke-miterlimit="10"></path> <path d="M1133.48 433.514C1035.08 525.904 915.016 592.594 776.24 576.002C676.515 564.084 585.845 517.458 497.926 471.875C406.191 424.325 312.771 375.672 210.456 355.709C68.7687 328.062 -65.5499 356.03 -187.441 432.992" stroke="#00CECE" stroke-width="0.41" stroke-miterlimit="10"></path> <path d="M1136.67 434.818C1037.89 525.262 917.084 591.31 779.352 576.624C677.539 565.77 586.227 518.421 497.042 471.493C405.308 423.222 311.225 376.033 207.826 359.501C66.1988 336.83 -68.7423 358.598 -191.757 434.357" stroke="#00CECE" stroke-width="0.41" stroke-miterlimit="10"></path> <path d="M1141.83 437.025C1042.27 525.604 921.039 590.327 784.131 577.627C679.607 567.937 587.01 520.006 495.797 471.855C403.32 423.041 308.434 378.3 203.609 364.959C61.8819 346.922 -74.1835 362.31 -198.684 436.564" stroke="#00CECE" stroke-width="0.41" stroke-miterlimit="10"></path> <path d="M1148.78 440.195C1048.81 526.286 928.368 588.983 793.065 579.332C684.325 571.588 588.877 522.674 494.191 473.018C399.204 423.202 302.712 381.972 194.936 371.76C53.9312 358.418 -82.6762 367.827 -208.02 439.754" stroke="#00CECE" stroke-width="0.41" stroke-miterlimit="10"></path> <path d="M1157.37 444.348C1055.98 528.513 935.274 589.123 800.474 581.419C688.02 574.999 590.302 525.644 492.244 475.004C395.048 424.827 297.692 387.77 187.748 380.407C46.3621 370.937 -92.2331 374.107 -219.605 443.927" stroke="#00CECE" stroke-width="0.41" stroke-miterlimit="10"></path> <path d="M1167.49 449.504C1065.94 530.399 946.979 588.501 814.488 584.428C695.79 580.777 593.635 530.178 489.975 477.833C389.868 427.294 291.709 395.053 179.155 390.398C37.2267 384.52 -103.697 381.631 -233.237 449.123" stroke="#00CECE" stroke-width="0.41" stroke-miterlimit="10"></path> <path d="M1178.98 455.724C1073.15 536.157 950.453 592.815 815.05 587.719C695.027 583.205 592.932 533.308 487.405 481.505C437.291 456.908 385.732 434.557 331.704 420.012C279 405.807 226.638 402.476 172.368 401.654C28.6334 399.507 -115.764 389.937 -248.737 455.343" stroke="#00CECE" stroke-width="0.41" stroke-miterlimit="10"></path> <path d="M1191.68 463.027C1084.27 540.47 961.997 594.861 827.438 592.353C701.773 590.026 595.522 538.925 484.594 486.119C435.384 462.686 384.688 441.76 331.684 428.518C273.74 414.033 217.704 413.471 158.475 413.932C14.6796 415.016 -131.324 400.53 -265.844 462.666" stroke="#00CECE" stroke-width="0.41" stroke-miterlimit="10"></path> <path d="M1205.48 471.433C1097.1 545.085 976.052 597.57 843.139 597.911C782.223 598.071 721.669 588 663.505 570.143C599.658 550.562 541.895 519.404 481.542 491.617C430.164 467.962 377.079 447.398 321.625 435.56C262.778 422.981 206.099 425.388 146.489 427.194C1.50897 431.588 -147.286 411.886 -284.395 471.092" stroke="#00CECE" stroke-width="0.41" stroke-miterlimit="10"></path> <path d="M1220.19 481.003C1107.12 552.949 982.597 604.331 846.853 604.592C784.853 604.712 723.175 594.741 663.866 576.845C598.855 557.203 539.968 525.563 478.23 498.077C424.542 474.182 368.887 453.938 310.883 443.606C251.012 432.932 193.751 438.108 133.559 441.359C-12.967 449.243 -164.372 424.466 -304.252 480.702" stroke="#00CECE" stroke-width="0.41" stroke-miterlimit="10"></path> <path d="M1235.71 491.757C1118.38 561.095 991.25 611.754 853.218 612.557C790.776 612.918 728.576 603.488 668.685 586.033C600.763 566.231 539.386 533.308 474.736 505.48C419.021 481.505 361.138 461.743 300.945 452.855C240.452 443.927 183.13 451.069 122.737 455.985C-26.4789 468.083 -181.477 437.828 -325.172 491.476" stroke="#00CECE" stroke-width="0.41" stroke-miterlimit="10"></path> <path d="M1251.88 503.715C1132.68 568.619 1005.55 618.696 868.195 621.746C800.715 623.25 733.375 613.821 668.585 595.022C599.558 574.999 537.077 541.413 471.082 513.887C414.504 490.272 355.697 471.273 294.681 463.448C228.786 455.002 167.389 465.755 102.097 471.955C-47.0186 486.119 -202.439 453.497 -346.957 503.454" stroke="#00CECE" stroke-width="0.41" stroke-miterlimit="10"></path> <path d="M1268.54 516.936C1171.69 565.108 1070.98 607.541 963.463 624.434C857.494 641.066 749.196 631.777 647.182 598.874C544.204 565.669 451.847 507.727 345.276 484.213C298.254 473.841 250.048 469.567 201.963 472.276C147.432 475.325 94.4074 488.968 39.7764 491.897C-95.9677 499.16 -237.615 474.523 -369.403 516.695" stroke="#00CECE" stroke-width="0.41" stroke-miterlimit="10"></path> <path d="M1285.57 531.442C1184.8 576.824 1081.58 618.897 971.775 636.251C862.513 653.506 751.143 644.517 645.977 610.31C541.554 576.323 447.812 517.939 339.233 495.348C289.401 484.976 238.444 481.525 187.708 485.598C132.475 490.032 79.0884 505.3 23.7347 509.232C-113.997 519.023 -257.933 491.336 -392.332 531.201" stroke="#00CECE" stroke-width="0.41" stroke-miterlimit="10"></path> <path d="M1300.2 548.074C1091.48 635.71 872.693 695.317 649.129 624.595C591.748 606.438 538.944 578.108 483.229 555.859C433.055 535.816 381.155 519.845 327.869 510.596C277.093 501.768 225.454 499.22 174.035 502.591C116.834 506.323 60.7979 518.441 3.47658 521.551C-135.339 529.094 -279.918 509.934 -415.561 547.071" stroke="#00CECE" stroke-width="0.41" stroke-miterlimit="10"></path> <path d="M1303.23 569.602C1096.62 651.158 866.388 702.62 647.483 637.335C589.499 620.04 536.715 590.929 480.157 570.043C428.377 550.923 374.69 537.26 320.079 529.295C207.986 512.944 96.2748 525.082 -16.2196 528.091C-156.722 531.823 -301.903 528.834 -438.932 564.285" stroke="#00CECE" stroke-width="0.41" stroke-miterlimit="10"></path> <path d="M1297.95 595.022C1203.09 629.45 1107.02 653.425 1006.61 664.46C890.2 677.24 768.912 682.095 654.53 652.783C592.551 636.913 537.197 606.217 477.105 585.351C423.297 566.653 367.321 554.815 310.843 547.813C197.465 533.729 80.2327 533.368 -33.9281 533.669C-177.221 534.05 -322.984 547.974 -462.162 582.884" stroke="#00CECE" stroke-width="0.41" stroke-miterlimit="10"></path> <path d="M1288.98 622.889C1199.33 652.522 1108.56 665.985 1014.64 672.646C895.461 681.092 772.887 693.692 655.072 667.329C591.447 653.084 535.491 621.946 474.033 601.843C416.09 582.884 355.777 572.611 295.243 566.412C236.476 560.393 177.428 558.106 118.521 554.093C59.5529 550.08 0.96674 540.43 -58.1616 539.547C-202.539 537.38 -345.652 568.538 -485.09 602.846" stroke="#00CECE" stroke-width="0.41" stroke-miterlimit="10"></path> <path d="M1280.99 651.84C1197.73 676.377 1114.31 679.447 1028.17 682.356C904.214 686.57 778.609 707.816 655.454 683.741C590.383 671.021 533.804 639.481 471.142 619.96C411.271 601.322 348.83 592.795 286.529 587.378C225.835 582.101 164.88 579.714 104.306 573.033C42.0052 566.171 -18.5485 548.816 -81.3912 547.011C-227.495 542.818 -367.315 590.648 -507.557 624.314" stroke="#00CECE" stroke-width="0.41" stroke-miterlimit="10"></path> <path d="M1278.6 680.41C1199.61 701.376 1121.79 695.377 1041.08 695.798C912.486 696.44 783.448 725.291 655.313 702.479C589.198 690.702 532.318 658.441 468.572 639.863C406.974 621.906 342.827 615.205 279.04 610.711C214.391 606.157 149.38 604.01 85.2321 594.139C24.0358 584.709 -33.6269 561.296 -95.807 557.744C-247.453 549.077 -384.542 616.048 -529.401 647.266" stroke="#00CECE" stroke-width="0.41" stroke-miterlimit="10"></path> <path d="M1286.49 707.174C1207.93 726.856 1131.85 714.658 1052.19 714.437C920.919 714.076 789.491 746.117 658.546 724.87C590.302 713.795 532.158 679.648 466.223 661.792C404.224 644.999 339.715 640.505 275.828 637.315C208.548 633.944 140.726 632.56 74.3301 620.181C10.4032 608.243 -47.5004 577.426 -112.853 572.391C-268.514 560.373 -402.049 644.036 -550.242 671.743" stroke="#00CECE" stroke-width="0.41" stroke-miterlimit="10"></path> <path d="M1312.61 729.725C1227.14 747.541 1141.27 743.167 1054.55 744.291C922.324 746.016 790.756 766.079 659.088 743.569C589.559 731.671 527.901 700.132 460.1 683.179C397.598 667.53 333.029 663.718 268.861 661.691C203.91 659.645 138.598 659.484 74.1895 649.854C10.3028 640.304 -49.1869 615.847 -114.158 612.095C-272.891 602.967 -417.73 666.807 -570.098 697.745" stroke="#00CECE" stroke-width="0.41" stroke-miterlimit="10"></path> <path d="M-459.993 1007.58C-454.532 946.406 -418.975 903.572 -394.681 849.321C-368.861 791.68 -366.954 728.18 -354.405 667.148C-345.391 623.331 -330.212 595.042 -292.526 570.585C-266.928 553.973 -238.598 542.416 -211.012 529.636C-159.693 505.902 -117.009 457.81 -73.1192 422.239C-47.42 401.413 -5.23707 377.678 11.5879 348.166" stroke="#00CECE" stroke-width="0.41" stroke-miterlimit="10"></path> <path d="M-397.271 1007.6C-388.839 944.34 -343.805 908.086 -316.941 853.133C-288.431 794.81 -293.711 725.091 -287.286 662.012C-284.757 637.134 -283.351 603.368 -266.165 583.606C-257.371 573.494 -244.24 565.75 -232.595 559.45C-206.976 545.626 -178.587 538.003 -151.321 528.192C-123.012 518 -105.103 497.736 -83.2386 477.593C-61.8762 457.931 -40.3329 438.47 -18.8098 418.968C5.10251 397.28 44.2135 371.84 58.0469 341.725" stroke="#00CECE" stroke-width="0.41" stroke-miterlimit="10"></path> <path d="M-330.995 1007.6C-320.374 946.306 -272.369 916.372 -241.59 866.074C-203.664 804.099 -219.545 718.209 -217.417 648.911C-216.694 625.638 -217.898 593.517 -203.583 573.975C-196.074 563.723 -182.783 556.862 -171.539 551.605C-146.081 539.708 -118.093 535.113 -91.3096 527.208C-63.0404 518.862 -46.4564 497.635 -25.9372 477.412C-6.76315 458.492 12.471 439.613 31.5647 420.593C54.0315 398.203 91.7372 370.777 103.442 340.14" stroke="#00CECE" stroke-width="0.41" stroke-miterlimit="10"></path> <path d="M-261.507 1007.6C-248.557 943.357 -191.255 919.301 -159.212 866.616C-121.546 804.701 -144.876 713.895 -147.747 645.861C-149.595 602.024 -150.418 566.151 -107.07 546.931C-83.1781 536.337 -56.7762 533.348 -31.9001 525.904C-4.25339 517.638 11.8287 495.649 31.324 475.426C49.6547 456.406 67.9253 437.326 85.9348 417.985C105.932 396.518 137.153 371.038 147.894 342.929" stroke="#00CECE" stroke-width="0.41" stroke-miterlimit="10"></path> <path d="M-189.167 1007.6C-175.655 941.33 -111.106 922.271 -79.1826 867.579C-41.999 803.918 -72.8582 710.946 -79.4838 642.732C-83.6197 600.118 -82.917 568.298 -42.4407 547.693C-20.8373 536.698 3.45653 532.405 25.863 523.437C49.936 513.786 64.8937 494.425 82.3812 475.927C99.8286 457.489 117.095 438.871 134.081 419.992C152.753 399.226 180.139 375.632 191.462 349.55" stroke="#00CECE" stroke-width="0.41" stroke-miterlimit="10"></path> <path d="M-114.278 1007.6C-108.074 972.669 -93.1365 954.793 -66.2728 932.161C-41.9388 911.657 -14.8944 892.637 -0.719643 863.024C27.5897 803.838 0.806199 727.237 -10.5577 666.787C-18.7493 623.19 -21.5201 587.939 15.2419 558.326C35.2793 542.176 60.055 533.368 81.3372 519.123C119.484 493.603 151.107 452.795 181.905 419.028C199.694 399.527 217.162 379.745 234.248 359.642" stroke="#00CECE" stroke-width="0.41" stroke-miterlimit="10"></path> <path d="M-37.1806 1007.6C-29.9326 972.328 -14.9949 951.703 10.3831 926.524C32.9703 904.093 59.0912 882.064 70.8968 851.428C92.721 794.689 65.0342 724.689 54.875 668.432C47.7675 629.129 52.5258 601.903 78.1246 571.407C96.7967 549.178 121.372 533.127 142.072 513.024C172.971 483.01 201.762 450.006 231.236 418.507C244.648 404.162 259.866 382.474 276.35 372.542" stroke="#00CECE" stroke-width="0.41" stroke-miterlimit="10"></path> <path d="M41.7844 1007.6C53.7908 944.3 101.957 909.892 128.62 854.457C154.419 800.789 132.876 735.925 123.641 680.41C116.915 640.043 122.135 610.972 145.003 577.206C161.346 553.07 182.849 533.408 201.019 510.777C225.976 479.679 252.197 450.347 279.823 421.496C287.092 413.892 307.591 386.105 317.79 387.83" stroke="#00CECE" stroke-width="0.41" stroke-miterlimit="10"></path> <path d="M122.255 1007.58C127.776 969.278 139.722 938.823 158.214 904.956C170.582 882.325 183.973 859.914 192.165 835.317C209.813 782.29 194.735 725.953 190.338 672.084C185.057 607.481 225.453 563.021 258.642 512.583C266.713 500.324 341.983 393.789 358.648 405.024" stroke="#00CECE" stroke-width="0.41" stroke-miterlimit="10"></path> <path d="M203.91 1007.58C209.893 939.103 239.468 881.382 253.06 815.033C262.135 770.714 259.264 726.495 259.063 681.654C258.802 618.917 286.831 571.969 315.521 518.702C320.36 509.734 387.7 408.997 399.024 423.663" stroke="#00CECE" stroke-width="0.41" stroke-miterlimit="10"></path> <path d="M286.409 1007.56C289.842 898.997 313.654 790.556 326.986 682.717C333.812 627.464 350.717 579.995 372.22 529.295C375.654 521.17 428.257 427.997 439.018 443.164" stroke="#00CECE" stroke-width="0.41" stroke-miterlimit="10"></path> <path d="M369.409 1007.56C368.405 940.327 367.924 872.674 372.501 805.543C375.332 764.113 385.793 723.646 396.072 683.54C407.958 637.154 415.327 590.648 429.22 544.643C431.589 536.799 465.601 451.37 478.651 463.067" stroke="#00CECE" stroke-width="0.41" stroke-miterlimit="10"></path> <path d="M452.591 1007.58C449.398 941.15 440.143 875.022 438.356 808.573C437.292 769.009 449.74 735.784 463.473 699.51C479.434 657.297 479.093 609.347 487.164 564.947C489.312 553.11 501.72 482.909 518.104 482.929" stroke="#00CECE" stroke-width="0.41" stroke-miterlimit="10"></path> <path d="M535.611 1007.6C531.575 942.815 513.767 880.138 509.35 815.635C506.84 778.759 517.602 753.821 532.258 721.479C549.605 683.239 543.301 632.018 546.493 590.467C548.722 561.296 550.047 530.679 557.315 502.17" stroke="#00CECE" stroke-width="0.41" stroke-miterlimit="10"></path> <path d="M618.11 1007.6C613.351 948.031 594.498 891.012 589.519 831.826C586.648 797.659 598.253 772.78 609.075 741.863C622.326 703.984 612.448 658.06 611.745 618.556C611.183 587.317 612.568 548.676 596.486 520.347" stroke="#00CECE" stroke-width="0.41" stroke-miterlimit="10"></path> <path d="M699.765 1007.6C695.348 954.592 676.736 904.635 671.837 852.11C668.886 820.47 678.041 791.901 684.365 761.385C693.179 718.931 681.735 680.35 675.331 638.679C669.287 599.375 662.501 566.974 635.577 536.919" stroke="#00CECE" stroke-width="0.41" stroke-miterlimit="10"></path> <path d="M780.236 1007.62C776.943 962.878 761.523 923.474 755.58 879.596C750.441 841.617 758.733 803.557 761.704 765.798C765.177 721.84 750.461 691.746 737.43 651.981C728.917 626.019 724.541 601.121 706.732 579.252C697.436 567.836 685.831 560.674 674.768 551.465" stroke="#00CECE" stroke-width="0.41" stroke-miterlimit="10"></path> <path d="M859.201 1007.62C857.012 969.82 844.504 939.906 838.26 903.431C831.092 861.519 836.613 817.12 836.814 774.847C836.935 747.922 836.814 718.891 823.683 694.535C816.717 681.594 804.811 672.285 797.663 659.565C783.729 634.827 779.131 610.089 757.066 590.006C744.096 578.209 729.199 571.668 714.14 563.422" stroke="#00CECE" stroke-width="0.41" stroke-miterlimit="10"></path> <path d="M936.278 1007.62C935.395 987.937 934.893 972.067 929.211 953.729C925.758 942.574 920.578 932.182 918.148 920.665C908.672 875.845 912.466 827.272 910.298 781.648C908.973 753.721 910.177 717.467 892.67 693.612C882.852 680.25 866.73 674.532 856.249 662.133C846.431 650.536 842.717 634.847 833.602 622.448C825.35 611.233 815.251 601.823 803.726 594.039C788.287 583.606 771.221 577.948 753.673 572.35" stroke="#00CECE" stroke-width="0.41" stroke-miterlimit="10"></path> <path d="M1011.17 1007.6C1010.28 986.392 1009.86 971.425 1003.1 952.104C999.683 942.394 995.326 933.747 992.957 923.514C981.714 874.761 984.404 821.313 979.525 771.597C976.774 743.589 976.875 706.271 954.187 685.807C942.02 674.813 924.754 672.144 912.707 661.23C901.905 651.439 897.589 635.489 888.092 624.274C877.371 611.594 863.818 601.542 849.021 594.039C831.875 585.351 812.661 579.593 793.507 577.707" stroke="#00CECE" stroke-width="0.41" stroke-miterlimit="10"></path> <path d="M1083.53 1007.6C1082.58 987.495 1082.34 969.559 1075.31 950.74C1070.42 937.639 1065.16 927.126 1062.53 913.041C1054.05 867.799 1050.88 821.313 1042.71 775.87C1036.85 743.228 1035.04 706.332 1009.4 682.256C997.414 671 981.493 665.483 968.764 655.311C955.553 644.778 947.963 629.129 935.555 617.552C924.071 606.839 910.519 598.412 896.203 592.052C878.696 584.248 853.237 574.497 833.762 578.971" stroke="#00CECE" stroke-width="0.41" stroke-miterlimit="10"></path> <path d="M1153.02 1007.6C1151.25 970.362 1140.27 943.698 1132.05 908.668C1120.29 858.55 1109.55 810.599 1093.14 761.485C1083.83 733.597 1077.24 706.151 1058.79 682.657C1047.99 668.914 1034.6 658.581 1021.63 647.045C994.744 623.13 975.55 598.814 940.836 585.11C923.991 578.47 892.067 566.452 874.459 575.721" stroke="#00CECE" stroke-width="0.41" stroke-miterlimit="10"></path> <path d="M1219.27 1007.6C1215.52 923.876 1185.82 842.66 1144.94 770.313C1120.51 727.057 1104.65 674.672 1071.86 636.492C1048.05 608.765 1019.38 586.836 984.805 574.417C968.422 568.538 931.921 555.337 915.638 567.435" stroke="#00CECE" stroke-width="0.41" stroke-miterlimit="10"></path> <path d="M1281.99 1007.6C1280.23 963.701 1271.79 924.798 1260.39 882.706C1246.3 830.763 1214.71 798.321 1180.5 758.556C1159.96 734.701 1144.96 709.963 1136.71 679.467C1131.65 660.768 1130.19 640.886 1120.07 623.913C1101.5 592.775 1061.5 571.528 1028.23 559.891C1012.49 554.394 972.418 539.748 957.48 553.612" stroke="#00CECE" stroke-width="0.41" stroke-miterlimit="10"></path> <path d="M1340.82 1007.6C1339.11 958.083 1331.1 911.858 1318.15 864.108C1305.42 817.2 1264.63 791.62 1227.9 763.19C1195.18 737.851 1173.55 715.761 1170.98 673.709C1169.68 652.522 1174.66 629.831 1166.73 609.587C1153.62 576.162 1102.78 553.371 1071.18 541.855C1055.4 536.096 1015.26 520.166 999.964 533.769" stroke="#00CECE" stroke-width="0.41" stroke-miterlimit="10"></path> <path d="M1395.41 1007.6C1393.93 955.716 1386.78 905.879 1374.23 855.621C1360.13 799.163 1301.69 779.482 1255.95 752.537C1218.77 730.648 1201.34 710.204 1205.82 665.523C1208.15 642.23 1218.31 617.051 1212.36 593.718C1203.39 558.407 1144.76 532.906 1113.68 520.186C1097.56 513.586 1059.71 495.73 1043.21 507.406" stroke="#00CECE" stroke-width="0.41" stroke-miterlimit="10"></path> <path d="M1445.44 1007.6C1444.22 953.89 1438.34 901.646 1425.93 849.341C1418.32 817.26 1404.87 801.39 1375.98 784.979C1353.33 772.098 1328.73 762.97 1305 752.417C1264.3 734.3 1234.77 716.122 1240.59 667.851C1244.17 638.318 1262.9 606.638 1257.52 576.584C1251.07 540.53 1186.16 509.954 1155.91 495.168C1138.9 486.862 1107.26 468.705 1087.3 474.001" stroke="#00CECE" stroke-width="0.41" stroke-miterlimit="10"></path> </g> </mask> <g mask="url(#mask0_150_768)"> <g filter="url(#filter0_b_150_768)"> <mask id="path-51-inside-1_150_768" fill="white"> <path fill-rule="evenodd" clip-rule="evenodd" d="M1159 10C1159 4.47715 1154.52 0 1149 0H9C3.47715 0 -1 4.47715 -1 10V76.5999C-1 79.725 0.460998 82.6705 2.9491 84.5614L35.0509 108.959C37.539 110.85 39 113.796 39 116.921L39 259.079C39 262.204 37.539 265.15 35.0509 267.041L2.9491 291.439C0.461001 293.33 -1 296.275 -1 299.4V505.511C-1 508.163 0.0535706 510.707 1.92893 512.582L106.418 617.071C108.293 618.946 110.837 620 113.489 620H1149C1154.52 620 1159 615.523 1159 610V515.397C1159 513.031 1158.16 510.741 1156.63 508.935L1122.37 468.466C1120.84 466.66 1120 464.371 1120 462.004V232.995C1120 230.629 1120.84 228.34 1122.37 226.534L1156.63 186.065C1158.16 184.259 1159 181.969 1159 179.603V10Z"></path> </mask> <path fill-rule="evenodd" clip-rule="evenodd" d="M1159 10C1159 4.47715 1154.52 0 1149 0H9C3.47715 0 -1 4.47715 -1 10V76.5999C-1 79.725 0.460998 82.6705 2.9491 84.5614L35.0509 108.959C37.539 110.85 39 113.796 39 116.921L39 259.079C39 262.204 37.539 265.15 35.0509 267.041L2.9491 291.439C0.461001 293.33 -1 296.275 -1 299.4V505.511C-1 508.163 0.0535706 510.707 1.92893 512.582L106.418 617.071C108.293 618.946 110.837 620 113.489 620H1149C1154.52 620 1159 615.523 1159 610V515.397C1159 513.031 1158.16 510.741 1156.63 508.935L1122.37 468.466C1120.84 466.66 1120 464.371 1120 462.004V232.995C1120 230.629 1120.84 228.34 1122.37 226.534L1156.63 186.065C1158.16 184.259 1159 181.969 1159 179.603V10Z" fill="white"></path> <path d="M1156.63 186.065L1155.87 185.418L1156.63 186.065ZM1122.37 226.534L1123.13 227.18L1122.37 226.534ZM1122.37 468.466L1123.13 467.82L1122.37 468.466ZM1156.63 508.935L1155.87 509.582L1156.63 508.935ZM106.418 617.071L105.711 617.778L106.418 617.071ZM1.92893 512.582L2.63604 511.875L1.92893 512.582ZM2.9491 291.439L2.34401 290.642L2.9491 291.439ZM39 259.079L38 259.079L39 259.079ZM35.0509 267.041L35.656 267.837L35.0509 267.041ZM35.0509 108.959L34.4458 109.755L35.0509 108.959ZM39 116.921L40 116.921L39 116.921ZM9 1H1149V-1H9V1ZM0 76.5999V10H-2V76.5999H0ZM2.34401 85.3576L34.4458 109.755L35.656 108.163L3.55419 83.7653L2.34401 85.3576ZM38 116.921L38 259.079L40 259.079L40 116.921L38 116.921ZM34.4458 266.245L2.34401 290.642L3.55419 292.235L35.656 267.837L34.4458 266.245ZM0 505.511V299.4H-2V505.511H0ZM107.125 616.364L2.63604 511.875L1.22183 513.289L105.711 617.778L107.125 616.364ZM1149 619H113.489V621H1149V619ZM1158 515.397V610H1160V515.397H1158ZM1121.6 469.112L1155.87 509.582L1157.4 508.289L1123.13 467.82L1121.6 469.112ZM1119 232.995V462.004H1121V232.995H1119ZM1155.87 185.418L1121.6 225.888L1123.13 227.18L1157.4 186.711L1155.87 185.418ZM1158 10V179.603H1160V10H1158ZM1157.4 186.711C1159.08 184.724 1160 182.206 1160 179.603H1158C1158 181.733 1157.24 183.793 1155.87 185.418L1157.4 186.711ZM1121 232.995C1121 230.866 1121.76 228.805 1123.13 227.18L1121.6 225.888C1119.92 227.874 1119 230.393 1119 232.995H1121ZM1123.13 467.82C1121.76 466.195 1121 464.134 1121 462.004H1119C1119 464.607 1119.92 467.126 1121.6 469.112L1123.13 467.82ZM1160 515.397C1160 512.794 1159.08 510.276 1157.4 508.289L1155.87 509.582C1157.24 511.207 1158 513.267 1158 515.397H1160ZM1149 621C1155.08 621 1160 616.075 1160 610H1158C1158 614.971 1153.97 619 1149 619V621ZM105.711 617.778C107.774 619.841 110.571 621 113.489 621V619C111.102 619 108.813 618.052 107.125 616.364L105.711 617.778ZM-2 505.511C-2 508.429 -0.841072 511.226 1.22183 513.289L2.63604 511.875C0.948214 510.187 0 507.898 0 505.511H-2ZM2.34401 290.642C-0.3929 292.722 -2 295.962 -2 299.4H0C0 296.587 1.3149 293.937 3.55419 292.235L2.34401 290.642ZM38 259.079C38 261.892 36.6851 264.543 34.4458 266.245L35.656 267.837C38.3929 265.757 40 262.517 40 259.079L38 259.079ZM34.4458 109.755C36.6851 111.457 38 114.108 38 116.921L40 116.921C40 113.483 38.3929 110.243 35.656 108.163L34.4458 109.755ZM-2 76.5999C-2 80.0375 -0.392902 83.2775 2.34401 85.3576L3.55419 83.7653C1.3149 82.0634 0 79.4125 0 76.5999H-2ZM1149 1C1153.97 1 1158 5.02944 1158 10H1160C1160 3.92487 1155.08 -1 1149 -1V1ZM9 -1C2.92487 -1 -2 3.92487 -2 10H0C0 5.02944 4.02944 1 9 1V-1Z" fill="white" fill-opacity="0.29" mask="url(#path-51-inside-1_150_768)"></path> </g> </g> </g> </g> <defs> <filter id="filter0_b_150_768" x="-61" y="-60" width="1280" height="740" filterUnits="userSpaceOnUse" color-interpolation-filters="sRGB"> <feFlood flood-opacity="0" result="BackgroundImageFix"></feFlood> <feGaussianBlur in="BackgroundImageFix" stdDeviation="30"></feGaussianBlur> <feComposite in2="SourceAlpha" operator="in" result="effect1_backgroundBlur_150_768"></feComposite> <feBlend mode="normal" in="SourceGraphic" in2="effect1_backgroundBlur_150_768" result="shape"></feBlend> </filter> <clipPath id="clip0_150_768"> <rect width="1160" height="620" fill="white"></rect> </clipPath> <clipPath id="clip1_150_768"> <rect width="2160" height="668" fill="white" transform="matrix(-1 0 0 1 1491 340)"></rect> </clipPath> </defs> </svg> 