<?xml version="1.0" encoding="UTF-8"?> <svg xmlns="http://www.w3.org/2000/svg" width="2194" height="916" viewBox="0 0 2194 916" fill="none"> <g filter="url(#filter0_f_190_169)"> <path d="M195.105 71.3152L100.723 111.385C52.0699 132.04 58.9951 203.068 110.721 213.937L163.122 224.947C180.047 228.503 194.244 239.95 201.308 255.736L258.988 384.629C261.691 390.668 265.48 396.159 270.168 400.829L420.218 550.299C435.711 565.732 458.982 570.297 479.158 561.862L660.873 485.885C669.903 482.109 677.737 475.951 683.538 468.067L747.862 380.643C768.462 352.645 809.763 351.119 832.372 377.52L981.749 551.946C984.254 554.87 986.438 558.054 988.265 561.443L1127.89 820.4C1140.49 843.777 1168.23 854.519 1193.29 845.731L1374.16 782.311C1382.05 779.545 1389.19 774.987 1395.01 768.994L1478.6 683.015C1490.89 670.381 1508.56 664.534 1525.95 667.351L1626.58 683.646C1629.4 684.103 1632.18 684.782 1634.89 685.678L1801.65 740.781C1813.11 744.568 1825.51 744.406 1836.87 740.32L2067.56 657.335C2072.63 655.514 2077.12 652.397 2080.61 648.296L2121.16 600.543C2138.07 580.639 2113.01 552.829 2091.46 567.579C2090.42 568.287 2089.39 568.885 2088.24 569.391C1993.16 611.368 1708 581.563 1699.49 578.751C1694.75 577.187 1691.3 542.332 1688.96 502.087C1686.55 460.58 1640.93 435.499 1605.36 457.025L1512.39 513.281C1509.8 514.851 1507.08 516.2 1504.25 517.313L1306.55 595.313C1280.14 605.733 1250.17 593.92 1237.97 568.281L1161.61 407.786C1159.08 402.469 1155.7 397.603 1151.6 393.378L960.052 196.007C952.582 188.31 942.99 183.012 932.497 180.788L623.78 115.359C594.94 109.246 566.527 127.395 559.946 156.132L532.627 275.437C525.066 308.46 489.316 326.445 458.294 312.834L333.931 258.269C319.474 251.926 308.518 239.575 303.943 224.466L267.891 105.375C258.585 74.6356 224.668 58.7643 195.105 71.3152Z" fill="url(#paint0_linear_190_169)"></path> </g> <defs> <filter id="filter0_f_190_169" x="0.91317" y="0.0995102" width="2192.71" height="915.581" filterUnits="userSpaceOnUse" color-interpolation-filters="sRGB"> <feFlood flood-opacity="0" result="BackgroundImageFix"></feFlood> <feBlend mode="normal" in="SourceGraphic" in2="BackgroundImageFix" result="shape"></feBlend> <feGaussianBlur stdDeviation="33.45" result="effect1_foregroundBlur_190_169"></feGaussianBlur> </filter> <linearGradient id="paint0_linear_190_169" x1="224.492" y1="156.744" x2="1782.22" y2="671.464" gradientUnits="userSpaceOnUse"> <stop stop-color="#D1F373"></stop> <stop offset="0.285" stop-color="#3783FF"></stop> <stop offset="0.51" stop-color="#2339E2"></stop> <stop offset="0.795" stop-color="#9529FF"></stop> <stop offset="1" stop-color="#F0A692"></stop> </linearGradient> </defs> </svg> 