<?xml version="1.0" encoding="UTF-8"?> <svg xmlns="http://www.w3.org/2000/svg" width="300" height="680" viewBox="0 0 300 680" fill="none"> <mask id="path-1-inside-1_194_187" fill="white"> <path fill-rule="evenodd" clip-rule="evenodd" d="M300 10C300 4.47715 295.523 0 290 0H10C4.47715 0 0 4.47714 0 9.99999V79.4003C0 82.5254 1.461 85.4709 3.9491 87.3619L6.0509 88.9593C8.539 90.8503 10 93.7957 10 96.9208L9.99999 239.079C9.99999 242.204 8.53899 245.15 6.05089 247.041L3.9491 248.638C1.461 250.529 0 253.475 0 256.6V645.511C0 648.163 1.05356 650.707 2.92893 652.582L27.4178 677.071C29.2931 678.946 31.8366 680 34.4888 680H290C295.523 680 300 675.523 300 670V621.145C300 618.779 299.161 616.489 297.632 614.683L292.368 608.466C290.839 606.66 290 604.371 290 602.005V372.995C290 370.629 290.839 368.34 292.368 366.534L297.632 360.317C299.161 358.511 300 356.221 300 353.855V10Z"></path> </mask> <path fill-rule="evenodd" clip-rule="evenodd" d="M300 10C300 4.47715 295.523 0 290 0H10C4.47715 0 0 4.47714 0 9.99999V79.4003C0 82.5254 1.461 85.4709 3.9491 87.3619L6.0509 88.9593C8.539 90.8503 10 93.7957 10 96.9208L9.99999 239.079C9.99999 242.204 8.53899 245.15 6.05089 247.041L3.9491 248.638C1.461 250.529 0 253.475 0 256.6V645.511C0 648.163 1.05356 650.707 2.92893 652.582L27.4178 677.071C29.2931 678.946 31.8366 680 34.4888 680H290C295.523 680 300 675.523 300 670V621.145C300 618.779 299.161 616.489 297.632 614.683L292.368 608.466C290.839 606.66 290 604.371 290 602.005V372.995C290 370.629 290.839 368.34 292.368 366.534L297.632 360.317C299.161 358.511 300 356.221 300 353.855V10Z" fill="white" fill-opacity="0.05"></path> <path d="M297.632 360.317L298.395 360.963L297.632 360.317ZM292.368 366.534L291.605 365.888L292.368 366.534ZM292.368 608.466L293.131 607.82L292.368 608.466ZM297.632 614.683L296.869 615.33L297.632 614.683ZM2.92893 652.582L2.22182 653.289L2.92893 652.582ZM3.9491 248.638L3.34401 247.842L3.9491 248.638ZM6.05089 247.041L5.4458 246.245L6.05089 247.041ZM6.0509 88.9593L6.65599 88.1631L6.0509 88.9593ZM3.9491 87.3619L3.34401 88.158L3.9491 87.3619ZM10 1H290V-1H10V1ZM1 79.4003V9.99999H-1V79.4003H1ZM3.34401 88.158L5.44581 89.7554L6.65599 88.1631L4.55419 86.5657L3.34401 88.158ZM9 96.9208L8.99999 239.079L11 239.079L11 96.9208L9 96.9208ZM5.4458 246.245L3.34401 247.842L4.55419 249.434L6.65598 247.837L5.4458 246.245ZM1 645.511V256.6H-1V645.511H1ZM28.1249 676.364L3.63604 651.875L2.22182 653.289L26.7106 677.778L28.1249 676.364ZM290 679H34.4888V681H290V679ZM299 621.145V670H301V621.145H299ZM291.605 609.112L296.869 615.33L298.395 614.037L293.131 607.82L291.605 609.112ZM289 372.995V602.005H291V372.995H289ZM296.869 359.67L291.605 365.888L293.131 367.18L298.395 360.963L296.869 359.67ZM299 10V353.855H301V10H299ZM298.395 360.963C300.077 358.976 301 356.458 301 353.855H299C299 355.985 298.245 358.045 296.869 359.67L298.395 360.963ZM291 372.995C291 370.866 291.755 368.805 293.131 367.18L291.605 365.888C289.923 367.874 289 370.393 289 372.995H291ZM293.131 607.82C291.755 606.195 291 604.134 291 602.005H289C289 604.607 289.923 607.126 291.605 609.112L293.131 607.82ZM301 621.145C301 618.542 300.077 616.024 298.395 614.037L296.869 615.33C298.245 616.955 299 619.016 299 621.145H301ZM290 681C296.075 681 301 676.075 301 670H299C299 674.971 294.971 679 290 679V681ZM26.7106 677.778C28.7735 679.841 31.5714 681 34.4888 681V679C32.1019 679 29.8127 678.052 28.1249 676.364L26.7106 677.778ZM-1 645.511C-1 648.429 0.158921 651.226 2.22182 653.289L3.63604 651.875C1.94821 650.187 1 647.898 1 645.511H-1ZM3.34401 247.842C0.607097 249.922 -1 253.162 -1 256.6H1C1 253.787 2.3149 251.136 4.55419 249.434L3.34401 247.842ZM8.99999 239.079C8.99999 241.892 7.68509 244.543 5.4458 246.245L6.65598 247.837C9.39289 245.757 11 242.517 11 239.079L8.99999 239.079ZM5.44581 89.7554C7.6851 91.4573 9 94.1082 9 96.9208L11 96.9208C11 93.4832 9.3929 90.2432 6.65599 88.1631L5.44581 89.7554ZM-1 79.4003C-1 82.8379 0.607099 86.0779 3.34401 88.158L4.55419 86.5657C2.3149 84.8638 1 82.2129 1 79.4003H-1ZM290 1C294.971 1 299 5.02944 299 10H301C301 3.92487 296.075 -1 290 -1V1ZM10 -1C3.92487 -1 -1 3.92485 -1 9.99999H1C1 5.02943 5.02944 1 10 1V-1Z" fill="white" fill-opacity="0.29" mask="url(#path-1-inside-1_194_187)"></path> </svg> 