<?xml version="1.0" encoding="UTF-8"?> <svg xmlns="http://www.w3.org/2000/svg" width="622" height="344" viewBox="0 0 622 344" fill="none"> <mask id="path-1-inside-1_186_130" fill="white"> <path fill-rule="evenodd" clip-rule="evenodd" d="M622 10C622 4.47715 617.523 0 612 0H10C4.47715 0 0 4.47716 0 10V40.3948C0 43.4619 1.40748 46.3594 3.81834 48.2553L17.63 59.1171C20.0409 61.0131 21.4484 63.9105 21.4484 66.9776L21.4484 141.641C21.4484 144.709 20.0409 147.606 17.63 149.502L3.81835 160.364C1.40748 162.26 0 165.157 0 168.224V278.733C0 281.326 1.00724 283.818 2.80923 285.682L56.2205 340.949C58.1047 342.899 60.6998 344 63.4112 344H612C617.523 344 622 339.523 622 334V278.46C622 275.693 620.854 273.051 618.835 271.16L603.717 257.005C601.697 255.114 600.552 252.471 600.552 249.705V109.868C600.552 107.102 601.697 104.459 603.717 102.569L618.835 88.4133C620.854 86.5226 622 83.8799 622 81.1136V10Z"></path> </mask> <path fill-rule="evenodd" clip-rule="evenodd" d="M622 10C622 4.47715 617.523 0 612 0H10C4.47715 0 0 4.47716 0 10V40.3948C0 43.4619 1.40748 46.3594 3.81834 48.2553L17.63 59.1171C20.0409 61.0131 21.4484 63.9105 21.4484 66.9776L21.4484 141.641C21.4484 144.709 20.0409 147.606 17.63 149.502L3.81835 160.364C1.40748 162.26 0 165.157 0 168.224V278.733C0 281.326 1.00724 283.818 2.80923 285.682L56.2205 340.949C58.1047 342.899 60.6998 344 63.4112 344H612C617.523 344 622 339.523 622 334V278.46C622 275.693 620.854 273.051 618.835 271.16L603.717 257.005C601.697 255.114 600.552 252.471 600.552 249.705V109.868C600.552 107.102 601.697 104.459 603.717 102.569L618.835 88.4133C620.854 86.5226 622 83.8799 622 81.1136V10Z" fill="white" fill-opacity="0.05"></path> <path d="M618.835 88.4133L619.518 89.1433L618.835 88.4133ZM603.717 102.569L603.033 101.839L603.717 102.569ZM603.717 257.005L604.4 256.275L603.717 257.005ZM618.835 271.16L618.151 271.89L618.835 271.16ZM56.2205 340.949L56.9395 340.254L56.2205 340.949ZM2.80923 285.682L2.09015 286.377L2.80923 285.682ZM3.81835 160.364L4.43651 161.15L3.81835 160.364ZM17.63 149.502L18.2482 150.288L17.63 149.502ZM17.63 59.1171L18.2482 58.3311L17.63 59.1171ZM21.4484 66.9776L20.4484 66.9776L21.4484 66.9776ZM3.81834 48.2553L3.20018 49.0414L3.81834 48.2553ZM10 1H612V-1H10V1ZM1 40.3948V10H-1V40.3948H1ZM3.20018 49.0414L17.0119 59.9032L18.2482 58.3311L4.43651 47.4693L3.20018 49.0414ZM20.4484 66.9776L20.4484 141.641L22.4484 141.641L22.4484 66.9776L20.4484 66.9776ZM17.0118 148.716L3.20018 159.578L4.43651 161.15L18.2482 150.288L17.0118 148.716ZM1 278.733V168.224H-1V278.733H1ZM56.9395 340.254L3.5283 284.987L2.09015 286.377L55.5014 341.644L56.9395 340.254ZM612 343H63.4112V345H612V343ZM621 278.46V334H623V278.46H621ZM603.033 257.735L618.151 271.89L619.518 270.43L604.4 256.275L603.033 257.735ZM599.552 109.868V249.705H601.552V109.868H599.552ZM618.151 87.6833L603.033 101.839L604.4 103.299L619.518 89.1433L618.151 87.6833ZM621 10V81.1136H623V10H621ZM619.518 89.1433C621.74 87.0635 623 84.1565 623 81.1136H621C621 83.6033 619.969 85.9817 618.151 87.6833L619.518 89.1433ZM601.552 109.868C601.552 107.379 602.583 105 604.4 103.299L603.033 101.839C600.812 103.918 599.552 106.825 599.552 109.868H601.552ZM604.4 256.275C602.583 254.573 601.552 252.195 601.552 249.705H599.552C599.552 252.748 600.812 255.655 603.033 257.735L604.4 256.275ZM623 278.46C623 275.417 621.74 272.51 619.518 270.43L618.151 271.89C619.969 273.591 621 275.97 621 278.46H623ZM612 345C618.075 345 623 340.075 623 334H621C621 338.971 616.971 343 612 343V345ZM55.5014 341.644C57.574 343.789 60.4287 345 63.4112 345V343C60.971 343 58.6353 342.009 56.9395 340.254L55.5014 341.644ZM-1 278.733C-1 281.585 0.107966 284.326 2.09015 286.377L3.5283 284.987C1.90652 283.309 1 281.067 1 278.733H-1ZM3.20018 159.578C0.548225 161.663 -1 164.85 -1 168.224H1C1 165.464 2.26673 162.856 4.43651 161.15L3.20018 159.578ZM20.4484 141.641C20.4484 144.402 19.1816 147.01 17.0118 148.716L18.2482 150.288C20.9001 148.202 22.4484 145.015 22.4484 141.641L20.4484 141.641ZM17.0119 59.9032C19.1816 61.6095 20.4484 64.2172 20.4484 66.9776L22.4484 66.9776C22.4484 63.6038 20.9001 60.4166 18.2482 58.3311L17.0119 59.9032ZM-1 40.3948C-1 43.7686 0.548225 46.9558 3.20018 49.0414L4.43651 47.4693C2.26673 45.7629 1 43.1552 1 40.3948H-1ZM612 1C616.971 1 621 5.02944 621 10H623C623 3.92487 618.075 -1 612 -1V1ZM10 -1C3.92487 -1 -1 3.92488 -1 10H1C1 5.02945 5.02944 1 10 1V-1Z" fill="white" fill-opacity="0.29" mask="url(#path-1-inside-1_186_130)"></path> </svg> 