<?xml version="1.0" encoding="UTF-8"?> <svg xmlns="http://www.w3.org/2000/svg" width="2008" height="1192" viewBox="0 0 2008 1192" fill="none"> <g filter="url(#filter0_f_176_38)"> <path d="M167.094 1124.71L120.973 1124.38C64.6628 1123.98 46.4825 1048.46 96.4426 1022.48L115.386 1012.62C127.575 1006.29 136.89 995.539 141.434 982.573L184.012 861.061C185.941 855.556 188.749 850.4 192.327 845.794L325.996 673.698C336.25 660.496 352.041 652.787 368.757 652.822L554.475 653.215C565.099 653.237 575.479 656.393 584.318 662.286L650.701 706.548C675.38 723.004 708.713 716.472 725.356 691.919L856.63 498.26C858.532 495.455 860.165 492.476 861.509 489.365L970.986 235.786C979.136 216.909 997.298 204.299 1017.83 203.259L1205.7 193.745C1214.21 193.314 1222.7 194.904 1230.48 198.384L1314.92 236.162C1329.38 242.63 1345.95 242.425 1360.24 235.602L1462.05 187L1623.36 85.6003C1631.3 80.6133 1640.39 77.7768 1649.75 77.3695L1881.79 67.2771C1886.81 67.0586 1891.8 68.2207 1896.21 70.6373L1929.06 88.6356C1951.02 100.672 1938.75 134.193 1914.21 129.205C1913.03 128.966 1911.91 128.821 1910.71 128.798C1815.48 126.927 1546.52 241.82 1538.69 246.74C1534.15 249.596 1534.73 280.114 1536.96 313.766C1539.29 348.99 1509.06 378.284 1474.12 373.235L1367.27 357.796C1364.43 357.384 1361.55 357.201 1358.67 357.248L1151.87 360.605C1129.7 360.965 1110 374.839 1102.2 395.591L1043.13 552.658C1041.31 557.503 1038.8 562.061 1035.68 566.191L870.655 784.745C865.827 791.138 859.638 796.377 852.536 800.082L562.294 951.489C534.938 965.76 501.207 954.248 488.283 926.23L463.673 872.877C449.397 841.928 410.373 831.782 382.831 851.857L264.85 937.852C254.064 945.713 246.572 957.292 243.819 970.352L220.316 1081.85C215.021 1106.97 192.768 1124.89 167.094 1124.71Z" fill="url(#paint0_linear_176_38)"></path> </g> <defs> <filter id="filter0_f_176_38" x="0.376366" y="0.351097" width="2007.02" height="1191.26" filterUnits="userSpaceOnUse" color-interpolation-filters="sRGB"> <feFlood flood-opacity="0" result="BackgroundImageFix"></feFlood> <feBlend mode="normal" in="SourceGraphic" in2="BackgroundImageFix" result="shape"></feBlend> <feGaussianBlur stdDeviation="33.45" result="effect1_foregroundBlur_176_38"></feGaussianBlur> </filter> <linearGradient id="paint0_linear_176_38" x1="174.983" y1="1048.93" x2="1607.92" y2="148.218" gradientUnits="userSpaceOnUse"> <stop stop-color="#D1F373"></stop> <stop offset="0.19" stop-color="#3C84FF"></stop> <stop offset="0.325" stop-color="#2339E2"></stop> <stop offset="0.6" stop-color="#3783FF"></stop> <stop offset="0.795" stop-color="#C729FF"></stop> <stop offset="1" stop-color="#F0A692"></stop> <stop offset="1" stop-color="#FF4411"></stop> </linearGradient> </defs> </svg> 