<?xml version="1.0" encoding="UTF-8"?> <svg xmlns="http://www.w3.org/2000/svg" width="1860" height="603" viewBox="0 0 1860 603" fill="none"> <g filter="url(#filter0_f_190_170)"> <path d="M1743.13 88.422L1765.82 101.341C1812.73 128.046 1795.34 199.502 1741.4 201.658C1725.72 202.285 1711.1 209.738 1701.39 222.058L1635.7 305.338C1631.77 310.316 1627 314.564 1621.6 317.886L1476.56 407.141C1459.85 417.42 1438.89 417.834 1421.79 408.221L1290.74 334.534C1281.83 329.525 1274.52 322.09 1269.67 313.093L1238.43 255.158C1222.95 226.453 1185.76 217.914 1159.31 236.994L1013.44 342.223C1010.45 344.381 1007.69 346.84 1005.2 349.561L850.946 518.125C834.77 535.803 808.878 540.706 787.358 530.166L654.599 465.147C646.951 461.402 640.297 455.901 635.181 449.093L586.02 383.678C575.832 370.12 559.865 362.137 542.906 362.12L457.26 362.034L308.564 382.714C297.762 384.216 286.757 382.412 277 377.54L102.733 290.513C98.7889 288.543 95.4486 285.546 93.0642 281.838L70.044 246.033C58.4995 228.077 81.5829 208.118 97.6828 222.136C98.466 222.818 99.2521 223.405 100.148 223.931C171.462 265.799 410.743 277.969 418.203 276.932C421.764 276.437 428.596 257.962 435.872 234.37C447.361 197.115 492.423 181.401 523.239 205.281L582.083 250.881C584.456 252.72 586.979 254.358 589.624 255.777L735.117 333.861C757.777 346.022 785.868 340.516 802.26 320.702L887.693 217.436C891.285 213.094 895.534 209.341 900.287 206.313L1088.41 86.4738C1096.44 81.3601 1105.67 78.4589 1115.18 78.0642L1369.11 67.5228C1399.13 66.2766 1424.4 89.7741 1425.33 119.806L1427.11 177.349C1428.16 211.245 1459.82 235.796 1492.91 228.367L1591.59 206.209C1606.04 202.965 1618.52 193.927 1626.12 181.213L1670.06 107.659C1685.12 82.4331 1717.59 73.8851 1743.13 88.422Z" fill="url(#paint0_linear_190_170)"></path> </g> <defs> <filter id="filter0_f_190_170" x="0.0282211" y="0.575584" width="1859.9" height="601.997" filterUnits="userSpaceOnUse" color-interpolation-filters="sRGB"> <feFlood flood-opacity="0" result="BackgroundImageFix"></feFlood> <feBlend mode="normal" in="SourceGraphic" in2="BackgroundImageFix" result="shape"></feBlend> <feGaussianBlur stdDeviation="33.45" result="effect1_foregroundBlur_190_170"></feGaussianBlur> </filter> <linearGradient id="paint0_linear_190_170" x1="1700.57" y1="144.728" x2="334.895" y2="334.661" gradientUnits="userSpaceOnUse"> <stop stop-color="#D1F373"></stop> <stop offset="0.285" stop-color="#3783FF"></stop> <stop offset="0.51" stop-color="#2339E2"></stop> <stop offset="0.795" stop-color="#9529FF"></stop> <stop offset="1" stop-color="#F0A692"></stop> </linearGradient> </defs> </svg> 