<?xml version="1.0" encoding="UTF-8"?> <svg xmlns="http://www.w3.org/2000/svg" width="188" height="34" viewBox="0 0 188 34" fill="none"> <mask id="path-1-inside-1_150_321" fill="white"> <path fill-rule="evenodd" clip-rule="evenodd" d="M3 34C1.34315 34 0 32.6569 0 31V12.998C0 12.1964 0.320788 11.4282 0.890818 10.8646L11.0036 0.86661C11.5652 0.311389 12.323 0 13.1127 0H185C186.657 0 188 1.34314 188 3V21.2222C188 22.0238 187.679 22.7921 187.109 23.3556L177.219 33.1334C176.658 33.6886 175.9 34 175.11 34H3Z"></path> </mask> <path d="M177.219 33.1334L176.516 32.4223L177.219 33.1334ZM187.109 23.3556L186.406 22.6445L187.109 23.3556ZM-1 12.998V31H1V12.998H-1ZM10.3005 0.15548L0.187758 10.1535L1.59388 11.5757L11.7066 1.57774L10.3005 0.15548ZM185 -1H13.1127V1H185V-1ZM189 21.2222V3H187V21.2222H189ZM177.922 33.8445L187.812 24.0667L186.406 22.6445L176.516 32.4223L177.922 33.8445ZM3 35H175.11V33H3V35ZM176.516 32.4223C176.142 32.7924 175.636 33 175.11 33V35C176.163 35 177.173 34.5848 177.922 33.8445L176.516 32.4223ZM187 21.2222C187 21.7566 186.786 22.2688 186.406 22.6445L187.812 24.0667C188.572 23.3153 189 22.291 189 21.2222H187ZM185 1C186.105 1 187 1.89543 187 3H189C189 0.790859 187.209 -1 185 -1V1ZM11.7066 1.57774C12.081 1.20759 12.5863 1 13.1127 1V-1C12.0598 -1 11.0493 -0.584814 10.3005 0.15548L11.7066 1.57774ZM-1 31C-1 33.2091 0.790861 35 3 35V33C1.89543 33 1 32.1046 1 31H-1ZM1 12.998C1 12.4636 1.21386 11.9514 1.59388 11.5757L0.187758 10.1535C-0.572282 10.9049 -1 11.9292 -1 12.998H1Z" fill="#B7F46A" mask="url(#path-1-inside-1_150_321)"></path> </svg> 