<?xml version="1.0" encoding="UTF-8"?> <svg xmlns="http://www.w3.org/2000/svg" width="347" height="186" viewBox="0 0 347 186" fill="none"> <mask id="path-1-inside-1_150_628" fill="white"> <path fill-rule="evenodd" clip-rule="evenodd" d="M347 10C347 4.47715 342.523 0 337 0H10C4.47715 0 0 4.47715 0 10V176C0 181.523 4.47714 186 9.99998 186H303.627C305.999 186 308.294 185.157 310.102 183.621L343.474 155.27C345.711 153.37 347 150.584 347 147.649V10Z"></path> </mask> <path fill-rule="evenodd" clip-rule="evenodd" d="M347 10C347 4.47715 342.523 0 337 0H10C4.47715 0 0 4.47715 0 10V176C0 181.523 4.47714 186 9.99998 186H303.627C305.999 186 308.294 185.157 310.102 183.621L343.474 155.27C345.711 153.37 347 150.584 347 147.649V10Z" fill="white" fill-opacity="0.05"></path> <path d="M343.474 155.27L344.122 156.032L343.474 155.27ZM310.102 183.621L310.749 184.383L310.102 183.621ZM10 1H337V-1H10V1ZM1 176V10H-1V176H1ZM303.627 185H9.99998V187H303.627V185ZM310.749 184.383L344.122 156.032L342.827 154.508L309.454 182.859L310.749 184.383ZM346 10V147.649H348V10H346ZM344.122 156.032C346.582 153.942 348 150.877 348 147.649H346C346 150.29 344.84 152.798 342.827 154.508L344.122 156.032ZM303.627 187C306.237 187 308.761 186.073 310.749 184.383L309.454 182.859C307.827 184.241 305.762 185 303.627 185V187ZM-1 176C-1 182.075 3.92485 187 9.99998 187V185C5.02942 185 1 180.971 1 176H-1ZM337 1C341.971 1 346 5.02944 346 10H348C348 3.92487 343.075 -1 337 -1V1ZM10 -1C3.92487 -1 -1 3.92487 -1 10H1C1 5.02944 5.02944 1 10 1V-1Z" fill="white" fill-opacity="0.4" mask="url(#path-1-inside-1_150_628)"></path> </svg> 