<?xml version="1.0" encoding="UTF-8"?> <svg xmlns="http://www.w3.org/2000/svg" width="201" height="68" viewBox="0 0 201 68" fill="none"> <path d="M168 67.5L35.0303 67.5C15.9597 67.5 0.5 52.0402 0.5 32.9697C0.5 15.0372 15.0372 0.5 32.9697 0.5H198C199.381 0.5 200.5 1.61929 200.5 3V35C200.5 52.9493 185.949 67.5 168 67.5Z" fill="white" fill-opacity="0.02" stroke="#B7F46A"></path> <path d="M43.824 14.6H45.624V23H43.824V19.424H38.916V23H37.116V14.6H38.916V18.128H43.824V14.6ZM47.2027 20.864C47.2027 19.472 48.5467 18.872 50.0107 18.872C51.5827 18.872 52.7707 19.58 53.5867 20.12C53.5987 19.904 53.5867 19.424 53.5867 19.232C53.5867 18.032 52.9987 17.54 51.4507 17.54H47.9467L47.9347 16.244H52.0867C54.3667 16.244 55.3867 17.192 55.3867 19.4V21.668H56.5747V23.012H54.4627V23L54.2347 23.012C53.8507 23.012 53.6827 22.592 53.6827 22.316C53.6827 21.932 53.9107 21.224 54.0307 21.044L53.6707 20.852C52.8667 22.652 51.2467 23.12 50.1187 23.12C48.6427 23.12 47.2027 22.304 47.2027 20.864ZM49.0027 20.888C49.0027 21.68 49.8907 22.088 50.8027 22.088C52.5187 22.088 53.2507 20.66 53.2507 20.66C53.2507 20.66 51.8707 19.76 50.6587 19.76C50.1427 19.76 49.0027 19.928 49.0027 20.888ZM64.1225 20.204H65.8025C65.5145 22.16 63.4625 23.18 61.4465 23.18C59.2265 23.18 57.2825 21.944 57.2825 19.664C57.2825 17.216 59.4665 16.112 61.5065 16.112C63.4145 16.112 65.3945 17.06 65.5385 19.088H63.8705C63.8465 17.96 62.8865 17.156 61.4225 17.156C59.6705 17.156 58.9145 18.32 58.9145 19.664C58.9145 21.392 59.9945 22.148 61.4225 22.148C62.9105 22.148 64.0025 21.296 64.1225 20.204ZM75.7358 19.76C77.1038 19.856 78.2918 20.036 78.2918 21.248C78.2918 22.604 76.8638 23 75.3398 23H70.4558V16.16H74.7998C76.4078 16.16 78.1238 16.424 78.1238 17.84C78.1238 18.968 77.0318 19.364 75.7358 19.448V19.76ZM74.7038 17.396H72.2558V19.22H74.8598C75.7478 19.22 76.4078 18.872 76.4078 18.26C76.4078 17.648 75.6758 17.396 74.7038 17.396ZM75.0878 21.884C75.8918 21.884 76.5158 21.56 76.5158 20.936C76.5158 20.288 75.8438 19.952 74.8478 19.952H72.2558V21.884H75.0878ZM86.224 20.204H87.904C87.616 22.16 85.564 23.18 83.548 23.18C81.328 23.18 79.384 21.944 79.384 19.664C79.384 17.216 81.568 16.112 83.608 16.112C85.516 16.112 87.496 17.06 87.64 19.088H85.972C85.948 17.96 84.988 17.156 83.524 17.156C81.772 17.156 81.016 18.32 81.016 19.664C81.016 21.392 82.096 22.148 83.524 22.148C85.012 22.148 86.104 21.296 86.224 20.204ZM96.8202 19.724H90.6642C90.6642 19.82 90.6642 19.916 90.6642 20.012C90.6882 21.344 91.7202 22.112 93.1122 22.112C94.0842 22.112 95.3082 21.692 95.6442 20.612H97.2282C96.8082 22.376 94.9482 23.18 93.0762 23.18C90.7842 23.18 88.8882 21.956 88.8882 19.664C88.8882 17.276 90.8562 16.112 93.0042 16.112C95.3322 16.112 96.8802 17.48 96.8202 19.724ZM90.7362 19.028H95.0682C95.0322 17.924 94.3722 17.156 92.9922 17.156C91.4922 17.156 90.9162 18.044 90.7362 19.028ZM99.8455 16.244L101.814 18.704L101.946 19.148H102.354L102.498 18.704L104.478 16.244H106.398L103.182 19.7L106.35 22.988L104.226 23L102.558 21.128L102.378 20.48H101.97L101.802 21.128L100.122 23L97.9975 22.988L101.142 19.724L97.9495 16.256L99.8455 16.244ZM43.392 34.204H45.072C44.784 36.16 42.732 37.18 40.716 37.18C38.496 37.18 36.552 35.944 36.552 33.664C36.552 31.216 38.736 30.112 40.776 30.112C42.684 30.112 44.664 31.06 44.808 33.088H43.14C43.116 31.96 42.156 31.156 40.692 31.156C38.94 31.156 38.184 32.32 38.184 33.664C38.184 35.392 39.264 36.148 40.692 36.148C42.18 36.148 43.272 35.296 43.392 34.204ZM52.5242 30.244V31.576H48.2282V37H46.4282V30.244H52.5242ZM61.1952 33.724H55.0392C55.0392 33.82 55.0392 33.916 55.0392 34.012C55.0632 35.344 56.0952 36.112 57.4872 36.112C58.4592 36.112 59.6832 35.692 60.0192 34.612H61.6032C61.1832 36.376 59.3232 37.18 57.4512 37.18C55.1592 37.18 53.2632 35.956 53.2632 33.664C53.2632 31.276 55.2312 30.112 57.3792 30.112C59.7072 30.112 61.2552 31.48 61.1952 33.724ZM55.1112 33.028H59.4432C59.4072 31.924 58.7472 31.156 57.3672 31.156C55.8672 31.156 55.2912 32.044 55.1112 33.028ZM69.5125 30.244H71.3125V37H69.5125V34.288H64.8805V37H63.0805V30.244H64.8805V32.992H69.5125V30.244ZM80.6601 33.724H74.5041C74.5041 33.82 74.5041 33.916 74.5041 34.012C74.5281 35.344 75.5601 36.112 76.9521 36.112C77.9241 36.112 79.1481 35.692 79.4841 34.612H81.0681C80.6481 36.376 78.7881 37.18 76.9161 37.18C74.6241 37.18 72.7281 35.956 72.7281 33.664C72.7281 31.276 74.6961 30.112 76.8441 30.112C79.1721 30.112 80.7201 31.48 80.6601 33.724ZM74.5761 33.028H78.9081C78.8721 31.924 78.2121 31.156 76.8321 31.156C75.3321 31.156 74.7561 32.044 74.5761 33.028ZM87.7894 37.12C86.0614 37.12 84.7654 36.124 84.1654 34.924H83.7934L84.3574 36.136V40H82.5574V30.244H84.3574V31.024L83.8174 31.828H84.2254C84.8014 30.904 86.3134 30.136 87.8374 30.136C89.7214 30.136 91.4374 31.3 91.4374 33.616C91.4374 35.956 89.6734 37.12 87.7894 37.12ZM87.1534 31.18C85.4494 31.18 84.3694 32.08 84.3694 33.436C84.3694 34.72 85.3534 35.884 87.2014 35.884C88.8814 35.884 89.6374 34.924 89.6374 33.508C89.6374 32.044 88.8334 31.18 87.1534 31.18ZM98.7711 37V34.348C98.7711 33.22 99.1911 31.768 99.5391 30.676L99.1551 30.604C98.8071 31.696 98.2911 33.136 97.6311 34.108L95.1831 37H92.9751V30.244H94.7511L94.7631 33.376C94.7631 34.336 94.3911 35.572 94.1271 36.508L94.5231 36.58C94.7871 35.644 95.0871 34.396 95.5911 33.532L98.2431 30.244H100.571L100.547 37H98.7711ZM107.688 37.12C105.96 37.12 104.664 36.124 104.064 34.924H103.692L104.256 36.136V40H102.456V30.244H104.256V31.024L103.716 31.828H104.124C104.7 30.904 106.212 30.136 107.736 30.136C109.62 30.136 111.336 31.3 111.336 33.616C111.336 35.956 109.572 37.12 107.688 37.12ZM107.052 31.18C105.348 31.18 104.268 32.08 104.268 33.436C104.268 34.72 105.252 35.884 107.1 35.884C108.78 35.884 109.536 34.924 109.536 33.508C109.536 32.044 108.732 31.18 107.052 31.18ZM116.918 30.112C118.946 30.112 121.154 31.252 121.154 33.664C121.154 35.896 119.114 37.192 116.858 37.192C114.566 37.192 112.49 35.848 112.49 33.664C112.49 31.348 114.806 30.112 116.918 30.112ZM114.278 33.64C114.278 35.104 115.334 36.232 116.834 36.232C118.322 36.232 119.354 35.116 119.354 33.64C119.354 32.272 118.454 31.144 116.87 31.144C115.142 31.144 114.278 32.476 114.278 33.64ZM128.107 33.76C129.475 33.856 130.663 34.036 130.663 35.248C130.663 36.604 129.235 37 127.711 37H122.827V30.16H127.171C128.779 30.16 130.495 30.424 130.495 31.84C130.495 32.968 129.403 33.364 128.107 33.448V33.76ZM127.075 31.396H124.627V33.22H127.231C128.119 33.22 128.779 32.872 128.779 32.26C128.779 31.648 128.047 31.396 127.075 31.396ZM127.459 35.884C128.263 35.884 128.887 35.56 128.887 34.936C128.887 34.288 128.215 33.952 127.219 33.952H124.627V35.884H127.459ZM131.683 34.864C131.683 33.472 133.027 32.872 134.491 32.872C136.063 32.872 137.251 33.58 138.067 34.12C138.079 33.904 138.067 33.424 138.067 33.232C138.067 32.032 137.479 31.54 135.931 31.54H132.427L132.415 30.244H136.567C138.847 30.244 139.867 31.192 139.867 33.4V35.668H141.055V37.012H138.943V37L138.715 37.012C138.331 37.012 138.163 36.592 138.163 36.316C138.163 35.932 138.391 35.224 138.511 35.044L138.151 34.852C137.347 36.652 135.727 37.12 134.599 37.12C133.123 37.12 131.683 36.304 131.683 34.864ZM133.483 34.888C133.483 35.68 134.371 36.088 135.283 36.088C136.999 36.088 137.731 34.66 137.731 34.66C137.731 34.66 136.351 33.76 135.139 33.76C134.623 33.76 133.483 33.928 133.483 34.888ZM150.211 37H148.411V31.576H145.735C145.375 34.456 144.883 37.264 142.843 37.12L141.931 37.072L141.955 35.68L142.507 35.704C143.623 35.764 143.899 33.772 144.343 30.292V30.244H150.187L150.211 37ZM157.81 37V34.348C157.81 33.22 158.23 31.768 158.578 30.676L158.194 30.604C157.846 31.696 157.33 33.136 156.67 34.108L154.222 37H152.014V30.244H153.79L153.802 33.376C153.802 34.336 153.43 35.572 153.166 36.508L153.562 36.58C153.826 35.644 154.126 34.396 154.63 33.532L157.282 30.244H159.61L159.586 37H157.81ZM43.368 44.244H45.168V51H43.368V48.288H38.736V51H36.936V44.244H38.736V46.992H43.368V44.244ZM54.5155 47.724H48.3595C48.3595 47.82 48.3595 47.916 48.3595 48.012C48.3835 49.344 49.4155 50.112 50.8075 50.112C51.7795 50.112 53.0035 49.692 53.3395 48.612H54.9235C54.5035 50.376 52.6435 51.18 50.7715 51.18C48.4795 51.18 46.5835 49.956 46.5835 47.664C46.5835 45.276 48.5515 44.112 50.6995 44.112C53.0275 44.112 54.5755 45.48 54.5155 47.724ZM48.4315 47.028H52.7635C52.7275 45.924 52.0675 45.156 50.6875 45.156C49.1875 45.156 48.6115 46.044 48.4315 47.028ZM58.8248 41.628H59.6528C59.6528 42.096 59.9408 42.444 60.3608 42.444C60.7928 42.444 61.0928 42.096 61.0928 41.628H61.9208C61.9208 42.432 61.2848 42.996 60.3848 42.996C59.4728 42.996 58.8248 42.42 58.8248 41.628ZM62.1968 51V48.348C62.1968 47.22 62.6168 45.768 62.9648 44.676L62.5808 44.604C62.2328 45.696 61.7168 47.136 61.0568 48.108L58.6088 51H56.4008V44.244H58.1768L58.1888 47.376C58.1888 48.336 57.8168 49.572 57.5528 50.508L57.9488 50.58C58.2128 49.644 58.5128 48.396 59.0168 47.532L61.6688 44.244H63.9968L63.9728 51H62.1968ZM71.1136 51.12C69.3856 51.12 68.0896 50.124 67.4896 48.924H67.1176L67.6816 50.136V54H65.8816V44.244H67.6816V45.024L67.1416 45.828H67.5496C68.1256 44.904 69.6376 44.136 71.1616 44.136C73.0456 44.136 74.7616 45.3 74.7616 47.616C74.7616 49.956 72.9976 51.12 71.1136 51.12ZM70.4776 45.18C68.7736 45.18 67.6936 46.08 67.6936 47.436C67.6936 48.72 68.6776 49.884 70.5256 49.884C72.2056 49.884 72.9616 48.924 72.9616 47.508C72.9616 46.044 72.1576 45.18 70.4776 45.18ZM80.3433 44.112C82.3713 44.112 84.5793 45.252 84.5793 47.664C84.5793 49.896 82.5393 51.192 80.2833 51.192C77.9913 51.192 75.9153 49.848 75.9153 47.664C75.9153 45.348 78.2313 44.112 80.3433 44.112ZM77.7033 47.64C77.7033 49.104 78.7593 50.232 80.2593 50.232C81.7473 50.232 82.7793 49.116 82.7793 47.64C82.7793 46.272 81.8793 45.144 80.2953 45.144C78.5673 45.144 77.7033 46.476 77.7033 47.64ZM92.5287 48.204H94.2087C93.9207 50.16 91.8687 51.18 89.8527 51.18C87.6327 51.18 85.6887 49.944 85.6887 47.664C85.6887 45.216 87.8727 44.112 89.9127 44.112C91.8207 44.112 93.8007 45.06 93.9447 47.088H92.2767C92.2527 45.96 91.2927 45.156 89.8287 45.156C88.0767 45.156 87.3207 46.32 87.3207 47.664C87.3207 49.392 88.4007 50.148 89.8287 50.148C91.3167 50.148 92.4087 49.296 92.5287 48.204ZM103.125 47.724H96.9689C96.9689 47.82 96.9689 47.916 96.9689 48.012C96.9929 49.344 98.0249 50.112 99.4169 50.112C100.389 50.112 101.613 49.692 101.949 48.612H103.533C103.113 50.376 101.253 51.18 99.3809 51.18C97.0889 51.18 95.1929 49.956 95.1929 47.664C95.1929 45.276 97.1609 44.112 99.3089 44.112C101.637 44.112 103.185 45.48 103.125 47.724ZM97.0409 47.028H101.373C101.337 45.924 100.677 45.156 99.2969 45.156C97.7969 45.156 97.2209 46.044 97.0409 47.028ZM111.562 44.244V45.66H108.778V51H107.134V45.66H104.278V44.244H111.562ZM119.669 47.844C120.161 47.94 119.969 48.516 119.741 49.656H121.013V51.024H117.437L118.625 48.492H114.449V51H112.805V44.256H114.449V47.064H114.977L118.805 44.244H120.953L117.521 46.824C117.041 47.22 116.309 47.4 115.361 47.592V47.976C115.649 47.904 116.369 47.712 116.729 47.64C117.281 47.556 117.797 47.508 118.241 47.508C118.925 47.508 119.453 47.616 119.669 47.844ZM126.105 44.112C128.133 44.112 130.341 45.252 130.341 47.664C130.341 49.896 128.301 51.192 126.045 51.192C123.753 51.192 121.677 49.848 121.677 47.664C121.677 45.348 123.993 44.112 126.105 44.112ZM123.465 47.64C123.465 49.104 124.521 50.232 126.021 50.232C127.509 50.232 128.541 49.116 128.541 47.64C128.541 46.272 127.641 45.144 126.057 45.144C124.329 45.144 123.465 46.476 123.465 47.64ZM134.258 41.628H135.086C135.086 42.096 135.374 42.444 135.794 42.444C136.226 42.444 136.526 42.096 136.526 41.628H137.354C137.354 42.432 136.718 42.996 135.818 42.996C134.906 42.996 134.258 42.42 134.258 41.628ZM137.63 51V48.348C137.63 47.22 138.05 45.768 138.398 44.676L138.014 44.604C137.666 45.696 137.15 47.136 136.49 48.108L134.042 51H131.834V44.244H133.61L133.622 47.376C133.622 48.336 133.25 49.572 132.986 50.508L133.382 50.58C133.646 49.644 133.946 48.396 134.45 47.532L137.102 44.244H139.43L139.406 51H137.63Z" fill="#B7F46A"></path> </svg> 