<?xml version="1.0" encoding="UTF-8"?> <svg xmlns="http://www.w3.org/2000/svg" width="257" height="68" viewBox="0 0 257 68" fill="none"> <path d="M224 0.500003L35.0303 0.50002C15.9597 0.500022 0.5 15.9598 0.5 35.0303C0.5 52.9628 15.0372 67.5 32.9697 67.5H254C255.381 67.5 256.5 66.3807 256.5 65V33C256.5 15.0507 241.949 0.500001 224 0.500003Z" fill="white" fill-opacity="0.02" stroke="#B7F46A"></path> <path d="M41.404 15.612V16.968H38.62V24H36.976V16.968H34.12V15.612H41.404ZM42.0034 21.864C42.0034 20.472 43.3474 19.872 44.8114 19.872C46.3834 19.872 47.5714 20.58 48.3874 21.12C48.3994 20.904 48.3874 20.424 48.3874 20.232C48.3874 19.032 47.7994 18.54 46.2514 18.54H42.7474L42.7354 17.244H46.8874C49.1674 17.244 50.1874 18.192 50.1874 20.4V22.668H51.3754V24.012H49.2634V24L49.0354 24.012C48.6514 24.012 48.4834 23.592 48.4834 23.316C48.4834 22.932 48.7114 22.224 48.8314 22.044L48.4714 21.852C47.6674 23.652 46.0474 24.12 44.9194 24.12C43.4434 24.12 42.0034 23.304 42.0034 21.864ZM43.8034 21.888C43.8034 22.68 44.6914 23.088 45.6034 23.088C47.3194 23.088 48.0514 21.66 48.0514 21.66C48.0514 21.66 46.6714 20.76 45.4594 20.76C44.9434 20.76 43.8034 20.928 43.8034 21.888ZM61.0713 20.724L59.2953 24H56.4753L54.6873 20.712C54.4113 19.776 54.3153 18.504 54.1593 17.544L53.7633 17.592C53.9193 18.54 54.2313 19.8 54.2553 20.76L54.2673 24H52.4673V17.244H55.2513L57.7713 23.532H57.9993L60.5193 17.244H63.3033V24H61.5033V20.772C61.5273 19.812 61.8513 18.552 62.0073 17.604L61.6113 17.568C61.4553 18.504 61.3473 19.788 61.0713 20.724ZM76.8916 20.724L75.1156 24H72.2956L70.5076 20.712C70.2316 19.776 70.1356 18.504 69.9796 17.544L69.5836 17.592C69.7396 18.54 70.0516 19.8 70.0756 20.76L70.0876 24H68.2876V17.244H71.0716L73.5916 23.532H73.8196L76.3396 17.244H79.1236V24H77.3236V20.772C77.3476 19.812 77.6716 18.552 77.8276 17.604L77.4316 17.568C77.2756 18.504 77.1676 19.788 76.8916 20.724ZM81.1707 17.244H82.9707V19.956H85.5747C87.5907 19.956 89.0067 20.52 89.0067 22.02C89.0067 23.232 87.8427 24 86.0547 24H81.1707V17.244ZM92.0427 24H90.2307V17.244H92.0427V24ZM82.9707 22.812H85.8027C86.6067 22.812 87.2307 22.524 87.2307 21.936C87.2307 21.324 86.5587 21.048 85.5507 21.048H82.9707V22.812ZM102.301 24.12C100.573 24.12 99.2771 23.124 98.6771 21.924H98.3051L98.8691 23.136V27H97.0691V17.244H98.8691V18.024L98.3291 18.828H98.7371C99.3131 17.904 100.825 17.136 102.349 17.136C104.233 17.136 105.949 18.3 105.949 20.616C105.949 22.956 104.185 24.12 102.301 24.12ZM101.665 18.18C99.9611 18.18 98.8811 19.08 98.8811 20.436C98.8811 21.72 99.8651 22.884 101.713 22.884C103.393 22.884 104.149 21.924 104.149 20.508C104.149 19.044 103.345 18.18 101.665 18.18ZM107.031 21.864C107.031 20.472 108.375 19.872 109.839 19.872C111.411 19.872 112.599 20.58 113.415 21.12C113.427 20.904 113.415 20.424 113.415 20.232C113.415 19.032 112.827 18.54 111.279 18.54H107.775L107.763 17.244H111.915C114.195 17.244 115.215 18.192 115.215 20.4V22.668H116.403V24.012H114.291V24L114.063 24.012C113.679 24.012 113.511 23.592 113.511 23.316C113.511 22.932 113.739 22.224 113.859 22.044L113.499 21.852C112.695 23.652 111.075 24.12 109.947 24.12C108.471 24.12 107.031 23.304 107.031 21.864ZM108.831 21.888C108.831 22.68 109.719 23.088 110.631 23.088C112.347 23.088 113.079 21.66 113.079 21.66C113.079 21.66 111.699 20.76 110.487 20.76C109.971 20.76 108.831 20.928 108.831 21.888ZM123.951 21.204H125.631C125.343 23.16 123.291 24.18 121.275 24.18C119.055 24.18 117.111 22.944 117.111 20.664C117.111 18.216 119.295 17.112 121.335 17.112C123.243 17.112 125.223 18.06 125.367 20.088H123.699C123.675 18.96 122.715 18.156 121.251 18.156C119.499 18.156 118.743 19.32 118.743 20.664C118.743 22.392 119.823 23.148 121.251 23.148C122.739 23.148 123.831 22.296 123.951 21.204ZM133.443 21.204H135.123C134.835 23.16 132.783 24.18 130.767 24.18C128.547 24.18 126.603 22.944 126.603 20.664C126.603 18.216 128.787 17.112 130.827 17.112C132.735 17.112 134.715 18.06 134.859 20.088H133.191C133.167 18.96 132.207 18.156 130.743 18.156C128.991 18.156 128.235 19.32 128.235 20.664C128.235 22.392 129.315 23.148 130.743 23.148C132.231 23.148 133.323 22.296 133.443 21.204ZM143.415 20.844C143.907 20.94 143.715 21.516 143.487 22.656H144.759V24.024H141.183L142.371 21.492H138.195V24H136.551V17.256H138.195V20.064H138.723L142.551 17.244H144.699L141.267 19.824C140.787 20.22 140.055 20.4 139.107 20.592V20.976C139.395 20.904 140.115 20.712 140.475 20.64C141.027 20.556 141.543 20.508 141.987 20.508C142.671 20.508 143.199 20.616 143.415 20.844ZM145.351 21.864C145.351 20.472 146.695 19.872 148.159 19.872C149.731 19.872 150.919 20.58 151.735 21.12C151.747 20.904 151.735 20.424 151.735 20.232C151.735 19.032 151.147 18.54 149.599 18.54H146.095L146.083 17.244H150.235C152.515 17.244 153.535 18.192 153.535 20.4V22.668H154.723V24.012H152.611V24L152.383 24.012C151.999 24.012 151.831 23.592 151.831 23.316C151.831 22.932 152.059 22.224 152.179 22.044L151.819 21.852C151.015 23.652 149.395 24.12 148.267 24.12C146.791 24.12 145.351 23.304 145.351 21.864ZM147.151 21.888C147.151 22.68 148.039 23.088 148.951 23.088C150.667 23.088 151.399 21.66 151.399 21.66C151.399 21.66 150.019 20.76 148.807 20.76C148.291 20.76 147.151 20.928 147.151 21.888ZM161.443 20.82C162.679 20.832 163.207 21.324 163.207 22.08C163.207 23.616 161.287 24.192 159.463 24.192C157.387 24.192 155.431 23.496 155.431 21.696H157.087C157.075 22.644 158.383 23.088 159.487 23.088C160.519 23.088 161.551 22.824 161.551 22.032C161.551 21.336 161.131 21.036 160.099 21.036H158.335V20.268H160.099C161.035 20.268 161.551 19.92 161.551 19.272C161.551 18.504 160.483 18.228 159.475 18.228C158.347 18.228 157.075 18.648 157.087 19.62H155.431C155.431 17.796 157.351 17.112 159.451 17.112C161.275 17.112 163.207 17.7 163.207 19.224C163.207 19.92 162.619 20.472 161.443 20.496V20.82ZM164.878 17.244H166.678V19.956H169.282C171.298 19.956 172.714 20.52 172.714 22.02C172.714 23.232 171.55 24 169.762 24H164.878V17.244ZM175.75 24H173.938V17.244H175.75V24ZM166.678 22.812H169.51C170.314 22.812 170.938 22.524 170.938 21.936C170.938 21.324 170.266 21.048 169.258 21.048H166.678V22.812ZM183.107 20.76C184.475 20.856 185.663 21.036 185.663 22.248C185.663 23.604 184.235 24 182.711 24H177.827V17.16H182.171C183.779 17.16 185.495 17.424 185.495 18.84C185.495 19.968 184.403 20.364 183.107 20.448V20.76ZM182.075 18.396H179.627V20.22H182.231C183.119 20.22 183.779 19.872 183.779 19.26C183.779 18.648 183.047 18.396 182.075 18.396ZM182.459 22.884C183.263 22.884 183.887 22.56 183.887 21.936C183.887 21.288 183.215 20.952 182.219 20.952H179.627V22.884H182.459ZM186.683 21.864C186.683 20.472 188.027 19.872 189.491 19.872C191.063 19.872 192.251 20.58 193.067 21.12C193.079 20.904 193.067 20.424 193.067 20.232C193.067 19.032 192.479 18.54 190.931 18.54H187.427L187.415 17.244H191.567C193.847 17.244 194.867 18.192 194.867 20.4V22.668H196.055V24.012H193.943V24L193.715 24.012C193.331 24.012 193.163 23.592 193.163 23.316C193.163 22.932 193.391 22.224 193.511 22.044L193.151 21.852C192.347 23.652 190.727 24.12 189.599 24.12C188.123 24.12 186.683 23.304 186.683 21.864ZM188.483 21.888C188.483 22.68 189.371 23.088 190.283 23.088C191.999 23.088 192.731 21.66 192.731 21.66C192.731 21.66 191.351 20.76 190.139 20.76C189.623 20.76 188.483 20.928 188.483 21.888ZM204.707 20.724H198.551C198.551 20.82 198.551 20.916 198.551 21.012C198.575 22.344 199.607 23.112 200.999 23.112C201.971 23.112 203.195 22.692 203.531 21.612H205.115C204.695 23.376 202.835 24.18 200.963 24.18C198.671 24.18 196.775 22.956 196.775 20.664C196.775 18.276 198.743 17.112 200.891 17.112C203.219 17.112 204.767 18.48 204.707 20.724ZM198.623 20.028H202.955C202.919 18.924 202.259 18.156 200.879 18.156C199.379 18.156 198.803 19.044 198.623 20.028ZM215.196 20.724L213.42 24H210.6L208.812 20.712C208.536 19.776 208.44 18.504 208.284 17.544L207.888 17.592C208.044 18.54 208.356 19.8 208.38 20.76L208.392 24H206.592V17.244H209.376L211.896 23.532H212.124L214.644 17.244H217.428V24H215.628V20.772C215.652 19.812 215.976 18.552 216.132 17.604L215.736 17.568C215.58 18.504 215.472 19.788 215.196 20.724ZM218.827 23.148C218.827 22.56 219.235 22.176 219.871 22.176C220.495 22.176 220.915 22.56 220.915 23.148C220.915 23.208 220.903 23.268 220.891 23.316L220.843 24.048L219.715 25.584H219.091L219.631 24.096C219.139 24.012 218.827 23.652 218.827 23.148ZM40.564 34.82C41.8 34.832 42.328 35.324 42.328 36.08C42.328 37.616 40.408 38.192 38.584 38.192C36.508 38.192 34.552 37.496 34.552 35.696H36.208C36.196 36.644 37.504 37.088 38.608 37.088C39.64 37.088 40.672 36.824 40.672 36.032C40.672 35.336 40.252 35.036 39.22 35.036H37.456V34.268H39.22C40.156 34.268 40.672 33.92 40.672 33.272C40.672 32.504 39.604 32.228 38.596 32.228C37.468 32.228 36.196 32.648 36.208 33.62H34.552C34.552 31.796 36.472 31.112 38.572 31.112C40.396 31.112 42.328 31.7 42.328 33.224C42.328 33.92 41.74 34.472 40.564 34.496V34.82ZM43.3628 35.864C43.3628 34.472 44.7068 33.872 46.1708 33.872C47.7428 33.872 48.9308 34.58 49.7468 35.12C49.7588 34.904 49.7468 34.424 49.7468 34.232C49.7468 33.032 49.1588 32.54 47.6108 32.54H44.1068L44.0948 31.244H48.2468C50.5268 31.244 51.5468 32.192 51.5468 34.4V36.668H52.7348V38.012H50.6228V38L50.3948 38.012C50.0108 38.012 49.8428 37.592 49.8428 37.316C49.8428 36.932 50.0708 36.224 50.1908 36.044L49.8308 35.852C49.0268 37.652 47.4068 38.12 46.2788 38.12C44.8028 38.12 43.3628 37.304 43.3628 35.864ZM45.1628 35.888C45.1628 36.68 46.0508 37.088 46.9628 37.088C48.6788 37.088 49.4108 35.66 49.4108 35.66C49.4108 35.66 48.0308 34.76 46.8188 34.76C46.3028 34.76 45.1628 34.928 45.1628 35.888ZM62.4306 34.724L60.6546 38H57.8346L56.0466 34.712C55.7706 33.776 55.6746 32.504 55.5186 31.544L55.1226 31.592C55.2786 32.54 55.5906 33.8 55.6146 34.76L55.6266 38H53.8266V31.244H56.6106L59.1306 37.532H59.3586L61.8786 31.244H64.6626V38H62.8626V34.772C62.8866 33.812 63.2106 32.552 63.3666 31.604L62.9706 31.568C62.8146 32.504 62.7066 33.788 62.4306 34.724ZM74.0898 34.724H67.9338C67.9338 34.82 67.9338 34.916 67.9338 35.012C67.9578 36.344 68.9898 37.112 70.3818 37.112C71.3538 37.112 72.5778 36.692 72.9138 35.612H74.4978C74.0778 37.376 72.2178 38.18 70.3458 38.18C68.0538 38.18 66.1578 36.956 66.1578 34.664C66.1578 32.276 68.1258 31.112 70.2738 31.112C72.6018 31.112 74.1498 32.48 74.0898 34.724ZM68.0058 34.028H72.3378C72.3018 32.924 71.6418 32.156 70.2618 32.156C68.7617 32.156 68.1858 33.044 68.0058 34.028ZM82.4071 31.244H84.2071V38H82.4071V35.288H77.7751V38H75.9751V31.244H77.7751V33.992H82.4071V31.244ZM93.7586 31.244V38H92.1146V35.36H87.8546L89.0306 38.012H85.5386V36.668H86.8946C86.6426 35.432 86.4026 34.856 87.5306 34.796V34.472C86.4386 34.34 85.6346 33.836 85.6346 32.888C85.6346 31.616 87.0746 31.244 88.7306 31.244H93.7586ZM92.1146 34.292V32.348H88.7426C87.9626 32.348 87.2546 32.648 87.2546 33.308C87.2546 33.98 87.9506 34.316 88.7666 34.316L92.1146 34.292ZM102.144 31.244V32.66H99.3603V38H97.7163V32.66H94.8603V31.244H102.144ZM114.496 38H112.696V32.576H110.02C109.66 35.456 109.168 38.264 107.128 38.12L106.216 38.072L106.24 36.68L106.792 36.704C107.908 36.764 108.184 34.772 108.628 31.292V31.244H114.472L114.496 38ZM122.095 38V35.348C122.095 34.22 122.515 32.768 122.863 31.676L122.479 31.604C122.131 32.696 121.615 34.136 120.955 35.108L118.507 38H116.299V31.244H118.075L118.087 34.376C118.087 35.336 117.715 36.572 117.451 37.508L117.847 37.58C118.111 36.644 118.411 35.396 118.915 34.532L121.567 31.244H123.895L123.871 38H122.095ZM135.317 31.244H137.117V38H135.317V35.288H130.685V38H128.885V31.244H130.685V33.992H135.317V31.244ZM146.465 34.724H140.309C140.309 34.82 140.309 34.916 140.309 35.012C140.333 36.344 141.365 37.112 142.757 37.112C143.729 37.112 144.953 36.692 145.289 35.612H146.873C146.453 37.376 144.593 38.18 142.721 38.18C140.429 38.18 138.533 36.956 138.533 34.664C138.533 32.276 140.501 31.112 142.649 31.112C144.977 31.112 146.525 32.48 146.465 34.724ZM140.381 34.028H144.713C144.677 32.924 144.017 32.156 142.637 32.156C141.137 32.156 140.561 33.044 140.381 34.028ZM150.774 28.628H151.602C151.602 29.096 151.89 29.444 152.31 29.444C152.742 29.444 153.042 29.096 153.042 28.628H153.87C153.87 29.432 153.234 29.996 152.334 29.996C151.422 29.996 150.774 29.42 150.774 28.628ZM154.146 38V35.348C154.146 34.22 154.566 32.768 154.914 31.676L154.53 31.604C154.182 32.696 153.666 34.136 153.006 35.108L150.558 38H148.35V31.244H150.126L150.138 34.376C150.138 35.336 149.766 36.572 149.502 37.508L149.898 37.58C150.162 36.644 150.462 35.396 150.966 34.532L153.618 31.244H155.946L155.922 38H154.146ZM163.063 38.12C161.335 38.12 160.039 37.124 159.439 35.924H159.067L159.631 37.136V41H157.831V31.244H159.631V32.024L159.091 32.828H159.499C160.075 31.904 161.587 31.136 163.111 31.136C164.995 31.136 166.711 32.3 166.711 34.616C166.711 36.956 164.947 38.12 163.063 38.12ZM162.427 32.18C160.723 32.18 159.643 33.08 159.643 34.436C159.643 35.72 160.627 36.884 162.475 36.884C164.155 36.884 164.911 35.924 164.911 34.508C164.911 33.044 164.107 32.18 162.427 32.18ZM172.293 31.112C174.321 31.112 176.529 32.252 176.529 34.664C176.529 36.896 174.489 38.192 172.233 38.192C169.941 38.192 167.865 36.848 167.865 34.664C167.865 32.348 170.181 31.112 172.293 31.112ZM169.653 34.64C169.653 36.104 170.709 37.232 172.209 37.232C173.697 37.232 174.729 36.116 174.729 34.64C174.729 33.272 173.829 32.144 172.245 32.144C170.517 32.144 169.653 33.476 169.653 34.64ZM184.478 35.204H186.158C185.87 37.16 183.818 38.18 181.802 38.18C179.582 38.18 177.638 36.944 177.638 34.664C177.638 32.216 179.822 31.112 181.862 31.112C183.77 31.112 185.75 32.06 185.894 34.088H184.226C184.202 32.96 183.242 32.156 181.778 32.156C180.026 32.156 179.27 33.32 179.27 34.664C179.27 36.392 180.35 37.148 181.778 37.148C183.266 37.148 184.358 36.296 184.478 35.204ZM195.074 34.724H188.918C188.918 34.82 188.918 34.916 188.918 35.012C188.942 36.344 189.974 37.112 191.366 37.112C192.338 37.112 193.562 36.692 193.898 35.612H195.482C195.062 37.376 193.202 38.18 191.33 38.18C189.038 38.18 187.142 36.956 187.142 34.664C187.142 32.276 189.11 31.112 191.258 31.112C193.586 31.112 195.134 32.48 195.074 34.724ZM188.99 34.028H193.322C193.286 32.924 192.626 32.156 191.246 32.156C189.746 32.156 189.17 33.044 188.99 34.028ZM203.511 31.244V32.66H200.727V38H199.083V32.66H196.227V31.244H203.511ZM210.478 38V35.348C210.478 34.22 210.898 32.768 211.246 31.676L210.862 31.604C210.514 32.696 209.998 34.136 209.338 35.108L206.89 38H204.682V31.244H206.458L206.47 34.376C206.47 35.336 206.098 36.572 205.834 37.508L206.23 37.58C206.494 36.644 206.794 35.396 207.298 34.532L209.95 31.244H212.278L212.254 38H210.478ZM41.872 48.844C42.364 48.94 42.172 49.516 41.944 50.656H43.216V52.024H39.64L40.828 49.492H36.652V52H35.008V45.256H36.652V48.064H37.18L41.008 45.244H43.156L39.724 47.824C39.244 48.22 38.512 48.4 37.564 48.592V48.976C37.852 48.904 38.572 48.712 38.932 48.64C39.484 48.556 40 48.508 40.444 48.508C41.128 48.508 41.656 48.616 41.872 48.844ZM48.3081 45.112C50.3361 45.112 52.5441 46.252 52.5441 48.664C52.5441 50.896 50.5041 52.192 48.2481 52.192C45.9561 52.192 43.8801 50.848 43.8801 48.664C43.8801 46.348 46.1961 45.112 48.3081 45.112ZM45.6681 48.64C45.6681 50.104 46.7241 51.232 48.2241 51.232C49.7121 51.232 50.7441 50.116 50.7441 48.64C50.7441 47.272 49.8441 46.144 48.2601 46.144C46.5321 46.144 45.6681 47.476 45.6681 48.64ZM54.0376 52V45.244H61.5256V52H59.7256V46.576H55.8376V52H54.0376ZM69.1265 52V49.348C69.1265 48.22 69.5465 46.768 69.8945 45.676L69.5105 45.604C69.1625 46.696 68.6465 48.136 67.9865 49.108L65.5385 52H63.3305V45.244H65.1065L65.1185 48.376C65.1185 49.336 64.7465 50.572 64.4825 51.508L64.8785 51.58C65.1425 50.644 65.4425 49.396 65.9465 48.532L68.5985 45.244H70.9265L70.9025 52H69.1265ZM78.0433 52.12C76.3153 52.12 75.0193 51.124 74.4193 49.924H74.0473L74.6113 51.136V55H72.8113V45.244H74.6113V46.024L74.0713 46.828H74.4793C75.0553 45.904 76.5673 45.136 78.0913 45.136C79.9753 45.136 81.6913 46.3 81.6913 48.616C81.6913 50.956 79.9273 52.12 78.0433 52.12ZM77.4073 46.18C75.7033 46.18 74.6233 47.08 74.6233 48.436C74.6233 49.72 75.6073 50.884 77.4553 50.884C79.1353 50.884 79.8913 49.924 79.8913 48.508C79.8913 47.044 79.0873 46.18 77.4073 46.18ZM82.773 49.864C82.773 48.472 84.117 47.872 85.581 47.872C87.153 47.872 88.341 48.58 89.157 49.12C89.169 48.904 89.157 48.424 89.157 48.232C89.157 47.032 88.569 46.54 87.021 46.54H83.517L83.505 45.244H87.657C89.937 45.244 90.957 46.192 90.957 48.4V50.668H92.145V52.012H90.033V52L89.805 52.012C89.421 52.012 89.253 51.592 89.253 51.316C89.253 50.932 89.481 50.224 89.601 50.044L89.241 49.852C88.437 51.652 86.817 52.12 85.689 52.12C84.213 52.12 82.773 51.304 82.773 49.864ZM84.573 49.888C84.573 50.68 85.461 51.088 86.373 51.088C88.089 51.088 88.821 49.66 88.821 49.66C88.821 49.66 87.441 48.76 86.229 48.76C85.713 48.76 84.573 48.928 84.573 49.888ZM95.6608 42.628H96.4888C96.4888 43.096 96.7768 43.444 97.1968 43.444C97.6288 43.444 97.9288 43.096 97.9288 42.628H98.7568C98.7568 43.432 98.1208 43.996 97.2208 43.996C96.3088 43.996 95.6608 43.42 95.6608 42.628ZM99.0328 52V49.348C99.0328 48.22 99.4528 46.768 99.8008 45.676L99.4168 45.604C99.0688 46.696 98.5528 48.136 97.8928 49.108L95.4448 52H93.2368V45.244H95.0128L95.0248 48.376C95.0248 49.336 94.6528 50.572 94.3888 51.508L94.7848 51.58C95.0488 50.644 95.3488 49.396 95.8528 48.532L98.5048 45.244H100.833L100.809 52H99.0328ZM109.258 45.244V46.66H106.474V52H104.83V46.66H101.974V45.244H109.258ZM117.988 48.724H111.832C111.832 48.82 111.832 48.916 111.832 49.012C111.856 50.344 112.888 51.112 114.28 51.112C115.252 51.112 116.476 50.692 116.812 49.612H118.396C117.976 51.376 116.116 52.18 114.244 52.18C111.952 52.18 110.056 50.956 110.056 48.664C110.056 46.276 112.024 45.112 114.172 45.112C116.5 45.112 118.048 46.48 117.988 48.724ZM111.904 48.028H116.236C116.2 46.924 115.54 46.156 114.16 46.156C112.66 46.156 112.084 47.044 111.904 48.028ZM125.118 52.12C123.39 52.12 122.094 51.124 121.494 49.924H121.122L121.686 51.136V55H119.886V45.244H121.686V46.024L121.146 46.828H121.554C122.13 45.904 123.642 45.136 125.166 45.136C127.05 45.136 128.766 46.3 128.766 48.616C128.766 50.956 127.002 52.12 125.118 52.12ZM124.482 46.18C122.778 46.18 121.698 47.08 121.698 48.436C121.698 49.72 122.682 50.884 124.53 50.884C126.21 50.884 126.966 49.924 126.966 48.508C126.966 47.044 126.162 46.18 124.482 46.18ZM134.347 45.112C136.375 45.112 138.583 46.252 138.583 48.664C138.583 50.896 136.543 52.192 134.287 52.192C131.995 52.192 129.919 50.848 129.919 48.664C129.919 46.348 132.235 45.112 134.347 45.112ZM131.707 48.64C131.707 50.104 132.763 51.232 134.263 51.232C135.751 51.232 136.783 50.116 136.783 48.64C136.783 47.272 135.883 46.144 134.299 46.144C132.571 46.144 131.707 47.476 131.707 48.64ZM145.537 48.76C146.905 48.856 148.093 49.036 148.093 50.248C148.093 51.604 146.665 52 145.141 52H140.257V45.16H144.601C146.209 45.16 147.925 45.424 147.925 46.84C147.925 47.968 146.833 48.364 145.537 48.448V48.76ZM144.505 46.396H142.057V48.22H144.661C145.549 48.22 146.209 47.872 146.209 47.26C146.209 46.648 145.477 46.396 144.505 46.396ZM144.889 50.884C145.693 50.884 146.317 50.56 146.317 49.936C146.317 49.288 145.645 48.952 144.649 48.952H142.057V50.884H144.889ZM149.269 51.148C149.269 50.56 149.689 50.176 150.313 50.176C150.937 50.176 151.357 50.56 151.357 51.148C151.357 51.724 150.937 52.108 150.313 52.108C149.689 52.108 149.269 51.724 149.269 51.148ZM161.737 47.968C162.973 47.992 163.501 48.604 163.501 49.552C163.501 51.472 161.581 52.192 159.757 52.192C157.681 52.192 155.725 51.328 155.725 49.072H157.381C157.369 50.248 158.677 50.812 159.781 50.812C160.813 50.812 161.845 50.476 161.845 49.48C161.845 48.616 161.425 48.244 160.393 48.244H158.629V47.284H160.393C161.329 47.284 161.845 46.84 161.845 46.036C161.845 45.064 160.777 44.716 159.769 44.716C158.641 44.716 157.369 45.256 157.381 46.468H155.725C155.725 44.188 157.645 43.336 159.745 43.336C161.569 43.336 163.501 44.068 163.501 45.964C163.501 46.852 162.913 47.536 161.737 47.56V47.968ZM164.57 49.864C164.57 48.472 165.914 47.872 167.378 47.872C168.95 47.872 170.138 48.58 170.954 49.12C170.966 48.904 170.954 48.424 170.954 48.232C170.954 47.032 170.366 46.54 168.818 46.54H165.314L165.302 45.244H169.454C171.734 45.244 172.754 46.192 172.754 48.4V50.668H173.942V52.012H171.83V52L171.602 52.012C171.218 52.012 171.05 51.592 171.05 51.316C171.05 50.932 171.278 50.224 171.398 50.044L171.038 49.852C170.234 51.652 168.614 52.12 167.486 52.12C166.01 52.12 164.57 51.304 164.57 49.864ZM166.37 49.888C166.37 50.68 167.258 51.088 168.17 51.088C169.886 51.088 170.618 49.66 170.618 49.66C170.618 49.66 169.238 48.76 168.026 48.76C167.51 48.76 166.37 48.928 166.37 49.888ZM176.174 45.244L178.142 47.704L178.274 48.148H178.682L178.826 47.704L180.806 45.244H182.726L179.51 48.7L182.678 51.988L180.554 52L178.886 50.128L178.706 49.48H178.298L178.13 50.128L176.45 52L174.326 51.988L177.47 48.724L174.278 45.256L176.174 45.244ZM187.89 45.112C189.918 45.112 192.126 46.252 192.126 48.664C192.126 50.896 190.086 52.192 187.83 52.192C185.538 52.192 183.462 50.848 183.462 48.664C183.462 46.348 185.778 45.112 187.89 45.112ZM185.25 48.64C185.25 50.104 186.306 51.232 187.806 51.232C189.294 51.232 190.326 50.116 190.326 48.64C190.326 47.272 189.426 46.144 187.842 46.144C186.114 46.144 185.25 47.476 185.25 48.64ZM200.364 53.212V52H194.976V53.212H193.164L193.188 50.668H193.632C194.772 50.668 195.708 49 196.224 45.292V45.244H200.988L201 50.668H202.152L202.164 53.212H200.364ZM196.956 50.668H199.2V46.576H197.568C197.28 48.34 196.452 50.416 194.916 51.016L195.096 51.352C195.696 51.028 196.392 50.668 196.956 50.668ZM209.037 52V49.348C209.037 48.22 209.457 46.768 209.805 45.676L209.421 45.604C209.073 46.696 208.557 48.136 207.897 49.108L205.449 52H203.241V45.244H205.017L205.029 48.376C205.029 49.336 204.657 50.572 204.393 51.508L204.789 51.58C205.053 50.644 205.353 49.396 205.857 48.532L208.509 45.244H210.837L210.813 52H209.037ZM213.249 48.472L212.769 43.6H214.761L214.269 48.472H213.249ZM212.733 51.148C212.733 50.56 213.141 50.176 213.765 50.176C214.401 50.176 214.809 50.56 214.809 51.148C214.809 51.724 214.401 52.108 213.765 52.108C213.141 52.108 212.733 51.724 212.733 51.148Z" fill="#B7F46A"></path> </svg> 