<?xml version="1.0" encoding="UTF-8"?> <svg xmlns="http://www.w3.org/2000/svg" width="1856" height="958" viewBox="0 0 1856 958" fill="none"> <path d="M1548.37 60.7084C1463.88 119.788 1360.78 162.433 1241.62 151.823C1155.99 144.203 1078.13 114.387 1002.64 85.2384C923.871 54.8325 843.654 23.7211 755.799 10.9557C634.137 -6.7233 518.802 11.161 414.138 60.3749" stroke="#9399FB" stroke-width="0.41" stroke-miterlimit="10"></path> <path d="M1551.11 61.5426C1466.29 119.378 1362.56 161.613 1244.29 152.221C1156.87 145.281 1078.46 115.003 1001.88 84.9948C923.112 54.1271 842.326 23.9522 753.541 13.3807C631.93 -1.11662 516.06 12.8034 410.431 61.2475" stroke="#9399FB" stroke-width="0.41" stroke-miterlimit="10"></path> <path d="M1555.54 62.9533C1470.05 119.595 1365.95 160.983 1248.4 152.862C1158.64 146.666 1079.13 116.016 1000.81 85.2253C921.405 54.0112 839.93 25.4014 749.92 16.8698C628.223 5.3361 511.388 15.1763 404.483 62.6582" stroke="#9399FB" stroke-width="0.41" stroke-miterlimit="10"></path> <path d="M1561.51 64.9807C1475.67 120.032 1372.25 160.124 1256.07 153.953C1162.7 149.001 1080.74 117.723 999.434 85.9698C917.872 54.1142 835.016 27.7496 742.472 21.2194C621.396 12.6878 504.096 18.7048 396.467 64.6985" stroke="#9399FB" stroke-width="0.41" stroke-miterlimit="10"></path> <path d="M1568.89 67.6362C1481.82 121.456 1378.18 160.214 1262.43 155.287C1165.87 151.182 1081.96 119.621 997.761 87.2397C914.303 55.1532 830.706 31.4571 736.301 26.7487C614.897 20.6932 495.89 22.7202 386.52 67.3668" stroke="#9399FB" stroke-width="0.41" stroke-miterlimit="10"></path> <path d="M1577.57 70.934C1490.38 122.662 1388.23 159.817 1274.46 157.212C1172.54 154.877 1084.82 122.521 995.813 89.0492C909.855 56.7317 825.569 36.1148 728.922 33.1383C607.053 29.3793 486.046 27.5318 374.814 70.6902" stroke="#9399FB" stroke-width="0.41" stroke-miterlimit="10"></path> <path d="M1587.44 74.9108C1496.56 126.344 1391.21 162.575 1274.94 159.316C1171.88 156.429 1084.22 124.522 993.606 91.3967C950.575 75.6677 906.303 61.3757 859.911 52.0743C814.656 42.9911 769.694 40.8614 723.094 40.3354C599.674 38.9626 475.684 32.8429 361.504 74.667" stroke="#9399FB" stroke-width="0.41" stroke-miterlimit="10"></path> <path d="M1598.35 79.5805C1506.11 129.102 1401.12 163.883 1285.58 162.279C1177.68 160.791 1086.44 128.114 991.193 94.3472C948.938 79.3624 905.407 65.9812 859.893 57.5138C810.139 48.2509 762.022 47.8917 711.165 48.1868C587.692 48.8796 462.323 39.6167 346.816 79.3496" stroke="#9399FB" stroke-width="0.41" stroke-miterlimit="10"></path> <path d="M1610.19 84.9565C1517.13 132.054 1413.19 165.615 1299.06 165.834C1246.76 165.936 1194.76 159.496 1144.82 148.078C1089.99 135.556 1040.4 115.632 988.572 97.863C944.455 82.737 898.873 69.5868 851.256 62.0174C800.726 53.9733 752.058 55.5128 700.872 56.6675C576.383 59.4772 448.618 46.8786 330.886 84.7384" stroke="#9399FB" stroke-width="0.41" stroke-miterlimit="10"></path> <path d="M1622.83 91.0758C1525.73 137.082 1418.81 169.939 1302.25 170.105C1249.02 170.182 1196.05 163.806 1145.13 152.362C1089.31 139.802 1038.74 119.57 985.728 101.994C939.628 86.7137 891.839 73.7688 842.033 67.1616C790.623 60.3363 741.455 63.6463 689.77 65.7247C563.953 70.7667 433.947 54.9223 313.836 90.8833" stroke="#9399FB" stroke-width="0.41" stroke-miterlimit="10"></path> <path d="M1636.16 97.9518C1535.41 142.29 1426.24 174.685 1307.72 175.198C1254.1 175.429 1200.69 169.399 1149.27 158.238C1090.94 145.575 1038.24 124.522 982.728 106.727C934.887 91.3959 885.185 78.7589 833.499 73.0754C781.555 67.3663 732.335 71.9336 680.478 75.0768C552.35 82.813 419.258 63.4662 295.872 97.7722" stroke="#9399FB" stroke-width="0.41" stroke-miterlimit="10"></path> <path d="M1650.03 105.598C1547.68 147.102 1438.52 179.124 1320.58 181.074C1262.64 182.036 1204.81 176.006 1149.18 163.985C1089.91 151.181 1036.26 129.705 979.59 112.103C931.008 97.0025 880.512 84.853 828.12 79.8495C771.539 74.4483 718.819 81.3249 662.755 85.2892C534.714 94.3468 401.26 73.4861 277.167 105.432" stroke="#9399FB" stroke-width="0.41" stroke-miterlimit="10"></path> <path d="M1664.34 114.053C1581.18 144.856 1494.7 171.991 1402.38 182.793C1311.39 193.429 1218.4 187.489 1130.8 166.448C1042.38 145.216 963.075 108.164 871.565 93.128C831.189 86.4951 789.796 83.7625 748.506 85.4944C701.683 87.4445 656.152 96.1686 609.242 98.0417C492.683 102.686 371.055 86.9313 257.892 113.899" stroke="#9399FB" stroke-width="0.41" stroke-miterlimit="10"></path> <path d="M1678.96 123.329C1592.44 152.349 1503.8 179.252 1409.52 190.35C1315.7 201.383 1220.07 195.636 1129.77 173.761C1040.1 152.028 959.609 114.694 866.376 100.249C823.586 93.6157 779.831 91.409 736.266 94.0134C688.839 96.8487 642.998 106.612 595.467 109.127C477.202 115.387 353.608 97.6826 238.204 123.175" stroke="#9399FB" stroke-width="0.41" stroke-miterlimit="10"></path> <path d="M1691.53 133.965C1512.3 190.004 1324.44 228.12 1132.47 182.896C1083.2 171.286 1037.86 153.17 990.021 138.942C946.938 126.126 902.373 115.914 856.618 109.999C813.018 104.354 768.677 102.725 724.526 104.88C675.409 107.266 627.293 115.015 578.073 117.004C458.876 121.828 334.731 109.576 218.258 133.323" stroke="#9399FB" stroke-width="0.41" stroke-miterlimit="10"></path> <path d="M1694.13 147.73C1516.72 199.882 1319.03 232.79 1131.06 191.043C1081.27 179.984 1035.95 161.368 987.383 148.013C942.921 135.786 896.821 127.049 849.929 121.956C753.678 111.5 657.755 119.262 561.16 121.186C440.515 123.572 315.853 121.661 198.19 144.33" stroke="#9399FB" stroke-width="0.41" stroke-miterlimit="10"></path> <path d="M1689.6 163.985C1608.14 186 1525.65 201.332 1439.43 208.388C1339.47 216.56 1235.33 219.665 1137.11 200.921C1083.89 190.773 1036.36 171.144 984.762 157.801C938.559 145.844 890.494 138.275 841.998 133.797C744.644 124.791 643.981 124.56 545.954 124.752C422.913 124.996 297.751 133.9 178.244 156.223" stroke="#9399FB" stroke-width="0.41" stroke-miterlimit="10"></path> <path d="M1681.89 181.805C1604.92 200.754 1526.98 209.363 1446.33 213.622C1343.99 219.024 1238.74 227.08 1137.58 210.223C1082.94 201.114 1034.9 181.202 982.125 168.347C932.37 156.223 880.581 149.655 828.603 145.69C778.142 141.841 727.439 140.379 676.857 137.813C626.223 135.247 575.917 129.076 525.146 128.512C401.173 127.126 278.287 147.05 158.556 168.989" stroke="#9399FB" stroke-width="0.41" stroke-miterlimit="10"></path> <path d="M1675.03 200.319C1603.54 216.009 1531.91 217.972 1457.95 219.832C1351.51 222.526 1243.65 236.113 1137.9 220.718C1082.03 212.584 1033.45 192.416 979.642 179.933C928.233 168.014 874.616 162.561 821.121 159.098C769.005 155.723 716.664 154.197 664.651 149.924C611.156 145.537 559.16 134.439 505.199 133.285C379.744 130.603 259.685 161.189 139.264 182.717" stroke="#9399FB" stroke-width="0.41" stroke-miterlimit="10"></path> <path d="M1672.98 218.588C1605.16 231.995 1538.34 228.159 1469.03 228.428C1358.61 228.839 1247.81 247.287 1137.78 232.7C1081.01 225.169 1032.17 204.54 977.435 192.659C924.543 181.177 869.462 176.892 814.69 174.018C759.178 171.106 703.355 169.733 648.273 163.421C595.726 157.391 546.213 142.419 492.821 140.148C362.608 134.606 244.894 177.431 120.507 197.393" stroke="#9399FB" stroke-width="0.41" stroke-miterlimit="10"></path> <path d="M1679.76 235.703C1612.3 248.288 1546.97 240.488 1478.57 240.347C1365.85 240.116 1253 260.605 1140.56 247.018C1081.96 239.936 1032.03 218.101 975.419 206.682C922.182 195.944 866.79 193.07 811.932 191.03C754.161 188.875 695.925 187.99 638.912 180.074C584.02 172.44 534.3 152.734 478.184 149.514C344.523 141.829 229.861 195.328 102.613 213.046" stroke="#9399FB" stroke-width="0.41" stroke-miterlimit="10"></path> <path d="M1702.18 250.122C1628.79 261.515 1555.06 258.718 1480.6 259.436C1367.06 260.54 1254.08 273.369 1141.02 258.974C1081.32 251.367 1028.38 231.199 970.16 220.358C916.492 210.351 861.048 207.913 805.95 206.617C750.178 205.309 694.097 205.206 638.791 199.048C583.934 192.941 532.852 177.302 477.063 174.903C340.765 169.066 216.396 209.889 85.562 229.672" stroke="#9399FB" stroke-width="0.41" stroke-miterlimit="10"></path> <path d="M1738.58 262.221C1655.57 274.062 1572.04 280.067 1487.67 283.223C1369.45 287.662 1252.43 289.201 1135.9 270.919C1076.88 261.656 1021.62 243.156 962.747 234.099C910.768 226.106 857.514 225.452 804.639 226.234C753.006 227.004 701.303 229.057 649.721 226.234C592.019 223.091 536.524 210.98 478.512 209.004C339.765 204.296 205.018 229.044 69.6151 247.313" stroke="#9399FB" stroke-width="0.41" stroke-miterlimit="10"></path> <path d="M1779.14 274.217C1684.5 287.226 1591.06 302.891 1495 309.37C1370.82 317.734 1250.38 306.714 1129.82 283.775C1071.46 272.677 1014.54 255.28 954.8 248.827C904.838 243.426 854.325 245.145 804.243 248.648C753.558 252.201 702.976 257.308 651.963 257.436C595.261 257.577 539.11 249.751 482.477 247.788C339.989 242.862 196.001 251.162 54.9271 266.044" stroke="#9399FB" stroke-width="0.41" stroke-miterlimit="10"></path> <path d="M1814.05 288.291C1710.03 301.402 1609.57 325.727 1504.49 335.221C1441.55 340.917 1380.85 341.071 1318.18 333.219C1253.05 325.06 1189.19 311.961 1125.84 298.246C1067.17 285.558 1008.73 269.393 947.489 265.441C900.252 262.388 853.066 266.07 806.484 271.933C757.729 278.065 709.406 286.071 660.117 289.535C602.26 293.602 544.351 289.291 486.494 287.213C339.54 281.927 188.312 274.242 41.6 285.789" stroke="#9399FB" stroke-width="0.41" stroke-miterlimit="10"></path> <path d="M1833.54 306.675C1723.87 317.054 1619.5 348.422 1509.48 359.02C1446.95 365.037 1386.13 365.139 1324.11 355.928C1254.72 345.626 1187.42 328.78 1119.8 313.565C1061.76 300.504 1003.04 287.033 942.076 284.827C894.356 283.107 847.205 288.111 800.709 295.732C753.471 303.481 706.803 313.128 658.945 318.671C599.415 325.573 539.213 324.803 479.184 323.071C399.777 320.788 320.577 315.759 241.359 311.358C171.572 307.483 99.854 301.749 29.9116 306.624" stroke="#9399FB" stroke-width="0.41" stroke-miterlimit="10"></path> <path d="M1840.93 328.613C1729.67 338.826 1622.33 365.639 1510.61 375.107C1447.5 380.457 1387.21 379.611 1324.68 370.938C1256.1 361.418 1189.02 346.78 1121.63 333.514C1062.34 321.852 1003.8 310.716 942.145 310.113C892.063 309.626 842.395 314.719 793.313 321.762C743.731 328.883 694.563 337.645 644.584 343.175C582.383 350.064 520.888 349.461 458.203 347.293C380.762 344.599 303.509 339.749 226.24 335.285C157.901 331.333 88.5965 326.099 19.9816 328.588" stroke="#9399FB" stroke-width="0.41" stroke-miterlimit="10"></path> <path d="M1846.88 351.668C1736.6 358.711 1628.41 378.379 1517.92 385.191C1386 393.325 1261.34 374.389 1132.47 355.696C1069.93 346.626 1008.02 338.3 944.093 338.069C890.339 337.876 836.826 341.815 783.607 347.191C728.491 352.759 673.616 359.661 618.31 364.1C557.505 368.962 497.355 368.744 436.325 367.012C295.286 363.009 153.125 348.358 11.9128 351.655" stroke="#9399FB" stroke-width="0.41" stroke-miterlimit="10"></path> <path d="M1851.31 375.878C1740.44 378.906 1630.31 391.222 1519.39 394.57C1391 398.445 1265.65 388.784 1138.27 378.123C1016.19 367.911 896.546 365.884 774.039 372.799C651.514 379.714 530.473 387.065 407.466 384.91C273.857 382.575 139.678 373.145 6.017 375.865" stroke="#9399FB" stroke-width="0.41" stroke-miterlimit="10"></path> <path d="M1854.05 401.242C1744.42 401.216 1634.86 406.425 1525.23 407.182C1397.59 408.067 1270.51 405.912 1142.99 402.127C1015.6 398.342 888.529 396.841 761.074 399.522C635.292 402.178 509.733 404.936 383.882 404.205C256.754 403.461 129.42 399.176 2.31036 401.242" stroke="#9399FB" stroke-width="0.41" stroke-miterlimit="10"></path> <path d="M39.7555 427.798C40.4968 361.56 71.115 294.603 114.594 237.101C147.057 194.161 197.363 160.56 250.117 131.681C292.079 108.703 335.593 87.6373 381.572 69.381C406.742 59.3868 435.791 52.0997 459.513 40.3735" stroke="#9399FB" stroke-width="0.41" stroke-miterlimit="10"></path> <path d="M82.7003 427.798C83.7519 389.669 100.164 356.159 116.818 320.544C131.42 289.317 145.229 257.051 163.4 226.876C190.157 182.447 242.79 153.337 295.562 126.883C338.386 105.419 379.141 82.0054 423.034 61.6707C447.618 50.2781 481.856 40.4379 502.406 24.9912" stroke="#9399FB" stroke-width="0.41" stroke-miterlimit="10"></path> <path d="M129.592 427.798C132.092 389.682 154.797 359.225 173.244 324.534C191.191 290.792 199.862 255.588 214.137 221.077C225.015 194.789 241.652 175.943 270.201 158.88C292.975 145.267 318.508 134.683 343.764 123.894C388.295 104.867 427.171 77.7203 469.047 55.474C492.527 43.0037 526.369 30.9825 544.23 13.7012" stroke="#9399FB" stroke-width="0.41" stroke-miterlimit="10"></path> <path d="M180.106 427.798C184.795 388.681 215.327 361.29 236.187 326.599C258.358 289.74 259.996 249.135 270.771 210.108C278.511 182.088 291.545 163.999 323.904 148.359C345.885 137.737 370.211 130.347 393.898 122.174C437.963 106.997 474.616 76.245 512.302 53.4983C534.369 40.1813 570.59 25.004 585.037 6.13184" stroke="#9399FB" stroke-width="0.41" stroke-miterlimit="10"></path> <path d="M233.963 427.811C241.204 387.36 279.873 364.177 302.94 329.037C327.421 291.741 322.887 247.159 328.404 206.823C330.576 190.914 331.783 169.322 346.54 156.685C354.091 150.219 365.366 145.267 375.365 141.239C397.363 132.399 421.741 127.524 445.153 121.25C469.461 114.733 484.839 101.775 503.613 88.8944C521.956 76.3215 540.455 63.8769 558.936 51.4067C579.469 37.538 613.052 21.2702 624.93 2.01318" stroke="#9399FB" stroke-width="0.41" stroke-miterlimit="10"></path> <path d="M290.873 427.811C299.992 388.617 341.213 369.476 367.642 337.312C400.208 297.682 386.571 242.759 388.399 198.446C389.019 183.564 387.985 163.024 400.277 150.528C406.725 143.972 418.138 139.584 427.792 136.223C449.652 128.615 473.685 125.677 496.683 120.622C520.957 115.285 535.197 101.711 552.816 88.7793C569.28 76.6811 585.796 64.6086 602.191 52.4462C621.483 38.1285 653.859 20.5906 663.91 1" stroke="#9399FB" stroke-width="0.41" stroke-miterlimit="10"></path> <path d="M350.54 427.811C361.659 386.731 410.862 371.349 438.377 337.658C470.719 298.067 450.686 240 448.221 196.495C446.635 168.463 445.928 145.524 483.149 133.233C503.665 126.459 526.335 124.548 547.696 119.788C571.435 114.502 585.244 100.441 601.984 87.5091C617.724 75.3467 633.412 63.1459 648.877 50.7783C666.048 37.0507 692.856 20.7573 702.079 2.7832" stroke="#9399FB" stroke-width="0.41" stroke-miterlimit="10"></path> <path d="M412.655 427.811C424.258 385.435 479.684 373.247 507.096 338.274C539.024 297.566 512.526 238.115 506.837 194.494C503.286 167.244 503.889 146.897 538.645 133.721C557.195 126.69 578.055 123.945 597.295 118.21C617.966 112.039 630.809 99.6588 645.825 87.83C660.807 76.0397 675.633 64.1339 690.218 52.0614C706.251 38.7829 729.767 23.6954 739.49 7.01709" stroke="#9399FB" stroke-width="0.41" stroke-miterlimit="10"></path> <path d="M476.96 427.811C482.287 405.475 495.114 394.044 518.181 379.572C539.076 366.461 562.298 354.298 574.469 335.362C598.777 297.515 575.779 248.532 566.022 209.877C558.988 181.998 556.609 159.457 588.175 140.521C605.38 130.193 626.654 124.561 644.929 115.452C677.685 99.1327 704.837 73.0375 731.284 51.4455C746.558 38.9752 761.557 26.3254 776.228 13.4702" stroke="#9399FB" stroke-width="0.41" stroke-miterlimit="10"></path> <path d="M543.161 427.811C549.385 405.257 562.211 392.068 584.003 375.967C603.398 361.624 625.827 347.537 635.964 327.947C654.704 291.665 630.93 246.903 622.206 210.929C616.104 185.796 620.189 168.386 642.17 148.886C658.203 134.67 679.305 124.407 697.079 111.552C723.612 92.3588 748.334 71.2544 773.642 51.1121C785.158 41.939 798.226 28.0703 812.38 21.7197" stroke="#9399FB" stroke-width="0.41" stroke-miterlimit="10"></path> <path d="M610.966 427.811C621.276 387.334 662.634 365.331 685.529 329.884C707.682 295.565 689.184 254.087 681.253 218.588C675.478 192.775 679.96 174.185 699.597 152.593C713.63 137.159 732.094 124.586 747.696 110.115C769.125 90.2289 791.641 71.4722 815.363 53.0234C821.604 48.161 839.205 30.3922 847.963 31.4955" stroke="#9399FB" stroke-width="0.41" stroke-miterlimit="10"></path> <path d="M680.064 427.799C684.805 403.307 695.063 383.832 710.941 362.176C721.56 347.704 733.06 333.374 740.093 317.645C755.247 283.736 742.3 247.711 738.525 213.264C733.99 171.953 768.677 143.523 797.175 111.27C804.105 103.431 868.738 35.3062 883.047 42.4907" stroke="#9399FB" stroke-width="0.41" stroke-miterlimit="10"></path> <path d="M750.179 427.798C755.316 384.011 780.711 347.1 792.382 304.673C800.174 276.333 797.709 248.057 797.537 219.383C797.313 179.265 821.38 149.244 846.015 115.182C850.17 109.447 907.993 45.0304 917.716 54.4087" stroke="#9399FB" stroke-width="0.41" stroke-miterlimit="10"></path> <path d="M821.017 427.785C823.966 358.365 844.412 289.021 855.859 220.063C861.721 184.73 876.237 154.376 894.701 121.956C897.649 116.76 942.818 57.1798 952.058 66.8789" stroke="#9399FB" stroke-width="0.41" stroke-miterlimit="10"></path> <path d="M892.287 427.785C891.425 384.794 891.012 341.533 894.942 298.605C897.373 272.112 906.355 246.235 915.182 220.589C925.388 190.927 931.715 161.189 943.645 131.771C945.679 126.754 974.884 72.1264 986.09 79.606" stroke="#9399FB" stroke-width="0.41" stroke-miterlimit="10"></path> <path d="M963.712 427.798C960.971 385.319 953.024 343.033 951.489 300.542C950.576 275.242 961.264 253.997 973.056 230.801C986.762 203.808 986.469 173.145 993.4 144.754C995.244 137.184 1005.9 92.2938 1019.97 92.3066" stroke="#9399FB" stroke-width="0.41" stroke-miterlimit="10"></path> <path d="M1035 427.811C1031.53 386.385 1016.24 346.305 1012.45 305.059C1010.29 281.478 1019.54 265.531 1032.12 244.85C1047.02 220.397 1041.6 187.643 1044.34 161.073C1046.26 142.419 1047.4 122.842 1053.64 104.611" stroke="#9399FB" stroke-width="0.41" stroke-miterlimit="10"></path> <path d="M1105.84 427.811C1101.75 389.72 1085.56 353.259 1081.29 315.412C1078.82 293.563 1088.79 277.655 1098.08 257.885C1109.46 233.663 1100.98 204.296 1100.37 179.035C1099.89 159.059 1101.08 134.35 1087.27 116.234" stroke="#9399FB" stroke-width="0.41" stroke-miterlimit="10"></path> <path d="M1175.95 427.811C1172.16 393.916 1156.18 361.97 1151.97 328.383C1149.44 308.151 1157.3 289.881 1162.73 270.368C1170.3 243.221 1160.47 218.549 1154.97 191.903C1149.78 166.77 1143.96 146.05 1120.84 126.832" stroke="#9399FB" stroke-width="0.41" stroke-miterlimit="10"></path> <path d="M1245.05 427.824C1242.22 399.214 1228.98 374.017 1223.88 345.959C1219.47 321.673 1226.59 297.335 1229.14 273.19C1232.12 245.081 1219.48 225.837 1208.3 200.408C1200.99 183.807 1197.23 167.886 1181.94 153.902C1173.95 146.602 1163.99 142.022 1154.49 136.133" stroke="#9399FB" stroke-width="0.41" stroke-miterlimit="10"></path> <path d="M1312.86 427.824C1310.98 403.653 1300.24 384.524 1294.87 361.2C1288.72 334.4 1293.46 306.008 1293.63 278.976C1293.74 261.759 1293.63 243.195 1282.36 227.62C1276.38 219.345 1266.15 213.392 1260.02 205.258C1248.05 189.439 1244.1 173.621 1225.16 160.778C1214.02 153.235 1201.23 149.052 1188.3 143.779" stroke="#9399FB" stroke-width="0.41" stroke-miterlimit="10"></path> <path d="M1379.04 427.824C1378.28 415.238 1377.85 405.09 1372.97 393.364C1370.01 386.231 1365.56 379.585 1363.47 372.221C1355.33 343.56 1358.59 312.5 1356.73 283.325C1355.59 265.467 1356.63 242.284 1341.59 227.03C1333.16 218.485 1319.32 214.829 1310.32 206.9C1301.89 199.485 1298.7 189.452 1290.87 181.523C1283.79 174.352 1275.12 168.335 1265.22 163.357C1251.96 156.686 1237.31 153.068 1222.24 149.488" stroke="#9399FB" stroke-width="0.41" stroke-miterlimit="10"></path> <path d="M1443.34 427.811C1442.59 414.25 1442.22 404.679 1436.41 392.324C1433.48 386.115 1429.74 380.586 1427.71 374.042C1418.05 342.867 1420.36 308.689 1416.17 276.898C1413.81 258.988 1413.9 235.125 1394.42 222.039C1383.97 215.008 1369.14 213.302 1358.8 206.323C1349.52 200.062 1345.82 189.862 1337.66 182.691C1328.46 174.583 1316.82 168.155 1304.11 163.357C1289.39 157.802 1272.89 154.12 1256.45 152.914" stroke="#9399FB" stroke-width="0.41" stroke-miterlimit="10"></path> <path d="M1505.48 427.811C1504.67 414.956 1504.46 403.487 1498.43 391.452C1494.22 383.075 1489.7 376.352 1487.44 367.346C1480.17 338.415 1477.44 308.689 1470.43 279.631C1465.39 258.757 1463.84 235.164 1441.83 219.768C1431.53 212.571 1417.86 209.043 1406.93 202.538C1395.59 195.803 1389.07 185.796 1378.42 178.393C1368.56 171.542 1356.92 166.154 1344.63 162.087C1329.6 157.096 1307.74 150.861 1291.01 153.722" stroke="#9399FB" stroke-width="0.41" stroke-miterlimit="10"></path> <path d="M1565.14 427.811C1563.63 403.999 1554.2 386.949 1547.15 364.549C1537.04 332.501 1527.82 301.838 1513.74 270.431C1505.74 252.599 1500.08 235.048 1484.24 220.024C1474.96 211.236 1463.46 204.629 1452.33 197.252C1429.24 181.959 1412.76 166.41 1382.95 157.648C1368.49 153.401 1341.08 145.716 1325.96 151.643" stroke="#9399FB" stroke-width="0.41" stroke-miterlimit="10"></path> <path d="M1622.04 427.811C1618.81 374.273 1593.31 322.34 1558.21 276.077C1537.23 248.416 1523.61 214.919 1495.46 190.504C1475.01 172.774 1450.4 158.751 1420.71 150.81C1406.64 147.051 1375.3 138.609 1361.32 146.345" stroke="#9399FB" stroke-width="0.41" stroke-miterlimit="10"></path> <path d="M1675.89 427.81C1674.38 399.74 1667.14 374.863 1657.34 347.947C1645.24 314.731 1618.12 293.986 1588.75 268.558C1571.11 253.304 1558.23 237.485 1551.15 217.984C1546.8 206.027 1545.54 193.313 1536.85 182.459C1520.91 162.548 1486.57 148.962 1458 141.521C1444.48 138.005 1410.07 128.64 1397.25 137.505" stroke="#9399FB" stroke-width="0.41" stroke-miterlimit="10"></path> <path d="M1726.41 427.811C1724.94 396.148 1718.06 366.589 1706.94 336.055C1696.01 306.059 1660.98 289.702 1629.45 271.522C1601.35 255.319 1582.78 241.193 1580.57 214.303C1579.45 200.755 1583.73 186.245 1576.92 173.3C1565.66 151.926 1522.01 137.352 1494.87 129.987C1481.32 126.305 1446.86 116.119 1433.72 124.817" stroke="#9399FB" stroke-width="0.41" stroke-miterlimit="10"></path> <path d="M1773.28 427.811C1772.01 394.634 1765.87 362.766 1755.09 330.628C1742.99 294.526 1692.81 281.94 1653.53 264.71C1621.61 250.713 1606.64 237.64 1610.49 209.069C1612.49 194.174 1621.21 178.073 1616.11 163.152C1608.4 140.572 1558.06 124.266 1531.37 116.132C1517.53 111.911 1485.03 100.493 1470.86 107.96" stroke="#9399FB" stroke-width="0.41" stroke-miterlimit="10"></path> <path d="M1816.24 427.811C1815.19 393.466 1810.14 360.058 1799.49 326.612C1792.95 306.098 1781.4 295.949 1756.59 285.455C1737.15 277.218 1716.03 271.381 1695.65 264.633C1660.71 253.048 1635.35 241.424 1640.34 210.556C1643.41 191.671 1659.5 171.414 1654.88 152.195C1649.34 129.141 1593.61 109.588 1567.63 100.133C1553.02 94.8217 1525.85 83.211 1508.72 86.598" stroke="#9399FB" stroke-width="0.41" stroke-miterlimit="10"></path> <path d="M1 427.192C494.648 427.271 988.296 427.192 1481.94 427.192C1606.3 427.192 1730.65 427.223 1855 427.192C1851.74 574.566 1775.18 699.405 1647.79 786.024C1585.85 828.131 1514.6 863.406 1440.57 883.631C1337.23 945.04 1222.95 971.985 1101.86 946.648C1013.74 928.222 933.042 888.791 852.963 851.509C777.193 816.235 698.424 779.542 613.155 769.764C493.786 756.068 392.433 808.797 308.595 883.217C288.424 875.923 269.184 866.049 250.772 855.618C234.756 846.541 219.275 836.651 204.414 826.045C189.467 815.39 165.865 802.093 162.038 783.874C157.263 761.148 175.227 733.98 180.399 712.146C188.76 676.823 174.072 656.12 140.092 641.421C112.922 629.668 83.3379 622.708 57.0815 609.108C35.0316 597.69 25.7738 586.621 18.8606 564.74C4.86174 520.451 1.84476 473.009 1 427.192Z" stroke="#9399FB" stroke-width="0.41" stroke-miterlimit="10"></path> <path d="M307.629 882.883C392.122 809.546 495.217 756.61 614.379 769.78C700.01 779.24 777.865 816.251 853.359 852.433C932.128 890.177 1012.35 928.796 1100.2 944.642C1221.86 966.587 1337.2 944.387 1441.86 883.297" stroke="#9399FB" stroke-width="0.41" stroke-miterlimit="10"></path> <path d="M304.888 881.848C389.709 810.056 493.441 757.629 611.707 769.287C699.131 777.902 777.538 815.486 854.118 852.736C932.887 891.053 1013.67 928.509 1102.46 941.632C1224.07 959.628 1339.94 942.349 1445.57 882.214" stroke="#9399FB" stroke-width="0.41" stroke-miterlimit="10"></path> <path d="M300.458 880.096C385.95 809.785 490.045 758.41 607.604 768.491C697.355 776.183 776.866 814.229 855.187 852.45C934.594 891.196 1016.07 926.71 1106.08 937.3C1227.78 951.617 1344.61 939.403 1451.52 880.463" stroke="#9399FB" stroke-width="0.41" stroke-miterlimit="10"></path> <path d="M294.492 877.58C380.33 809.243 483.752 759.476 599.932 767.137C693.304 773.284 775.262 812.11 856.566 851.526C938.128 891.068 1020.98 923.795 1113.53 931.901C1234.6 942.492 1351.9 935.023 1459.53 877.93" stroke="#9399FB" stroke-width="0.41" stroke-miterlimit="10"></path> <path d="M287.114 874.283C374.175 807.476 477.822 759.365 593.571 765.481C690.132 770.577 774.038 809.753 858.238 849.949C941.697 889.779 1025.29 919.193 1119.7 925.038C1241.1 932.555 1360.11 930.038 1469.48 874.618" stroke="#9399FB" stroke-width="0.41" stroke-miterlimit="10"></path> <path d="M278.425 870.19C365.624 805.979 467.771 759.858 581.537 763.091C683.46 765.99 771.176 806.154 860.186 847.703C946.144 887.82 1030.43 913.412 1127.08 917.106C1248.95 921.773 1369.95 924.066 1481.19 870.493" stroke="#9399FB" stroke-width="0.41" stroke-miterlimit="10"></path> <path d="M268.563 865.253C359.435 801.408 464.788 756.435 581.054 760.48C684.115 764.063 771.78 803.669 862.393 844.789C905.424 864.314 949.696 882.055 996.088 893.6C1041.34 904.876 1086.31 907.519 1132.9 908.172C1256.33 909.876 1380.31 917.473 1494.49 865.556" stroke="#9399FB" stroke-width="0.41" stroke-miterlimit="10"></path> <path d="M257.651 859.457C349.885 797.984 454.876 754.81 570.418 756.801C678.322 758.648 769.556 799.211 864.807 841.126C907.062 859.727 950.593 876.338 996.106 886.848C1045.86 898.347 1093.98 898.792 1144.83 898.426C1268.31 897.566 1393.68 909.064 1509.18 859.743" stroke="#9399FB" stroke-width="0.41" stroke-miterlimit="10"></path> <path d="M245.807 852.783C338.868 794.321 442.808 752.66 556.936 752.389C609.242 752.262 661.237 760.257 711.182 774.43C766.005 789.973 815.604 814.706 867.427 836.762C911.544 855.539 957.126 871.862 1004.74 881.258C1055.27 891.243 1103.94 889.332 1155.13 887.899C1279.62 884.411 1407.38 900.05 1525.11 853.054" stroke="#9399FB" stroke-width="0.41" stroke-miterlimit="10"></path> <path d="M233.17 845.187C330.266 788.078 437.188 747.293 553.747 747.086C606.984 746.991 659.945 754.906 710.872 769.111C766.695 784.702 817.259 809.817 870.272 831.635C916.372 850.602 964.161 866.671 1013.97 874.872C1065.38 883.345 1114.54 879.236 1166.23 876.656C1292.05 870.397 1422.05 890.065 1542.16 845.426" stroke="#9399FB" stroke-width="0.41" stroke-miterlimit="10"></path> <path d="M219.844 836.652C320.594 781.614 429.757 741.402 548.281 740.765C601.898 740.478 655.307 747.963 706.734 761.818C765.056 777.537 817.759 803.67 873.271 825.759C921.112 844.79 970.815 860.476 1022.5 867.531C1074.44 874.618 1123.66 868.949 1175.52 865.047C1303.65 855.444 1436.74 879.46 1560.13 836.875" stroke="#9399FB" stroke-width="0.41" stroke-miterlimit="10"></path> <path d="M205.965 827.16C308.319 775.641 417.482 735.891 535.42 733.471C593.364 732.276 651.187 739.761 706.82 754.683C766.091 770.577 819.741 797.236 876.409 819.086C924.991 837.83 975.487 852.911 1027.88 859.122C1084.46 865.827 1137.18 857.291 1193.24 852.37C1321.29 841.127 1454.74 867.021 1578.83 827.367" stroke="#9399FB" stroke-width="0.41" stroke-miterlimit="10"></path> <path d="M191.656 816.665C274.822 778.428 361.297 744.746 453.617 731.337C544.609 718.135 637.601 725.508 725.198 751.626C813.621 777.982 892.925 823.975 984.435 842.64C1024.81 850.873 1066.2 854.265 1107.49 852.115C1154.32 849.695 1199.85 838.865 1246.76 836.54C1363.32 830.775 1484.94 850.332 1598.11 816.856" stroke="#9399FB" stroke-width="0.41" stroke-miterlimit="10"></path> <path d="M177.037 805.151C263.564 769.128 352.194 735.732 446.479 721.957C540.299 708.261 635.929 715.396 726.232 742.549C815.897 769.526 896.39 815.869 989.624 833.801C1032.41 842.035 1076.17 844.774 1119.73 841.541C1167.16 838.022 1213 825.902 1260.53 822.781C1378.8 815.009 1502.39 836.986 1617.8 805.343" stroke="#9399FB" stroke-width="0.41" stroke-miterlimit="10"></path> <path d="M164.469 791.949C343.695 722.386 531.559 675.072 723.525 731.209C772.797 745.622 818.138 768.108 865.979 785.77C909.061 801.679 953.627 814.356 999.381 821.698C1042.98 828.705 1087.32 830.727 1131.47 828.052C1180.59 825.09 1228.71 815.471 1277.93 813.002C1397.12 807.014 1521.27 822.223 1637.74 792.745" stroke="#9399FB" stroke-width="0.41" stroke-miterlimit="10"></path> <path d="M161.866 774.861C339.282 710.124 536.972 669.276 724.939 721.097C774.728 734.825 820.052 757.933 868.617 774.511C913.078 789.688 959.178 800.533 1006.07 806.856C1102.32 819.835 1198.24 810.2 1294.84 807.811C1415.48 804.849 1540.15 807.222 1657.81 779.082" stroke="#9399FB" stroke-width="0.41" stroke-miterlimit="10"></path> <path d="M166.399 754.684C247.858 727.356 330.351 708.325 416.568 699.566C516.525 689.421 620.672 685.567 718.888 708.834C772.107 721.431 819.638 745.797 871.237 762.36C917.44 777.202 965.505 786.598 1014 792.156C1111.35 803.336 1212.02 803.623 1310.04 803.384C1433.09 803.081 1558.25 792.029 1677.76 764.319" stroke="#9399FB" stroke-width="0.41" stroke-miterlimit="10"></path> <path d="M174.106 732.563C251.082 709.041 329.024 698.355 409.673 693.068C512.009 686.363 617.259 676.362 718.423 697.288C773.056 708.595 821.104 733.312 873.875 749.269C923.629 764.319 975.418 772.472 1027.4 777.393C1077.86 782.171 1128.56 783.986 1179.14 787.172C1229.78 790.357 1280.08 798.017 1330.85 798.718C1454.83 800.437 1577.71 775.705 1697.44 748.473" stroke="#9399FB" stroke-width="0.41" stroke-miterlimit="10"></path> <path d="M180.968 709.582C252.462 690.105 324.093 687.669 398.053 685.36C504.492 682.015 612.345 665.15 718.095 684.261C773.969 694.358 822.551 719.392 876.357 734.888C927.767 749.683 981.383 756.451 1034.88 760.751C1086.99 764.939 1139.34 766.834 1191.35 772.137C1244.84 777.584 1296.84 791.359 1350.8 792.793C1476.26 796.121 1596.31 758.155 1716.73 731.432" stroke="#9399FB" stroke-width="0.41" stroke-miterlimit="10"></path> <path d="M183.019 686.905C250.841 670.262 317.663 675.024 386.967 674.69C497.389 674.18 608.19 651.279 718.215 669.387C774.986 678.735 823.827 704.343 878.564 719.09C931.456 733.343 986.538 738.662 1041.31 742.23C1096.82 745.845 1152.64 747.549 1207.73 755.384C1260.27 762.869 1309.79 781.454 1363.18 784.273C1493.39 791.153 1611.11 737.993 1735.49 713.213" stroke="#9399FB" stroke-width="0.41" stroke-miterlimit="10"></path> <path d="M176.244 665.66C243.704 650.037 309.026 659.72 377.434 659.895C490.149 660.182 603.001 634.749 715.44 651.614C774.038 660.405 823.965 687.51 880.581 701.683C933.818 715.013 989.21 718.58 1044.07 721.112C1101.84 723.788 1160.07 724.887 1217.09 734.713C1271.98 744.188 1321.7 768.65 1377.82 772.647C1511.48 782.187 1626.14 715.777 1753.39 693.784" stroke="#9399FB" stroke-width="0.41" stroke-miterlimit="10"></path> <path d="M153.815 647.76C227.205 633.618 300.94 637.09 375.4 636.198C488.942 634.829 601.915 618.903 714.974 636.772C774.676 646.215 827.62 671.25 885.839 684.707C939.507 697.129 994.951 700.155 1050.05 701.763C1105.82 703.388 1161.9 703.515 1217.21 711.159C1272.07 718.74 1323.15 738.153 1378.94 741.131C1515.23 748.377 1639.6 697.702 1770.44 673.145" stroke="#9399FB" stroke-width="0.41" stroke-miterlimit="10"></path> <path d="M117.421 632.742C200.431 618.043 283.959 610.59 368.331 606.672C486.545 601.162 603.57 599.251 720.095 621.945C779.124 633.443 834.378 656.408 893.252 667.651C945.231 677.572 998.485 678.385 1051.36 677.413C1102.99 676.458 1154.7 673.91 1206.28 677.413C1263.98 681.315 1319.48 696.349 1377.49 698.801C1516.23 704.646 1650.98 673.926 1786.38 651.248" stroke="#9399FB" stroke-width="0.41" stroke-miterlimit="10"></path> <path d="M76.8557 617.851C171.503 601.703 264.943 582.258 361.004 574.216C485.183 563.832 605.622 577.512 726.18 605.987C784.538 619.762 841.464 641.357 901.2 649.368C951.161 656.072 1001.67 653.938 1051.76 649.591C1102.44 645.179 1153.02 638.841 1204.04 638.682C1260.74 638.507 1316.89 648.221 1373.52 650.658C1516.01 656.773 1660 646.469 1801.07 627.996" stroke="#9399FB" stroke-width="0.41" stroke-miterlimit="10"></path> <path d="M41.9446 600.381C145.97 584.105 246.427 553.911 351.505 542.126C414.448 535.055 475.15 534.864 537.817 544.61C602.949 554.739 666.806 570.999 730.163 588.023C788.83 603.773 847.273 623.839 908.51 628.744C955.747 632.535 1002.93 627.964 1049.52 620.686C1098.27 613.074 1146.59 603.136 1195.88 598.836C1253.74 593.788 1311.65 599.139 1369.51 601.719C1516.46 608.28 1667.69 617.82 1814.4 603.487" stroke="#9399FB" stroke-width="0.41" stroke-miterlimit="10"></path> <path d="M22.4634 577.56C132.127 564.676 236.497 525.738 346.522 512.584C409.052 505.115 469.874 504.988 531.886 516.422C601.277 529.21 668.581 550.12 736.196 569.008C794.243 585.22 852.963 601.942 913.923 604.681C961.643 606.815 1008.79 600.604 1055.29 591.144C1102.53 581.525 1149.2 569.549 1197.05 562.67C1256.58 554.102 1316.79 555.057 1376.82 557.207C1456.22 560.042 1535.42 566.285 1614.64 571.747C1684.43 576.557 1756.15 583.675 1826.09 577.624" stroke="#9399FB" stroke-width="0.41" stroke-miterlimit="10"></path> <path d="M15.0676 550.327C126.334 537.651 233.67 504.367 345.385 492.614C408.5 485.973 468.788 487.024 531.317 497.789C599.898 509.606 666.978 527.777 734.369 544.244C793.657 558.72 852.204 572.544 913.854 573.292C963.936 573.897 1013.6 567.575 1062.69 558.832C1112.27 549.993 1161.44 539.116 1211.42 532.252C1273.62 523.7 1335.11 524.449 1397.8 527.14C1475.24 530.484 1552.49 536.504 1629.76 542.046C1698.1 546.951 1767.4 553.449 1836.02 550.359" stroke="#9399FB" stroke-width="0.41" stroke-miterlimit="10"></path> <path d="M9.12012 521.709C119.404 512.966 227.585 488.552 338.075 480.096C469.995 469.999 594.657 493.505 723.526 516.709C786.072 527.968 847.981 538.304 911.906 538.59C965.661 538.829 1019.17 533.94 1072.39 527.267C1127.51 520.356 1182.38 511.788 1237.69 506.277C1298.49 500.242 1358.64 500.512 1419.67 502.662C1560.71 507.631 1702.87 525.818 1844.09 521.725" stroke="#9399FB" stroke-width="0.41" stroke-miterlimit="10"></path> <path d="M4.68896 491.658C115.559 487.899 225.688 472.611 336.609 468.454C464.995 463.645 590.347 475.637 717.732 488.871C839.808 501.548 959.453 504.064 1081.96 495.48C1204.48 486.896 1325.53 477.771 1448.53 480.446C1582.14 483.345 1716.32 495.05 1849.98 491.674" stroke="#9399FB" stroke-width="0.41" stroke-miterlimit="10"></path> <path d="M1.94824 460.174C111.577 460.205 221.137 453.74 330.765 452.8C458.41 451.701 585.485 454.377 713.009 459.075C840.395 463.773 967.471 465.636 1094.93 462.308C1220.71 459.011 1346.27 455.587 1472.12 456.495C1599.25 457.419 1726.58 462.738 1853.69 460.174" stroke="#9399FB" stroke-width="0.41" stroke-miterlimit="10"></path> <path d="M1816.24 427.209C1815.5 509.432 1784.88 592.547 1741.41 663.925C1708.94 717.227 1658.64 758.936 1605.88 794.784C1563.92 823.307 1520.41 849.456 1474.43 872.118C1449.26 884.524 1420.21 893.57 1396.49 908.125" stroke="#9399FB" stroke-width="0.41" stroke-miterlimit="10"></path> <path d="M1773.3 427.207C1772.25 474.538 1755.84 516.135 1739.18 560.344C1724.58 599.107 1710.77 639.159 1692.6 676.616C1665.84 731.766 1613.21 767.901 1560.44 800.739C1517.61 827.382 1476.86 856.446 1432.97 881.688C1408.38 895.83 1374.14 908.045 1353.59 927.219" stroke="#9399FB" stroke-width="0.41" stroke-miterlimit="10"></path> <path d="M1726.41 427.208C1723.91 474.522 1701.2 512.329 1682.76 555.392C1664.81 597.276 1656.14 640.975 1641.86 683.815C1630.98 716.446 1614.35 739.841 1585.8 761.021C1563.02 777.918 1537.49 791.057 1512.23 804.45C1467.7 828.068 1428.83 861.766 1386.95 889.381C1363.47 904.86 1329.63 919.782 1311.77 941.234" stroke="#9399FB" stroke-width="0.41" stroke-miterlimit="10"></path> <path d="M1675.89 427.207C1671.2 475.764 1640.67 509.765 1619.81 552.827C1597.64 598.581 1596 648.985 1585.23 697.431C1577.49 732.212 1564.45 754.667 1532.1 774.08C1510.11 787.266 1485.79 796.439 1462.1 806.584C1418.04 825.423 1381.38 863.597 1343.7 891.833C1321.63 908.363 1285.41 927.203 1270.96 950.629" stroke="#9399FB" stroke-width="0.41" stroke-miterlimit="10"></path> <path d="M1622.04 427.192C1614.8 477.405 1576.13 506.182 1553.06 549.802C1528.58 596.098 1533.11 651.439 1527.6 701.508C1525.42 721.256 1524.22 748.058 1509.46 763.745C1501.91 771.771 1490.63 777.919 1480.63 782.919C1458.64 793.892 1434.26 799.943 1410.85 807.731C1386.54 815.821 1371.16 831.906 1352.39 847.895C1334.04 863.502 1315.54 878.95 1297.06 894.429C1276.53 911.645 1242.95 931.838 1231.07 955.742" stroke="#9399FB" stroke-width="0.41" stroke-miterlimit="10"></path> <path d="M1565.13 427.192C1556.01 475.844 1514.79 499.605 1488.36 539.53C1455.79 588.724 1469.43 656.901 1467.6 711.907C1466.98 730.381 1468.01 755.877 1455.72 771.389C1449.27 779.527 1437.86 784.973 1428.21 789.146C1406.35 798.589 1382.31 802.236 1359.32 808.511C1335.04 815.136 1320.8 831.985 1303.18 848.038C1286.72 863.056 1270.2 878.042 1253.81 893.139C1234.52 910.912 1202.14 932.682 1192.09 957" stroke="#9399FB" stroke-width="0.41" stroke-miterlimit="10"></path> <path d="M1505.46 427.192C1494.34 478.185 1445.14 497.28 1417.62 539.1C1385.28 588.246 1405.31 660.325 1407.78 714.328C1409.36 749.125 1410.07 777.6 1372.85 792.856C1352.33 801.265 1329.66 803.638 1308.3 809.546C1284.56 816.107 1270.76 833.562 1254.02 849.614C1238.28 864.712 1222.59 879.857 1207.12 895.209C1189.95 912.249 1163.14 932.475 1153.92 954.786" stroke="#9399FB" stroke-width="0.41" stroke-miterlimit="10"></path> <path d="M1443.34 427.192C1431.74 479.794 1376.32 494.923 1348.9 538.336C1316.98 588.867 1343.47 662.666 1349.16 716.812C1352.71 750.638 1352.11 775.896 1317.35 792.251C1298.8 800.978 1277.94 804.386 1258.7 811.505C1238.03 819.165 1225.19 834.533 1210.17 849.216C1195.19 863.852 1180.37 878.631 1165.78 893.616C1149.75 910.099 1126.23 928.828 1116.51 949.531" stroke="#9399FB" stroke-width="0.41" stroke-miterlimit="10"></path> <path d="M1379.04 427.193C1373.71 454.919 1360.89 469.108 1337.82 487.072C1316.92 503.348 1293.7 518.445 1281.53 541.951C1257.22 588.931 1280.22 649.735 1289.98 697.718C1297.01 732.324 1299.39 760.305 1267.82 783.811C1250.62 796.631 1229.34 803.622 1211.07 814.93C1178.31 835.187 1151.16 867.579 1124.72 894.382C1109.44 909.861 1094.44 925.564 1079.77 941.521" stroke="#9399FB" stroke-width="0.41" stroke-miterlimit="10"></path> <path d="M1312.84 427.192C1306.61 455.189 1293.79 471.56 1272 491.547C1252.6 509.351 1230.17 526.837 1220.04 551.156C1201.3 596.193 1225.07 651.757 1233.79 696.412C1239.9 727.61 1235.81 749.22 1213.83 773.427C1197.8 791.073 1176.69 803.813 1158.92 819.77C1132.39 843.595 1107.67 869.792 1082.36 894.795C1070.84 906.182 1057.77 923.397 1043.62 931.28" stroke="#9399FB" stroke-width="0.41" stroke-miterlimit="10"></path> <path d="M1245.03 427.192C1234.72 477.437 1193.37 504.749 1170.47 548.751C1148.32 591.352 1166.82 642.839 1174.75 686.905C1180.52 718.947 1176.04 742.023 1156.4 768.825C1142.37 787.983 1123.91 803.59 1108.3 821.554C1086.87 846.239 1064.36 869.522 1040.64 892.423C1034.4 898.458 1016.79 920.515 1008.04 919.145" stroke="#9399FB" stroke-width="0.41" stroke-miterlimit="10"></path> <path d="M1175.94 427.208C1171.19 457.61 1160.94 481.785 1145.06 508.667C1134.44 526.631 1122.94 544.419 1115.91 563.944C1100.75 606.035 1113.7 650.754 1117.47 693.513C1122.01 744.793 1087.32 780.084 1058.82 820.121C1051.89 829.851 987.262 914.415 972.953 905.497" stroke="#9399FB" stroke-width="0.41" stroke-miterlimit="10"></path> <path d="M1105.82 427.209C1100.68 481.562 1075.29 527.38 1063.62 580.045C1055.83 615.224 1058.29 650.324 1058.46 685.918C1058.69 735.716 1034.62 772.982 1009.98 815.264C1005.83 822.383 948.007 902.345 938.283 890.703" stroke="#9399FB" stroke-width="0.41" stroke-miterlimit="10"></path> <path d="M1034.98 427.224C1032.03 513.397 1011.59 599.474 1000.14 685.073C994.278 728.932 979.762 766.611 961.298 806.855C958.35 813.305 913.182 887.263 903.941 875.223" stroke="#9399FB" stroke-width="0.41" stroke-miterlimit="10"></path> <path d="M963.712 427.224C964.574 480.59 964.988 534.291 961.057 587.577C958.626 620.463 949.644 652.585 940.817 684.42C930.611 721.24 924.284 758.155 912.354 794.672C910.32 800.899 881.116 868.709 869.91 859.425" stroke="#9399FB" stroke-width="0.41" stroke-miterlimit="10"></path> <path d="M892.287 427.209C895.028 479.938 902.976 532.428 904.51 585.173C905.424 616.578 894.735 642.951 882.943 671.744C869.237 705.251 869.53 743.313 862.6 778.556C860.755 787.952 850.101 843.675 836.033 843.659" stroke="#9399FB" stroke-width="0.41" stroke-miterlimit="10"></path> <path d="M821 427.192C824.465 478.615 839.757 528.367 843.55 579.567C845.705 608.838 836.464 628.633 823.879 654.305C808.984 684.659 814.397 725.317 811.656 758.298C809.742 781.454 808.605 805.756 802.364 828.386" stroke="#9399FB" stroke-width="0.41" stroke-miterlimit="10"></path> <path d="M750.161 427.192C754.247 474.475 770.435 519.735 774.711 566.715C777.176 593.836 767.211 613.583 757.919 638.125C746.541 668.192 755.023 704.645 755.626 736.002C756.109 760.798 754.919 791.471 768.729 813.958" stroke="#9399FB" stroke-width="0.41" stroke-miterlimit="10"></path> <path d="M680.046 427.192C683.839 469.267 699.821 508.921 704.027 550.614C706.561 575.729 698.7 598.407 693.269 622.629C685.701 656.327 695.528 686.952 701.027 720.029C706.217 751.227 712.044 776.947 735.162 800.803" stroke="#9399FB" stroke-width="0.41" stroke-miterlimit="10"></path> <path d="M610.949 427.176C613.776 462.69 627.016 493.968 632.119 528.797C636.533 558.943 629.413 589.154 626.861 619.126C623.879 654.018 636.516 677.907 647.704 709.471C655.014 730.078 658.772 749.842 674.064 767.201C682.046 776.262 692.011 781.948 701.51 789.257" stroke="#9399FB" stroke-width="0.41" stroke-miterlimit="10"></path> <path d="M543.144 427.176C545.023 457.18 555.763 480.924 561.125 509.877C567.28 543.145 562.539 578.388 562.366 611.943C562.263 633.315 562.366 656.359 573.641 675.693C579.623 685.965 589.847 693.354 595.984 703.451C607.949 723.087 611.897 742.723 630.843 758.664C641.98 768.029 654.772 773.22 667.702 779.766" stroke="#9399FB" stroke-width="0.41" stroke-miterlimit="10"></path> <path d="M476.959 427.176C477.718 442.799 478.149 455.396 483.028 469.952C485.993 478.806 490.441 487.056 492.527 496.197C500.664 531.774 497.406 570.33 499.268 606.544C500.406 628.713 499.371 657.49 514.405 676.425C522.835 687.032 536.679 691.57 545.678 701.412C554.108 710.617 557.298 723.071 565.124 732.913C572.21 741.815 580.882 749.284 590.777 755.463C604.035 763.745 618.689 768.236 633.757 772.679" stroke="#9399FB" stroke-width="0.41" stroke-miterlimit="10"></path> <path d="M412.655 427.192C413.413 444.025 413.775 455.906 419.585 471.242C422.516 478.95 426.257 485.814 428.291 493.936C437.946 532.635 435.636 575.06 439.825 614.523C442.187 636.755 442.101 666.376 461.582 682.62C472.029 691.348 486.855 693.466 497.199 702.129C506.474 709.901 510.181 722.561 518.336 731.464C527.542 741.529 539.179 749.507 551.884 755.463C566.607 762.359 583.106 766.93 599.553 768.427" stroke="#9399FB" stroke-width="0.41" stroke-miterlimit="10"></path> <path d="M350.522 427.192C351.333 443.149 351.54 457.387 357.574 472.325C361.78 482.724 366.297 491.069 368.555 502.249C375.831 538.161 378.555 575.06 385.571 611.131C390.605 637.042 392.157 666.329 414.172 685.439C424.465 694.373 438.136 698.753 449.066 706.827C460.41 715.188 466.926 727.61 477.581 736.799C487.442 745.303 499.079 751.992 511.371 757.04C526.404 763.235 548.264 770.975 564.987 767.423" stroke="#9399FB" stroke-width="0.41" stroke-miterlimit="10"></path> <path d="M290.855 427.192C292.372 456.75 301.802 477.915 308.853 505.72C318.956 545.502 328.179 583.564 342.264 622.55C350.264 644.686 355.918 666.472 371.762 685.121C381.037 696.03 392.536 704.231 403.673 713.388C426.757 732.371 443.238 751.673 473.046 762.55C487.511 767.822 514.922 777.361 530.042 770.003" stroke="#9399FB" stroke-width="0.41" stroke-miterlimit="10"></path> <path d="M233.963 427.192C237.187 493.649 262.685 558.115 297.785 615.543C318.766 649.878 332.386 691.459 360.539 721.765C380.985 743.774 405.604 761.181 435.291 771.039C449.359 775.705 480.701 786.184 494.683 776.581" stroke="#9399FB" stroke-width="0.41" stroke-miterlimit="10"></path> <path d="M180.105 427.193C181.623 462.038 188.863 492.917 198.656 526.329C210.758 567.56 237.876 593.311 267.253 624.875C284.89 643.811 297.768 663.447 304.854 687.654C309.198 702.496 310.457 718.278 319.146 731.751C335.092 756.468 369.434 773.333 398.001 782.569C411.517 786.933 445.928 798.558 458.754 787.554" stroke="#9399FB" stroke-width="0.41" stroke-miterlimit="10"></path> <path d="M129.593 427.192C131.058 466.496 137.937 503.188 149.056 541.091C159.987 578.325 195.018 598.63 226.55 621.196C254.651 641.31 273.218 658.844 275.425 692.224C276.546 709.041 272.27 727.053 279.08 743.121C290.338 769.653 333.989 787.744 361.125 796.886C374.675 801.456 409.138 814.101 422.275 803.304" stroke="#9399FB" stroke-width="0.41" stroke-miterlimit="10"></path> <path d="M82.7173 427.192C83.993 468.375 90.1305 507.934 100.905 547.827C113.008 592.641 163.193 608.264 202.466 629.652C234.394 647.027 249.358 663.255 245.514 698.721C243.514 717.21 234.791 737.197 239.894 755.718C247.6 783.747 297.941 803.988 324.628 814.085C338.472 819.324 370.969 833.498 385.14 824.229" stroke="#9399FB" stroke-width="0.41" stroke-miterlimit="10"></path> <path d="M39.7554 427.192C40.807 469.824 45.8583 511.294 56.5126 552.812C63.0465 578.277 74.5973 590.874 99.4055 603.901C118.852 614.125 139.971 621.371 160.349 629.748C195.294 644.128 220.654 658.557 215.654 696.874C212.586 720.316 196.501 745.462 201.121 769.318C206.655 797.937 262.392 822.207 288.372 833.944C302.975 840.537 330.145 854.95 347.281 850.745" stroke="#9399FB" stroke-width="0.41" stroke-miterlimit="10"></path> </svg> 