<?xml version="1.0" encoding="UTF-8"?> <svg xmlns="http://www.w3.org/2000/svg" width="100" height="37" viewBox="0 0 100 37" fill="none"> <path fill-rule="evenodd" clip-rule="evenodd" d="M56.4342 10.8305C56.4342 8.96498 56.6825 7.35854 57.1792 6.0112C57.7089 4.62932 58.3877 3.50654 59.2154 2.64286C60.0763 1.74463 61.0365 1.08823 62.096 0.67367C63.1887 0.224553 64.2979 0 65.4236 0H75.2077V6.27031H65.523C64.4965 6.27031 63.6688 6.6676 63.0397 7.46219C62.6755 7.9113 62.4106 8.51587 62.245 9.27591C63.5363 8.61951 65.0594 8.30859 66.8143 8.34314C68.6022 8.30859 70.1418 8.63679 71.4331 9.32773C72.7244 9.98413 73.8005 10.8478 74.6614 11.9188C75.5222 12.9897 76.1513 14.1643 76.5487 15.4426C76.9791 16.6863 77.1943 17.8954 77.1943 19.07C77.1943 20.2446 76.9791 21.4538 76.5487 22.6975C76.1513 23.9412 75.5222 25.0812 74.6614 26.1176C73.8336 27.1541 72.7575 28.0005 71.4331 28.6569C70.1418 29.3133 68.6022 29.6415 66.8143 29.6415C65.0263 29.6415 63.4701 29.3133 62.1457 28.6569C60.8544 28.0005 59.7783 27.1541 58.9175 26.1176C58.0897 25.0812 57.4606 23.9412 57.0302 22.6975C56.6328 21.4538 56.4342 20.2446 56.4342 19.07V19.0182V10.8305ZM66.8143 23.5784C67.5096 23.5784 68.1221 23.4402 68.6519 23.1639C69.2147 22.8875 69.6783 22.5247 70.0425 22.0756C70.4398 21.6265 70.7213 21.1256 70.8868 20.5728C71.0855 20.0201 71.1848 19.4846 71.1848 18.9664C71.1848 18.4482 71.0855 17.93 70.8868 17.4118C70.6881 16.859 70.4067 16.3753 70.0425 15.9608C69.6783 15.5117 69.2147 15.1489 68.6519 14.8725C68.1221 14.5616 67.5096 14.4062 66.8143 14.4062C66.1189 14.4062 65.4898 14.5616 64.927 14.8725C64.3972 15.1489 63.9502 15.5117 63.586 15.9608C63.2218 16.3753 62.9404 16.859 62.7417 17.4118C62.543 17.93 62.4437 18.4482 62.4437 18.9664C62.4437 19.4846 62.5265 20.0201 62.692 20.5728C62.8907 21.1256 63.1721 21.6265 63.5363 22.0756C63.9337 22.5247 64.3972 22.8875 64.927 23.1639C65.4898 23.4402 66.1189 23.5784 66.8143 23.5784ZM10.2311 8.13585H0V13.36C5.92389 13.36 9.548 14.2484 12.2229 16.0825C14.1217 17.3845 14.1217 20.2665 12.2229 21.5685C9.548 23.4026 5.92389 24.291 0 24.291V37H5.71152V29.4342H10.2311C12.019 29.4687 13.5586 29.1578 14.8499 28.5014C16.1412 27.8105 17.2173 26.9295 18.0782 25.8585C18.9391 24.7876 19.5681 23.6302 19.9655 22.3866C20.3959 21.1083 20.6111 19.8819 20.6111 18.7073C20.6111 17.5327 20.3959 16.3235 19.9655 15.0798C19.5681 13.8361 18.9391 12.6961 18.0782 11.6597C17.2504 10.6233 16.1743 9.77685 14.8499 9.12045C13.5586 8.46405 12.019 8.13585 10.2311 8.13585ZM29.1132 8.23949H23.352V29.486H35.7187C41.0826 29.486 43.7645 26.7395 43.7645 21.2465C43.7645 15.9608 41.1819 13.2834 36.0167 13.2143H29.1132V8.23949ZM35.073 24.2003H29.1132V18.4482H35.073C37.0265 18.3791 38.0033 19.3119 38.0033 21.2465C38.0033 23.2157 37.0265 24.2003 35.073 24.2003ZM47.688 8.23949V29.486H53.3996V8.23949H47.688ZM89.7689 29.6415H100V8.34314H89.7689C87.981 8.30859 86.4414 8.63679 85.1501 9.32773C83.8588 9.98413 82.7827 10.8478 81.9218 11.9188C81.0609 12.9897 80.4153 14.1643 79.9849 15.4426C79.5876 16.6863 79.3889 17.8954 79.3889 19.07C79.3889 20.2446 79.5876 21.4538 79.9849 22.6975C80.4153 23.9412 81.0444 25.0812 81.8722 26.1176C82.733 27.1541 83.8091 28.0005 85.1004 28.6569C86.4248 29.3133 87.981 29.6415 89.7689 29.6415ZM85.6467 20.5728C85.4812 20.0201 85.3984 19.4846 85.3984 18.9664C85.3984 18.4482 85.4977 17.93 85.6964 17.4118C85.895 16.859 86.1765 16.3753 86.5407 15.9608C86.9049 15.5117 87.3519 15.1489 87.8817 14.8725C88.4445 14.5616 89.0736 14.4062 89.7689 14.4062H94.2885V23.5784H89.7689C89.0736 23.5784 88.4445 23.4402 87.8817 23.1639C87.3519 22.8875 86.8883 22.5247 86.491 22.0756C86.1268 21.6265 85.8454 21.1256 85.6467 20.5728ZM7.5662 18.6231C8.31623 18.6231 8.92424 17.9887 8.92424 17.2061C8.92424 16.4235 8.31623 15.7891 7.5662 15.7891C6.81618 15.7891 6.20817 16.4235 6.20817 17.2061C6.20817 17.9887 6.81618 18.6231 7.5662 18.6231Z" fill="white"></path> </svg> 