<?xml version="1.0" encoding="UTF-8"?> <svg xmlns="http://www.w3.org/2000/svg" width="26" height="18" viewBox="0 0 26 18" fill="none"> <path d="M26 8.98466C26 8.14474 25.2753 6.61011 23.6838 5.22682C22.7754 4.44546 21.7401 3.82511 20.6227 3.39258C20.5855 3.37868 20.5445 3.37909 20.5077 3.39373C20.4708 3.40837 20.4407 3.4362 20.4231 3.4718C20.4155 3.48653 20.4079 3.50075 20.3993 3.51547L19.9123 4.3229C19.091 5.74105 18.6588 7.35093 18.6595 8.98971C18.6601 10.6285 19.0935 12.238 19.9158 13.6556L19.9275 13.6754L20.3713 14.4879C20.3949 14.531 20.4333 14.5642 20.4794 14.5812C20.5256 14.5982 20.5763 14.5979 20.6222 14.5803C24.3562 13.1193 26 10.2791 26 8.98466ZM21.2306 8.97756C21.0623 8.99956 20.8913 8.96833 20.7417 8.88823C20.5921 8.80814 20.4713 8.6832 20.3963 8.53096C20.3213 8.37872 20.2959 8.20682 20.3236 8.03938C20.3513 7.87195 20.4307 7.71738 20.5507 7.59738C20.6707 7.47738 20.8252 7.39796 20.9927 7.37028C21.1601 7.3426 21.332 7.36804 21.4843 7.44304C21.6365 7.51804 21.7614 7.63882 21.8415 7.78844C21.9216 7.93806 21.9529 8.109 21.9308 8.27728C21.9076 8.45486 21.8264 8.6198 21.6997 8.74644C21.5731 8.87308 21.4082 8.95433 21.2306 8.97756Z" fill="#B4F365"></path> <path d="M17.0345 8.98466C17.0338 7.05819 17.5433 5.1659 18.5112 3.50024L18.5173 3.48957L18.7519 3.10008C18.7689 3.07233 18.7789 3.04091 18.7812 3.00848C18.7835 2.97604 18.778 2.94352 18.7651 2.91366C18.7522 2.88381 18.7323 2.85748 18.7072 2.8369C18.682 2.81632 18.6522 2.80208 18.6204 2.79539C17.963 2.65789 17.2968 2.56643 16.6267 2.52168C16.5477 2.51657 16.4719 2.48831 16.4089 2.44042C15.4298 1.69596 13.4889 0.393921 11.5105 0.0592696C11.3753 0.0368674 11.2366 0.0490255 11.1074 0.0946125C10.9781 0.140199 10.8625 0.217734 10.7713 0.320003C10.6801 0.422273 10.6162 0.545953 10.5856 0.679539C10.555 0.813125 10.5587 0.952275 10.5964 1.08404L11.1357 2.9716C11.1497 3.02052 11.1449 3.07291 11.1221 3.11843C11.0994 3.16394 11.0603 3.19926 11.0128 3.21738C9.14149 3.91259 7.52968 5.18518 6.35408 6.15511C6.28213 6.214 6.19216 6.24643 6.09919 6.24698C6.00621 6.24754 5.91586 6.21618 5.84322 6.15815C5.68342 6.0312 5.5194 5.90611 5.35114 5.78288C3.33816 4.31275 0.973251 4.11927 0.873719 4.11216C0.747347 4.10261 0.620494 4.12276 0.503298 4.17099C0.386102 4.21922 0.281813 4.29419 0.198766 4.38992C0.115718 4.48565 0.056215 4.59948 0.0250122 4.72231C-0.00619069 4.84514 -0.00822821 4.97357 0.0190625 5.09732C0.0403908 5.19533 0.485747 7.16363 1.62884 8.7338C1.6803 8.80418 1.70804 8.8891 1.70804 8.97629C1.70804 9.06347 1.6803 9.14839 1.62884 9.21877C0.485747 10.7884 0.0403908 12.7572 0.0190625 12.8552C-0.00822821 12.979 -0.00619069 13.1074 0.0250122 13.2303C0.056215 13.3531 0.115718 13.4669 0.198766 13.5627C0.281813 13.6584 0.386102 13.7334 0.503298 13.7816C0.620494 13.8298 0.747347 13.85 0.873719 13.8404C0.975282 13.8333 3.33816 13.6373 5.3486 12.1707C5.5128 12.0502 5.6731 11.928 5.82951 11.8041C5.90221 11.7461 5.99259 11.7148 6.08557 11.7155C6.17854 11.7161 6.26848 11.7487 6.34037 11.8076C7.52105 12.7821 9.13591 14.0562 11.0123 14.753C11.0597 14.7711 11.0987 14.8063 11.1214 14.8517C11.1441 14.8971 11.1491 14.9494 11.1352 14.9982L10.5938 16.8863C10.5562 17.0181 10.5525 17.1572 10.5831 17.2908C10.6137 17.4244 10.6775 17.5481 10.7688 17.6503C10.86 17.7526 10.9756 17.8301 11.1048 17.8757C11.2341 17.9213 11.3727 17.9335 11.5079 17.9111C12.3793 17.7638 14.1425 17.258 16.3855 15.533C16.4496 15.4841 16.5265 15.455 16.6069 15.4492C17.2762 15.4053 17.9417 15.3154 18.5986 15.18C18.6296 15.1735 18.6586 15.1599 18.6834 15.1401C18.7082 15.1204 18.728 15.0951 18.7413 15.0663C18.7546 15.0376 18.7609 15.0061 18.7599 14.9744C18.7588 14.9428 18.7503 14.9118 18.7352 14.884L18.5061 14.463C17.5411 12.7986 17.0334 10.9086 17.0345 8.98466Z" fill="#B4F365"></path> </svg> 