<?xml version="1.0" encoding="UTF-8"?> <svg xmlns="http://www.w3.org/2000/svg" width="1160" height="487" viewBox="0 0 1160 487" fill="none"> <mask id="path-1-inside-1_176_30" fill="white"> <path fill-rule="evenodd" clip-rule="evenodd" d="M1160 10C1160 4.47715 1155.52 0 1150 0H10C4.47715 0 0 4.47715 0 10V58.3874C0 61.908 1.85125 65.1692 4.87413 66.9738L35.1259 85.0334C38.1487 86.838 40 90.0992 40 93.6198L40 201.722C40 205.243 38.1487 208.504 35.1259 210.308L4.87413 228.368C1.85125 230.173 0 233.434 0 236.954V395.463C0 398.532 1.40935 401.432 3.82291 403.327L107.627 484.864C109.389 486.248 111.564 487 113.804 487H1150C1155.52 487 1160 482.523 1160 477V403.61C1160 399.517 1157.51 395.837 1153.7 394.321L1087.3 367.834C1083.49 366.318 1081 362.638 1081 358.545V186.455C1081 182.362 1083.49 178.682 1087.3 177.166L1153.7 150.679C1157.51 149.163 1160 145.483 1160 141.39V10Z"></path> </mask> <path fill-rule="evenodd" clip-rule="evenodd" d="M1160 10C1160 4.47715 1155.52 0 1150 0H10C4.47715 0 0 4.47715 0 10V58.3874C0 61.908 1.85125 65.1692 4.87413 66.9738L35.1259 85.0334C38.1487 86.838 40 90.0992 40 93.6198L40 201.722C40 205.243 38.1487 208.504 35.1259 210.308L4.87413 228.368C1.85125 230.173 0 233.434 0 236.954V395.463C0 398.532 1.40935 401.432 3.82291 403.327L107.627 484.864C109.389 486.248 111.564 487 113.804 487H1150C1155.52 487 1160 482.523 1160 477V403.61C1160 399.517 1157.51 395.837 1153.7 394.321L1087.3 367.834C1083.49 366.318 1081 362.638 1081 358.545V186.455C1081 182.362 1083.49 178.682 1087.3 177.166L1153.7 150.679C1157.51 149.163 1160 145.483 1160 141.39V10Z" fill="white" fill-opacity="0.05"></path> <path d="M1087.3 177.166L1086.92 176.237L1087.3 177.166ZM1087.3 367.834L1086.92 368.763L1087.3 367.834ZM1153.7 394.321L1154.08 393.392L1153.7 394.321ZM107.627 484.864L108.245 484.078L107.627 484.864ZM3.82291 403.327L4.44062 402.541L3.82291 403.327ZM4.87413 228.368L5.38672 229.227L4.87413 228.368ZM40 201.722L39 201.722L40 201.722ZM35.1259 210.308L34.6133 209.45L35.1259 210.308ZM35.1259 85.0334L34.6133 85.8921L35.1259 85.0334ZM40 93.6198L39 93.6198L40 93.6198ZM4.87413 66.9738L5.38672 66.1152L4.87413 66.9738ZM10 1H1150V-1H10V1ZM1 58.3874V10H-1V58.3874H1ZM4.36154 67.8324L34.6133 85.8921L35.6385 84.1748L5.38672 66.1152L4.36154 67.8324ZM39 93.6198L39 201.722L41 201.722L41 93.6198L39 93.6198ZM34.6133 209.45L4.36154 227.509L5.38672 229.227L35.6385 211.167L34.6133 209.45ZM1 395.463V236.954H-1V395.463H1ZM108.245 484.078L4.44062 402.541L3.20521 404.114L107.01 485.65L108.245 484.078ZM1150 486H113.804V488H1150V486ZM1159 403.61V477H1161V403.61H1159ZM1086.92 368.763L1153.33 395.25L1154.08 393.392L1087.67 366.905L1086.92 368.763ZM1080 186.455V358.545H1082V186.455H1080ZM1153.33 149.75L1086.92 176.237L1087.67 178.095L1154.08 151.608L1153.33 149.75ZM1159 10V141.39H1161V10H1159ZM1154.08 151.608C1158.26 149.94 1161 145.892 1161 141.39H1159C1159 145.074 1156.76 148.385 1153.33 149.75L1154.08 151.608ZM1082 186.455C1082 182.771 1084.24 179.46 1087.67 178.095L1086.92 176.237C1082.74 177.905 1080 181.953 1080 186.455H1082ZM1087.67 366.905C1084.24 365.54 1082 362.229 1082 358.545H1080C1080 363.047 1082.74 367.095 1086.92 368.763L1087.67 366.905ZM1161 403.61C1161 399.108 1158.26 395.06 1154.08 393.392L1153.33 395.25C1156.76 396.615 1159 399.926 1159 403.61H1161ZM1150 488C1156.08 488 1161 483.075 1161 477H1159C1159 481.971 1154.97 486 1150 486V488ZM107.01 485.65C108.947 487.173 111.34 488 113.804 488V486C111.788 486 109.831 485.323 108.245 484.078L107.01 485.65ZM-1 395.463C-1 398.839 0.550282 402.028 3.20521 404.114L4.44062 402.541C2.26841 400.835 1 398.225 1 395.463H-1ZM4.36154 227.509C1.03638 229.494 -1 233.082 -1 236.954H1C1 233.786 2.66613 230.851 5.38672 229.227L4.36154 227.509ZM39 201.722C39 204.89 37.3339 207.826 34.6133 209.45L35.6385 211.167C38.9636 209.182 41 205.595 41 201.722L39 201.722ZM34.6133 85.8921C37.3339 87.5162 39 90.4513 39 93.6198L41 93.6198C41 89.7472 38.9636 86.1599 35.6385 84.1748L34.6133 85.8921ZM-1 58.3874C-1 62.2601 1.03638 65.8474 4.36154 67.8324L5.38672 66.1152C2.66613 64.491 1 61.5559 1 58.3874H-1ZM1150 1C1154.97 1 1159 5.02944 1159 10H1161C1161 3.92487 1156.08 -1 1150 -1V1ZM10 -1C3.92487 -1 -1 3.92487 -1 10H1C1 5.02944 5.02944 1 10 1V-1Z" fill="white" fill-opacity="0.29" mask="url(#path-1-inside-1_176_30)"></path> </svg> 