<?xml version="1.0" encoding="UTF-8"?> <svg xmlns="http://www.w3.org/2000/svg" width="291" height="86" viewBox="0 0 291 86" fill="none"> <g filter="url(#filter0_b_208_406)"> <path d="M0 53C0 71.2254 14.7746 86 33 86L246.697 86C271.165 86 291 66.1648 291 41.697V41.697C291 18.6684 272.332 3.33786e-06 249.303 3.33786e-06H3C1.34315 3.33786e-06 0 1.34315 0 3V53Z" fill="white" fill-opacity="0.02"></path> <path d="M33 85.5L246.697 85.5C270.889 85.5 290.5 65.8887 290.5 41.697C290.5 18.9445 272.056 0.5 249.303 0.5H3C1.61929 0.5 0.5 1.61929 0.5 3V53C0.5 70.9493 15.0507 85.5 33 85.5Z" stroke="#B7F46A"></path> </g> <path d="M34.588 22.04C35.956 22.148 37.144 22.328 37.144 23.852C37.144 25.556 35.716 26 34.192 26H29.116V17.6H33.652C35.26 17.6 36.976 17.888 36.976 19.664C36.976 21.092 35.884 21.536 34.588 21.632V22.04ZM33.556 18.932H30.916V21.344H33.712C34.6 21.344 35.26 20.9 35.26 20.084C35.26 19.22 34.528 18.932 33.556 18.932ZM33.94 24.812C34.744 24.812 35.368 24.416 35.368 23.576C35.368 22.7 34.696 22.304 33.7 22.304H30.916V24.812H33.94ZM45.5249 26.12C43.1249 26.12 41.4929 24.788 41.4929 22.172C41.4929 19.04 42.9809 18.296 45.7409 17.504C46.2209 17.36 47.9969 16.832 48.3929 16.724C48.3929 17 48.3929 17.804 48.3929 18.104C47.8649 18.26 46.3529 18.716 45.8009 18.884C43.9649 19.364 43.2209 20.216 42.6449 21.476L42.9329 21.764C43.6409 20.936 44.6609 20.588 45.8849 20.588C47.6609 20.588 49.2449 21.44 49.2449 23.24C49.2449 25.196 47.2769 26.12 45.5249 26.12ZM45.3689 21.548C44.5649 21.548 43.8449 21.776 43.1489 22.232C43.1489 22.28 43.1489 22.448 43.1489 22.484C43.1489 24.056 44.2289 24.728 45.5369 24.728C46.6169 24.728 47.6009 24.152 47.6009 23.036C47.6009 21.932 46.4609 21.548 45.3689 21.548ZM54.812 19.112C56.84 19.112 59.048 20.252 59.048 22.664C59.048 24.896 57.008 26.192 54.752 26.192C52.46 26.192 50.384 24.848 50.384 22.664C50.384 20.348 52.7 19.112 54.812 19.112ZM52.172 22.64C52.172 24.104 53.228 25.232 54.728 25.232C56.216 25.232 57.248 24.116 57.248 22.64C57.248 21.272 56.348 20.144 54.764 20.144C53.036 20.144 52.172 21.476 52.172 22.64ZM67.0935 19.244V20.66H64.3095V26H62.6655V20.66H59.8095V19.244H67.0935ZM75.8241 22.724H69.6681C69.6681 22.82 69.6681 22.916 69.6681 23.012C69.6921 24.344 70.7241 25.112 72.1161 25.112C73.0881 25.112 74.3121 24.692 74.6481 23.612H76.2321C75.8121 25.376 73.9521 26.18 72.0801 26.18C69.7881 26.18 67.8921 24.956 67.8921 22.664C67.8921 20.276 69.8601 19.112 72.0081 19.112C74.3361 19.112 75.8841 20.48 75.8241 22.724ZM69.7401 22.028H74.0721C74.0361 20.924 73.3761 20.156 71.9961 20.156C70.4961 20.156 69.9201 21.044 69.7401 22.028ZM89.4306 22.724L87.6546 26H84.8346L83.0466 22.712C82.7706 21.776 82.6746 20.504 82.5186 19.544L82.1226 19.592C82.2786 20.54 82.5906 21.8 82.6146 22.76L82.6266 26H80.8266V19.244H83.6106L86.1306 25.532H86.3586L88.8786 19.244H91.6626V26H89.8626V22.772C89.8866 21.812 90.2106 20.552 90.3666 19.604L89.9706 19.568C89.8146 20.504 89.7066 21.788 89.4306 22.724ZM97.5738 19.112C99.6018 19.112 101.81 20.252 101.81 22.664C101.81 24.896 99.7698 26.192 97.5138 26.192C95.2218 26.192 93.1458 24.848 93.1458 22.664C93.1458 20.348 95.4618 19.112 97.5738 19.112ZM94.9338 22.64C94.9338 24.104 95.9898 25.232 97.4898 25.232C98.9778 25.232 100.01 24.116 100.01 22.64C100.01 21.272 99.1098 20.144 97.5258 20.144C95.7978 20.144 94.9338 21.476 94.9338 22.64ZM105.775 21.8L102.787 19.244H104.671L107.995 22.04L108.427 22.808H108.799L108.379 21.968V17.24H110.179V21.968L109.759 22.808H110.119L110.563 22.04L113.875 19.244H115.759L112.783 21.8C113.011 23.408 113.827 24.668 114.931 24.668H115.987L115.999 26H114.571C113.119 26 111.967 24.236 111.775 22.664H111.343L110.179 24.14V26H108.379V24.14L107.215 22.664H106.771C106.591 24.236 105.439 26 103.987 26H102.547L102.559 24.668H103.627C104.731 24.668 105.547 23.408 105.775 21.8ZM123.446 19.244H125.246V26H123.446V23.288H118.814V26H117.014V19.244H118.814V21.992H123.446V19.244ZM131.078 19.112C133.106 19.112 135.314 20.252 135.314 22.664C135.314 24.896 133.274 26.192 131.018 26.192C128.726 26.192 126.65 24.848 126.65 22.664C126.65 20.348 128.966 19.112 131.078 19.112ZM128.438 22.64C128.438 24.104 129.494 25.232 130.994 25.232C132.482 25.232 133.514 24.116 133.514 22.64C133.514 21.272 132.614 20.144 131.03 20.144C129.302 20.144 128.438 21.476 128.438 22.64ZM143.716 26.12C141.316 26.12 139.684 24.788 139.684 22.172C139.684 19.04 141.172 18.296 143.932 17.504C144.412 17.36 146.188 16.832 146.584 16.724C146.584 17 146.584 17.804 146.584 18.104C146.056 18.26 144.544 18.716 143.992 18.884C142.156 19.364 141.412 20.216 140.836 21.476L141.124 21.764C141.832 20.936 142.852 20.588 144.076 20.588C145.852 20.588 147.436 21.44 147.436 23.24C147.436 25.196 145.468 26.12 143.716 26.12ZM143.56 21.548C142.756 21.548 142.036 21.776 141.34 22.232C141.34 22.28 141.34 22.448 141.34 22.484C141.34 24.056 142.42 24.728 143.728 24.728C144.808 24.728 145.792 24.152 145.792 23.036C145.792 21.932 144.652 21.548 143.56 21.548ZM155.163 19.244H156.975L154.095 26.096L155.259 29H150.795V27.668H152.979L152.343 25.988C151.683 25.952 151.275 25.736 151.011 25.112L148.239 19.244H150.135L152.499 24.452L152.247 25.136H152.655L155.163 19.244ZM164.879 27.212V26H159.491V27.212H157.679L157.703 24.668H158.147C159.287 24.668 160.223 23 160.739 19.292V19.244H165.503L165.515 24.668H166.667L166.679 27.212H164.879ZM161.471 24.668H163.715V20.576H162.083C161.795 22.34 160.967 24.416 159.431 25.016L159.611 25.352C160.211 25.028 160.907 24.668 161.471 24.668ZM175.316 22.724H169.16C169.16 22.82 169.16 22.916 169.16 23.012C169.184 24.344 170.216 25.112 171.608 25.112C172.58 25.112 173.804 24.692 174.14 23.612H175.724C175.304 25.376 173.444 26.18 171.572 26.18C169.28 26.18 167.384 24.956 167.384 22.664C167.384 20.276 169.352 19.112 171.5 19.112C173.828 19.112 175.376 20.48 175.316 22.724ZM169.232 22.028H173.564C173.528 20.924 172.868 20.156 171.488 20.156C169.988 20.156 169.412 21.044 169.232 22.028ZM183.754 19.244V20.66H180.97V26H179.326V20.66H176.47V19.244H183.754ZM192.085 19.112C194.113 19.112 196.321 20.252 196.321 22.664C196.321 24.896 194.281 26.192 192.025 26.192C189.733 26.192 187.657 24.848 187.657 22.664C187.657 20.348 189.973 19.112 192.085 19.112ZM189.445 22.64C189.445 24.104 190.501 25.232 192.001 25.232C193.489 25.232 194.521 24.116 194.521 22.64C194.521 21.272 193.621 20.144 192.037 20.144C190.309 20.144 189.445 21.476 189.445 22.64ZM204.367 19.244V20.66H201.583V26H199.939V20.66H197.083V19.244H204.367ZM212.09 19.244V20.66H209.306V26H207.662V20.66H204.806V19.244H212.09ZM217.304 19.112C219.332 19.112 221.54 20.252 221.54 22.664C221.54 24.896 219.5 26.192 217.244 26.192C214.952 26.192 212.876 24.848 212.876 22.664C212.876 20.348 215.192 19.112 217.304 19.112ZM214.664 22.64C214.664 24.104 215.72 25.232 217.22 25.232C218.708 25.232 219.74 24.116 219.74 22.64C219.74 21.272 218.84 20.144 217.256 20.144C215.528 20.144 214.664 21.476 214.664 22.64ZM229.622 19.244H231.422C231.422 20.456 231.422 26.012 231.422 26.012H229.622C229.622 26.012 229.622 23.972 229.622 23.312C229.634 23.3 229.802 22.796 229.886 22.58C229.814 22.58 229.526 22.58 229.478 22.58C228.698 24.032 227.666 24.536 226.25 24.536C224.714 24.536 223.034 23.936 223.034 21.416C223.034 20.54 223.034 19.244 223.034 19.244H224.81C224.81 19.244 224.81 20.156 224.81 21.032C224.81 21.848 224.942 23.132 226.622 23.132C228.53 23.132 229.622 21.488 229.622 20.648V19.244ZM239.13 26V23.348C239.13 22.22 239.55 20.768 239.898 19.676L239.514 19.604C239.166 20.696 238.65 22.136 237.99 23.108L235.542 26H233.334V19.244H235.11L235.122 22.376C235.122 23.336 234.75 24.572 234.486 25.508L234.882 25.58C235.146 24.644 235.446 23.396 235.95 22.532L238.602 19.244H240.93L240.906 26H239.13ZM249.355 19.244V20.66H246.571V26H244.927V20.66H242.071V19.244H249.355ZM252.506 19.244V21.956H255.11C257.126 21.956 258.542 22.52 258.542 24.02C258.542 25.232 257.378 26 255.59 26H250.706V19.244H252.506ZM255.338 24.812C256.142 24.812 256.766 24.524 256.766 23.936C256.766 23.324 256.094 23.048 255.086 23.048H252.506V24.812H255.338ZM34.564 36.82C35.8 36.832 36.328 37.324 36.328 38.08C36.328 39.616 34.408 40.192 32.584 40.192C30.508 40.192 28.552 39.496 28.552 37.696H30.208C30.196 38.644 31.504 39.088 32.608 39.088C33.64 39.088 34.672 38.824 34.672 38.032C34.672 37.336 34.252 37.036 33.22 37.036H31.456V36.268H33.22C34.156 36.268 34.672 35.92 34.672 35.272C34.672 34.504 33.604 34.228 32.596 34.228C31.468 34.228 30.196 34.648 30.208 35.62H28.552C28.552 33.796 30.472 33.112 32.572 33.112C34.396 33.112 36.328 33.7 36.328 35.224C36.328 35.92 35.74 36.472 34.564 36.496V36.82ZM44.2508 33.244H46.0508V40H44.2508V37.288H39.6188V40H37.8188V33.244H39.6188V35.992H44.2508V33.244ZM47.3823 37.864C47.3823 36.472 48.7263 35.872 50.1903 35.872C51.7623 35.872 52.9503 36.58 53.7663 37.12C53.7783 36.904 53.7663 36.424 53.7663 36.232C53.7663 35.032 53.1783 34.54 51.6303 34.54H48.1263L48.1143 33.244H52.2663C54.5463 33.244 55.5663 34.192 55.5663 36.4V38.668H56.7543V40.012H54.6423V40L54.4143 40.012C54.0303 40.012 53.8623 39.592 53.8623 39.316C53.8623 38.932 54.0903 38.224 54.2103 38.044L53.8503 37.852C53.0463 39.652 51.4263 40.12 50.2983 40.12C48.8223 40.12 47.3823 39.304 47.3823 37.864ZM49.1823 37.888C49.1823 38.68 50.0703 39.088 50.9823 39.088C52.6983 39.088 53.4303 37.66 53.4303 37.66C53.4303 37.66 52.0503 36.76 50.8383 36.76C50.3223 36.76 49.1823 36.928 49.1823 37.888ZM64.2782 33.244H66.0782V40H64.2782V37.288H59.6462V40H57.8462V33.244H59.6462V35.992H64.2782V33.244ZM73.6617 40V37.348C73.6617 36.22 74.0817 34.768 74.4297 33.676L74.0457 33.604C73.6977 34.696 73.1817 36.136 72.5217 37.108L70.0737 40H67.8657V33.244H69.6417L69.6537 36.376C69.6537 37.336 69.2817 38.572 69.0177 39.508L69.4137 39.58C69.6777 38.644 69.9777 37.396 70.4817 36.532L73.1337 33.244H75.4617L75.4377 40H73.6617ZM85.0984 33.244V40H83.4544V37.36H79.1944L80.3704 40.012H76.8784V38.668H78.2344C77.9824 37.432 77.7424 36.856 78.8704 36.796V36.472C77.7784 36.34 76.9744 35.836 76.9744 34.888C76.9744 33.616 78.4144 33.244 80.0704 33.244H85.0984ZM83.4544 36.292V34.348H80.0824C79.3024 34.348 78.5944 34.648 78.5944 35.308C78.5944 35.98 79.2904 36.316 80.1064 36.316L83.4544 36.292ZM96.5053 37.204H98.1853C97.8973 39.16 95.8453 40.18 93.8293 40.18C91.6093 40.18 89.6653 38.944 89.6653 36.664C89.6653 34.216 91.8493 33.112 93.8893 33.112C95.7973 33.112 97.7773 34.06 97.9213 36.088H96.2533C96.2293 34.96 95.2693 34.156 93.8053 34.156C92.0533 34.156 91.2973 35.32 91.2973 36.664C91.2973 38.392 92.3773 39.148 93.8053 39.148C95.2933 39.148 96.3853 38.296 96.5053 37.204ZM109.595 36.844C110.087 36.94 109.895 37.516 109.667 38.656H110.939V40.024H107.363L108.551 37.492H104.375V40H102.731V33.256H104.375V36.064H104.903L108.731 33.244H110.879L107.447 35.824C106.967 36.22 106.235 36.4 105.287 36.592V36.976C105.575 36.904 106.295 36.712 106.655 36.64C107.207 36.556 107.723 36.508 108.167 36.508C108.851 36.508 109.379 36.616 109.595 36.844ZM118.191 33.244H120.003L117.123 40.096L118.287 43H113.823V41.668H116.007L115.371 39.988C114.711 39.952 114.303 39.736 114.039 39.112L111.267 33.244H113.163L115.527 38.452L115.275 39.136H115.683L118.191 33.244ZM126.407 40.12C124.679 40.12 123.383 39.124 122.783 37.924H122.411L122.975 39.136V43H121.175V33.244H122.975V34.024L122.435 34.828H122.843C123.419 33.904 124.931 33.136 126.455 33.136C128.339 33.136 130.055 34.3 130.055 36.616C130.055 38.956 128.291 40.12 126.407 40.12ZM125.771 34.18C124.067 34.18 122.987 35.08 122.987 36.436C122.987 37.72 123.971 38.884 125.819 38.884C127.499 38.884 128.255 37.924 128.255 36.508C128.255 35.044 127.451 34.18 125.771 34.18ZM138.048 37.204H139.728C139.44 39.16 137.388 40.18 135.372 40.18C133.152 40.18 131.208 38.944 131.208 36.664C131.208 34.216 133.392 33.112 135.432 33.112C137.34 33.112 139.32 34.06 139.464 36.088H137.796C137.772 34.96 136.812 34.156 135.348 34.156C133.596 34.156 132.84 35.32 132.84 36.664C132.84 38.392 133.92 39.148 135.348 39.148C136.836 39.148 137.928 38.296 138.048 37.204ZM140.628 37.864C140.628 36.472 141.972 35.872 143.436 35.872C145.008 35.872 146.196 36.58 147.012 37.12C147.024 36.904 147.012 36.424 147.012 36.232C147.012 35.032 146.424 34.54 144.876 34.54H141.372L141.36 33.244H145.512C147.792 33.244 148.812 34.192 148.812 36.4V38.668H150V40.012H147.888V40L147.66 40.012C147.276 40.012 147.108 39.592 147.108 39.316C147.108 38.932 147.336 38.224 147.456 38.044L147.096 37.852C146.292 39.652 144.672 40.12 143.544 40.12C142.068 40.12 140.628 39.304 140.628 37.864ZM142.428 37.888C142.428 38.68 143.316 39.088 144.228 39.088C145.944 39.088 146.676 37.66 146.676 37.66C146.676 37.66 145.296 36.76 144.084 36.76C143.568 36.76 142.428 36.928 142.428 37.888ZM160.641 33.244H162.441V40H160.641V37.288H156.009V40H154.209V33.244H156.009V35.992H160.641V33.244ZM163.773 37.864C163.773 36.472 165.117 35.872 166.581 35.872C168.153 35.872 169.341 36.58 170.157 37.12C170.169 36.904 170.157 36.424 170.157 36.232C170.157 35.032 169.569 34.54 168.021 34.54H164.517L164.505 33.244H168.657C170.937 33.244 171.957 34.192 171.957 36.4V38.668H173.145V40.012H171.033V40L170.805 40.012C170.421 40.012 170.253 39.592 170.253 39.316C170.253 38.932 170.481 38.224 170.601 38.044L170.241 37.852C169.437 39.652 167.817 40.12 166.689 40.12C165.213 40.12 163.773 39.304 163.773 37.864ZM165.573 37.888C165.573 38.68 166.461 39.088 167.373 39.088C169.089 39.088 169.821 37.66 169.821 37.66C169.821 37.66 168.441 36.76 167.229 36.76C166.713 36.76 165.573 36.928 165.573 37.888ZM177.354 40V33.244H184.842V40H183.042V34.576H179.154V40H177.354ZM191.891 40.12C190.163 40.12 188.867 39.124 188.267 37.924H187.895L188.459 39.136V43H186.659V33.244H188.459V34.024L187.919 34.828H188.327C188.903 33.904 190.415 33.136 191.939 33.136C193.823 33.136 195.539 34.3 195.539 36.616C195.539 38.956 193.775 40.12 191.891 40.12ZM191.255 34.18C189.551 34.18 188.471 35.08 188.471 36.436C188.471 37.72 189.455 38.884 191.303 38.884C192.983 38.884 193.739 37.924 193.739 36.508C193.739 35.044 192.935 34.18 191.255 34.18ZM196.621 37.864C196.621 36.472 197.965 35.872 199.429 35.872C201.001 35.872 202.189 36.58 203.005 37.12C203.017 36.904 203.005 36.424 203.005 36.232C203.005 35.032 202.417 34.54 200.869 34.54H197.365L197.353 33.244H201.505C203.785 33.244 204.805 34.192 204.805 36.4V38.668H205.993V40.012H203.881V40L203.653 40.012C203.269 40.012 203.101 39.592 203.101 39.316C203.101 38.932 203.329 38.224 203.449 38.044L203.089 37.852C202.285 39.652 200.665 40.12 199.537 40.12C198.061 40.12 196.621 39.304 196.621 37.864ZM198.421 37.888C198.421 38.68 199.309 39.088 200.221 39.088C201.937 39.088 202.669 37.66 202.669 37.66C202.669 37.66 201.289 36.76 200.077 36.76C199.561 36.76 198.421 36.928 198.421 37.888ZM214.02 36.844C214.512 36.94 214.32 37.516 214.092 38.656H215.364V40.024H211.788L212.976 37.492H208.8V40H207.156V33.256H208.8V36.064H209.328L213.156 33.244H215.304L211.872 35.824C211.392 36.22 210.66 36.4 209.712 36.592V36.976C210 36.904 210.72 36.712 211.08 36.64C211.632 36.556 212.148 36.508 212.592 36.508C213.276 36.508 213.804 36.616 214.02 36.844ZM222.965 33.244V34.66H220.181V40H218.537V34.66H215.681V33.244H222.965ZM229.931 40V37.348C229.931 36.22 230.351 34.768 230.699 33.676L230.315 33.604C229.967 34.696 229.451 36.136 228.791 37.108L226.343 40H224.135V33.244H225.911L225.923 36.376C225.923 37.336 225.551 38.572 225.287 39.508L225.683 39.58C225.947 38.644 226.247 37.396 226.751 36.532L229.403 33.244H231.731L231.707 40H229.931ZM240.54 36.844C241.032 36.94 240.84 37.516 240.612 38.656H241.884V40.024H238.308L239.496 37.492H235.32V40H233.676V33.256H235.32V36.064H235.848L239.676 33.244H241.824L238.392 35.824C237.912 36.22 237.18 36.4 236.232 36.592V36.976C236.52 36.904 237.24 36.712 237.6 36.64C238.152 36.556 238.668 36.508 239.112 36.508C239.796 36.508 240.324 36.616 240.54 36.844ZM250.492 36.724H244.336C244.336 36.82 244.336 36.916 244.336 37.012C244.36 38.344 245.392 39.112 246.784 39.112C247.756 39.112 248.98 38.692 249.316 37.612H250.9C250.48 39.376 248.62 40.18 246.748 40.18C244.456 40.18 242.56 38.956 242.56 36.664C242.56 34.276 244.528 33.112 246.676 33.112C249.004 33.112 250.552 34.48 250.492 36.724ZM244.408 36.028H248.74C248.704 34.924 248.044 34.156 246.664 34.156C245.164 34.156 244.588 35.044 244.408 36.028ZM251.909 39.148C251.909 38.56 252.317 38.176 252.953 38.176C253.577 38.176 253.997 38.56 253.997 39.148C253.997 39.208 253.985 39.268 253.973 39.316L253.925 40.048L252.797 41.584H252.173L252.713 40.096C252.221 40.012 251.909 39.652 251.909 39.148ZM28.48 51.864C28.48 50.472 29.824 49.872 31.288 49.872C32.86 49.872 34.048 50.58 34.864 51.12C34.876 50.904 34.864 50.424 34.864 50.232C34.864 49.032 34.276 48.54 32.728 48.54H29.224L29.212 47.244H33.364C35.644 47.244 36.664 48.192 36.664 50.4V52.668H37.852V54.012H35.74V54L35.512 54.012C35.128 54.012 34.96 53.592 34.96 53.316C34.96 52.932 35.188 52.224 35.308 52.044L34.948 51.852C34.144 53.652 32.524 54.12 31.396 54.12C29.92 54.12 28.48 53.304 28.48 51.864ZM30.28 51.888C30.28 52.68 31.168 53.088 32.08 53.088C33.796 53.088 34.528 51.66 34.528 51.66C34.528 51.66 33.148 50.76 31.936 50.76C31.42 50.76 30.28 50.928 30.28 51.888ZM48.613 47.244V48.66H45.829V54H44.185V48.66H41.329V47.244H48.613ZM49.3277 51.864C49.3277 50.472 50.6717 49.872 52.1357 49.872C53.7077 49.872 54.8957 50.58 55.7117 51.12C55.7237 50.904 55.7117 50.424 55.7117 50.232C55.7117 49.032 55.1237 48.54 53.5757 48.54H50.0717L50.0597 47.244H54.2117C56.4917 47.244 57.5117 48.192 57.5117 50.4V52.668H58.6997V54.012H56.5877V54L56.3597 54.012C55.9757 54.012 55.8077 53.592 55.8077 53.316C55.8077 52.932 56.0357 52.224 56.1557 52.044L55.7957 51.852C54.9917 53.652 53.3717 54.12 52.2437 54.12C50.7677 54.12 49.3277 53.304 49.3277 51.864ZM51.1277 51.888C51.1277 52.68 52.0157 53.088 52.9277 53.088C54.6437 53.088 55.3757 51.66 55.3757 51.66C55.3757 51.66 53.9957 50.76 52.7837 50.76C52.2677 50.76 51.1277 50.928 51.1277 51.888ZM66.7275 50.844C67.2195 50.94 67.0275 51.516 66.7995 52.656H68.0715V54.024H64.4955L65.6835 51.492H61.5075V54H59.8635V47.256H61.5075V50.064H62.0355L65.8635 47.244H68.0115L64.5795 49.824C64.0995 50.22 63.3675 50.4 62.4195 50.592V50.976C62.7075 50.904 63.4275 50.712 63.7875 50.64C64.3395 50.556 64.8555 50.508 65.2995 50.508C65.9835 50.508 66.5115 50.616 66.7275 50.844ZM71.5916 49.8L68.6036 47.244H70.4876L73.8116 50.04L74.2436 50.808H74.6156L74.1956 49.968V45.24H75.9956V49.968L75.5756 50.808H75.9356L76.3796 50.04L79.6916 47.244H81.5756L78.5996 49.8C78.8276 51.408 79.6436 52.668 80.7476 52.668H81.8036L81.8156 54H80.3876C78.9356 54 77.7836 52.236 77.5916 50.664H77.1596L75.9956 52.14V54H74.1956V52.14L73.0316 50.664H72.5876C72.4076 52.236 71.2556 54 69.8036 54H68.3636L68.3756 52.668H69.4436C70.5476 52.668 71.3636 51.408 71.5916 49.8ZM90.3905 50.724H84.2345C84.2345 50.82 84.2345 50.916 84.2345 51.012C84.2585 52.344 85.2905 53.112 86.6825 53.112C87.6545 53.112 88.8785 52.692 89.2145 51.612H90.7985C90.3785 53.376 88.5185 54.18 86.6465 54.18C84.3545 54.18 82.4585 52.956 82.4585 50.664C82.4585 48.276 84.4265 47.112 86.5745 47.112C88.9025 47.112 90.4505 48.48 90.3905 50.724ZM84.3065 50.028H88.6385C88.6025 48.924 87.9425 48.156 86.5625 48.156C85.0625 48.156 84.4865 49.044 84.3065 50.028ZM101.189 54V51.348C101.189 50.22 101.609 48.768 101.957 47.676L101.573 47.604C101.225 48.696 100.709 50.136 100.049 51.108L97.601 54H95.393V47.244H97.169L97.181 50.376C97.181 51.336 96.809 52.572 96.545 53.508L96.941 53.58C97.205 52.644 97.505 51.396 98.009 50.532L100.661 47.244H102.989L102.965 54H101.189ZM111.318 51.204H112.998C112.71 53.16 110.658 54.18 108.642 54.18C106.422 54.18 104.478 52.944 104.478 50.664C104.478 48.216 106.662 47.112 108.702 47.112C110.61 47.112 112.59 48.06 112.734 50.088H111.066C111.042 48.96 110.082 48.156 108.618 48.156C106.866 48.156 106.11 49.32 106.11 50.664C106.11 52.392 107.19 53.148 108.618 53.148C110.106 53.148 111.198 52.296 111.318 51.204ZM114.354 54V47.244H121.842V54H120.042V48.576H116.154V54H114.354ZM127.691 47.112C129.719 47.112 131.927 48.252 131.927 50.664C131.927 52.896 129.887 54.192 127.631 54.192C125.339 54.192 123.263 52.848 123.263 50.664C123.263 48.348 125.579 47.112 127.691 47.112ZM125.051 50.64C125.051 52.104 126.107 53.232 127.607 53.232C129.095 53.232 130.127 52.116 130.127 50.64C130.127 49.272 129.227 48.144 127.643 48.144C125.915 48.144 125.051 49.476 125.051 50.64ZM141.484 54H139.684V48.576H137.008C136.648 51.456 136.156 54.264 134.116 54.12L133.204 54.072L133.228 52.68L133.78 52.704C134.896 52.764 135.172 50.772 135.616 47.292V47.244H141.46L141.484 54ZM145.268 47.244V49.956H147.872C149.888 49.956 151.304 50.52 151.304 52.02C151.304 53.232 150.14 54 148.352 54H143.468V47.244H145.268ZM148.1 52.812C148.904 52.812 149.528 52.524 149.528 51.936C149.528 51.324 148.856 51.048 147.848 51.048H145.268V52.812H148.1ZM158.244 50.82C159.48 50.832 160.008 51.324 160.008 52.08C160.008 53.616 158.088 54.192 156.264 54.192C154.188 54.192 152.232 53.496 152.232 51.696H153.888C153.876 52.644 155.184 53.088 156.288 53.088C157.32 53.088 158.352 52.824 158.352 52.032C158.352 51.336 157.932 51.036 156.9 51.036H155.136V50.268H156.9C157.836 50.268 158.352 49.92 158.352 49.272C158.352 48.504 157.284 48.228 156.276 48.228C155.148 48.228 153.876 48.648 153.888 49.62H152.232C152.232 47.796 154.152 47.112 156.252 47.112C158.076 47.112 160.008 47.7 160.008 49.224C160.008 49.92 159.42 50.472 158.244 50.496V50.82ZM165.543 47.112C167.571 47.112 169.779 48.252 169.779 50.664C169.779 52.896 167.739 54.192 165.483 54.192C163.191 54.192 161.115 52.848 161.115 50.664C161.115 48.348 163.431 47.112 165.543 47.112ZM162.903 50.64C162.903 52.104 163.959 53.232 165.459 53.232C166.947 53.232 167.979 52.116 167.979 50.64C167.979 49.272 167.079 48.144 165.495 48.144C163.767 48.144 162.903 49.476 162.903 50.64ZM176.732 50.76C178.1 50.856 179.288 51.036 179.288 52.248C179.288 53.604 177.86 54 176.336 54H171.452V47.16H175.796C177.404 47.16 179.12 47.424 179.12 48.84C179.12 49.968 178.028 50.364 176.732 50.448V50.76ZM175.7 48.396H173.252V50.22H175.856C176.744 50.22 177.404 49.872 177.404 49.26C177.404 48.648 176.672 48.396 175.7 48.396ZM176.084 52.884C176.888 52.884 177.512 52.56 177.512 51.936C177.512 51.288 176.84 50.952 175.844 50.952H173.252V52.884H176.084ZM180.308 51.864C180.308 50.472 181.652 49.872 183.116 49.872C184.688 49.872 185.876 50.58 186.692 51.12C186.704 50.904 186.692 50.424 186.692 50.232C186.692 49.032 186.104 48.54 184.556 48.54H181.052L181.04 47.244H185.192C187.472 47.244 188.492 48.192 188.492 50.4V52.668H189.68V54.012H187.568V54L187.34 54.012C186.956 54.012 186.788 53.592 186.788 53.316C186.788 52.932 187.016 52.224 187.136 52.044L186.776 51.852C185.972 53.652 184.352 54.12 183.224 54.12C181.748 54.12 180.308 53.304 180.308 51.864ZM182.108 51.888C182.108 52.68 182.996 53.088 183.908 53.088C185.624 53.088 186.356 51.66 186.356 51.66C186.356 51.66 184.976 50.76 183.764 50.76C183.248 50.76 182.108 50.928 182.108 51.888ZM197.324 47.244V48.66H194.54V54H192.896V48.66H190.04V47.244H197.324ZM200.475 47.244V49.956H203.079C205.095 49.956 206.511 50.52 206.511 52.02C206.511 53.232 205.347 54 203.559 54H198.675V47.244H200.475ZM203.307 52.812C204.111 52.812 204.735 52.524 204.735 51.936C204.735 51.324 204.063 51.048 203.055 51.048H200.475V52.812H203.307ZM214.732 54.12C212.332 54.12 210.7 52.788 210.7 50.172C210.7 47.04 212.188 46.296 214.948 45.504C215.428 45.36 217.204 44.832 217.6 44.724C217.6 45 217.6 45.804 217.6 46.104C217.072 46.26 215.56 46.716 215.008 46.884C213.172 47.364 212.428 48.216 211.852 49.476L212.14 49.764C212.848 48.936 213.868 48.588 215.092 48.588C216.868 48.588 218.452 49.44 218.452 51.24C218.452 53.196 216.484 54.12 214.732 54.12ZM214.576 49.548C213.772 49.548 213.052 49.776 212.356 50.232C212.356 50.28 212.356 50.448 212.356 50.484C212.356 52.056 213.436 52.728 214.744 52.728C215.824 52.728 216.808 52.152 216.808 51.036C216.808 49.932 215.668 49.548 214.576 49.548ZM224.019 47.112C226.047 47.112 228.255 48.252 228.255 50.664C228.255 52.896 226.215 54.192 223.959 54.192C221.667 54.192 219.591 52.848 219.591 50.664C219.591 48.348 221.907 47.112 224.019 47.112ZM221.379 50.64C221.379 52.104 222.435 53.232 223.935 53.232C225.423 53.232 226.455 52.116 226.455 50.64C226.455 49.272 225.555 48.144 223.971 48.144C222.243 48.144 221.379 49.476 221.379 50.64ZM236.301 47.244V48.66H233.517V54H231.873V48.66H229.017V47.244H236.301ZM237.015 51.864C237.015 50.472 238.359 49.872 239.823 49.872C241.395 49.872 242.583 50.58 243.399 51.12C243.411 50.904 243.399 50.424 243.399 50.232C243.399 49.032 242.811 48.54 241.263 48.54H237.759L237.747 47.244H241.899C244.179 47.244 245.199 48.192 245.199 50.4V52.668H246.387V54.012H244.275V54L244.047 54.012C243.663 54.012 243.495 53.592 243.495 53.316C243.495 52.932 243.723 52.224 243.843 52.044L243.483 51.852C242.679 53.652 241.059 54.12 239.931 54.12C238.455 54.12 237.015 53.304 237.015 51.864ZM238.815 51.888C238.815 52.68 239.703 53.088 240.615 53.088C242.331 53.088 243.063 51.66 243.063 51.66C243.063 51.66 241.683 50.76 240.471 50.76C239.955 50.76 238.815 50.928 238.815 51.888ZM34.396 64.76C35.764 64.856 36.952 65.036 36.952 66.248C36.952 67.604 35.524 68 34 68H29.116V61.16H33.46C35.068 61.16 36.784 61.424 36.784 62.84C36.784 63.968 35.692 64.364 34.396 64.448V64.76ZM33.364 62.396H30.916V64.22H33.52C34.408 64.22 35.068 63.872 35.068 63.26C35.068 62.648 34.336 62.396 33.364 62.396ZM33.748 66.884C34.552 66.884 35.176 66.56 35.176 65.936C35.176 65.288 34.504 64.952 33.508 64.952H30.916V66.884H33.748ZM48.0014 65.204H49.6814C49.3934 67.16 47.3414 68.18 45.3254 68.18C43.1054 68.18 41.1614 66.944 41.1614 64.664C41.1614 62.216 43.3454 61.112 45.3854 61.112C47.2934 61.112 49.2734 62.06 49.4174 64.088H47.7494C47.7254 62.96 46.7654 62.156 45.3014 62.156C43.5494 62.156 42.7934 63.32 42.7934 64.664C42.7934 66.392 43.8734 67.148 45.3014 67.148C46.7894 67.148 47.8814 66.296 48.0014 65.204ZM56.4976 64.76C57.8656 64.856 59.0536 65.036 59.0536 66.248C59.0536 67.604 57.6256 68 56.1016 68H51.2176V61.16H55.5616C57.1696 61.16 58.8856 61.424 58.8856 62.84C58.8856 63.968 57.7936 64.364 56.4976 64.448V64.76ZM55.4656 62.396H53.0176V64.22H55.6216C56.5096 64.22 57.1696 63.872 57.1696 63.26C57.1696 62.648 56.4376 62.396 55.4656 62.396ZM55.8496 66.884C56.6536 66.884 57.2776 66.56 57.2776 65.936C57.2776 65.288 56.6056 64.952 55.6096 64.952H53.0176V66.884H55.8496ZM64.5738 61.112C66.6018 61.112 68.8098 62.252 68.8098 64.664C68.8098 66.896 66.7698 68.192 64.5138 68.192C62.2218 68.192 60.1458 66.848 60.1458 64.664C60.1458 62.348 62.4618 61.112 64.5738 61.112ZM61.9338 64.64C61.9338 66.104 62.9898 67.232 64.4898 67.232C65.9778 67.232 67.0098 66.116 67.0098 64.64C67.0098 63.272 66.1098 62.144 64.5258 62.144C62.7978 62.144 61.9338 63.476 61.9338 64.64ZM77.8632 64.724H71.7072C71.7072 64.82 71.7072 64.916 71.7072 65.012C71.7312 66.344 72.7632 67.112 74.1552 67.112C75.1272 67.112 76.3512 66.692 76.6872 65.612H78.2712C77.8512 67.376 75.9912 68.18 74.1192 68.18C71.8272 68.18 69.9312 66.956 69.9312 64.664C69.9312 62.276 71.8992 61.112 74.0472 61.112C76.3752 61.112 77.9232 62.48 77.8632 64.724ZM71.7792 64.028H76.1112C76.0752 62.924 75.4152 62.156 74.0352 62.156C72.5352 62.156 71.9592 63.044 71.7792 64.028ZM82.1725 58.628H83.0005C83.0005 59.096 83.2885 59.444 83.7085 59.444C84.1405 59.444 84.4405 59.096 84.4405 58.628H85.2685C85.2685 59.432 84.6325 59.996 83.7325 59.996C82.8205 59.996 82.1725 59.42 82.1725 58.628ZM85.5445 68V65.348C85.5445 64.22 85.9645 62.768 86.3125 61.676L85.9285 61.604C85.5805 62.696 85.0645 64.136 84.4045 65.108L81.9565 68H79.7485V61.244H81.5245L81.5365 64.376C81.5365 65.336 81.1645 66.572 80.9005 67.508L81.2965 67.58C81.5605 66.644 81.8605 65.396 82.3645 64.532L85.0165 61.244H87.3445L87.3205 68H85.5445ZM97.5784 68.12C95.8504 68.12 94.5544 67.124 93.9544 65.924H93.5824L94.1464 67.136V71H92.3464V61.244H94.1464V62.024L93.6064 62.828H94.0144C94.5904 61.904 96.1024 61.136 97.6264 61.136C99.5104 61.136 101.226 62.3 101.226 64.616C101.226 66.956 99.4624 68.12 97.5784 68.12ZM96.9424 62.18C95.2384 62.18 94.1584 63.08 94.1584 64.436C94.1584 65.72 95.1424 66.884 96.9904 66.884C98.6704 66.884 99.4264 65.924 99.4264 64.508C99.4264 63.044 98.6224 62.18 96.9424 62.18ZM102.308 65.864C102.308 64.472 103.652 63.872 105.116 63.872C106.688 63.872 107.876 64.58 108.692 65.12C108.704 64.904 108.692 64.424 108.692 64.232C108.692 63.032 108.104 62.54 106.556 62.54H103.052L103.04 61.244H107.192C109.472 61.244 110.492 62.192 110.492 64.4V66.668H111.68V68.012H109.568V68L109.34 68.012C108.956 68.012 108.788 67.592 108.788 67.316C108.788 66.932 109.016 66.224 109.136 66.044L108.776 65.852C107.972 67.652 106.352 68.12 105.224 68.12C103.748 68.12 102.308 67.304 102.308 65.864ZM104.108 65.888C104.108 66.68 104.996 67.088 105.908 67.088C107.624 67.088 108.356 65.66 108.356 65.66C108.356 65.66 106.976 64.76 105.764 64.76C105.248 64.76 104.108 64.928 104.108 65.888ZM116.564 68.12C114.164 68.12 112.532 66.788 112.532 64.172C112.532 61.04 114.02 60.296 116.78 59.504C117.26 59.36 119.036 58.832 119.432 58.724C119.432 59 119.432 59.804 119.432 60.104C118.904 60.26 117.392 60.716 116.84 60.884C115.004 61.364 114.26 62.216 113.684 63.476L113.972 63.764C114.68 62.936 115.7 62.588 116.924 62.588C118.7 62.588 120.284 63.44 120.284 65.24C120.284 67.196 118.316 68.12 116.564 68.12ZM116.408 63.548C115.604 63.548 114.884 63.776 114.188 64.232C114.188 64.28 114.188 64.448 114.188 64.484C114.188 66.056 115.268 66.728 116.576 66.728C117.656 66.728 118.64 66.152 118.64 65.036C118.64 63.932 117.5 63.548 116.408 63.548ZM125.851 61.112C127.879 61.112 130.087 62.252 130.087 64.664C130.087 66.896 128.047 68.192 125.791 68.192C123.499 68.192 121.423 66.848 121.423 64.664C121.423 62.348 123.739 61.112 125.851 61.112ZM123.211 64.64C123.211 66.104 124.267 67.232 125.767 67.232C127.255 67.232 128.287 66.116 128.287 64.64C128.287 63.272 127.387 62.144 125.803 62.144C124.075 62.144 123.211 63.476 123.211 64.64ZM138.133 61.244V62.66H135.349V68H133.705V62.66H130.849V61.244H138.133ZM146.863 64.724H140.707C140.707 64.82 140.707 64.916 140.707 65.012C140.731 66.344 141.763 67.112 143.155 67.112C144.127 67.112 145.351 66.692 145.687 65.612H147.271C146.851 67.376 144.991 68.18 143.119 68.18C140.827 68.18 138.931 66.956 138.931 64.664C138.931 62.276 140.899 61.112 143.047 61.112C145.375 61.112 146.923 62.48 146.863 64.724ZM140.779 64.028H145.111C145.075 62.924 144.415 62.156 143.035 62.156C141.535 62.156 140.959 63.044 140.779 64.028Z" fill="#B7F46A"></path> <defs> <filter id="filter0_b_208_406" x="-9.9" y="-9.9" width="310.8" height="105.8" filterUnits="userSpaceOnUse" color-interpolation-filters="sRGB"> <feFlood flood-opacity="0" result="BackgroundImageFix"></feFlood> <feGaussianBlur in="BackgroundImageFix" stdDeviation="4.95"></feGaussianBlur> <feComposite in2="SourceAlpha" operator="in" result="effect1_backgroundBlur_208_406"></feComposite> <feBlend mode="normal" in="SourceGraphic" in2="effect1_backgroundBlur_208_406" result="shape"></feBlend> </filter> </defs> </svg> 